SplineFontDB: 3.2
FontName: AcariSans-LightItalic
FullName: Acari Sans Light Italic
FamilyName: Acari Sans Light
Weight: Light
Copyright: Copyright (c)2015, HK Grotesk Latin by Alfredo Marco Pradil (ammpradil@gmail.com) and HK Grotesk Cyrillic by Stefan Peev (http://www.contextbg.net/). HK Grotesk is a trademark of Alfredo Marco Pradil. Copyright (c) 2018-2023 The Acari Sans Project Authors (https://github.com/cssobral2013/acari-sans)
Version: 1.063; ttfautohint (v1.8.3)
ItalicAngle: -13
UnderlinePosition: -250
UnderlineWidth: 100
Ascent: 1600
Descent: 400
InvalidEm: 0
sfntRevision: 0x00011020
LayerCount: 2
Layer: 0 1 "Back" 1
Layer: 1 1 "Fore" 0
XUID: [1021 467 -1401554168 15900377]
StyleMap: 0x0001
FSType: 0
OS2Version: 4
OS2_WeightWidthSlopeOnly: 0
OS2_UseTypoMetrics: 1
CreationTime: 1480856841
ModificationTime: 1687307555
PfmFamily: 81
TTFWeight: 300
TTFWidth: 5
LineGap: 26
VLineGap: 0
Panose: 0 0 0 0 0 0 0 0 0 0
OS2TypoAscent: 1900
OS2TypoAOffset: 0
OS2TypoDescent: -487
OS2TypoDOffset: 0
OS2TypoLinegap: 26
OS2WinAscent: 1913
OS2WinAOffset: 0
OS2WinDescent: 500
OS2WinDOffset: 0
HheadAscent: 1900
HheadAOffset: 0
HheadDescent: -487
HheadDOffset: 0
OS2SubXSize: 1331
OS2SubYSize: 1228
OS2SubXOff: 0
OS2SubYOff: 153
OS2SupXSize: 1331
OS2SupYSize: 1228
OS2SupXOff: 0
OS2SupYOff: 716
OS2StrikeYSize: 82
OS2StrikeYPos: 599
OS2CapHeight: 1413
OS2XHeight: 1039
OS2Vendor: 'AMSP'
OS2CodePages: 20000197.00000000
OS2UnicodeRanges: 2000020f.00000001.00000000.00000000
Lookup: 1 0 0 "'locl' Localized Forms in Latin lookup 21" { "'locl' Localized Forms in Latin lookup 21-1"  } ['locl' ('latn' <'AZE ' 'CRT ' 'KAZ ' 'TAT ' 'TRK ' > ) ]
Lookup: 1 0 0 "'aalt' Access All Alternates lookup 0" { "'aalt' Access All Alternates lookup 0 subtable"  } ['aalt' ('DFLT' <'dflt' > 'cyrl' <'BGR ' 'RUS ' 'SRB ' 'dflt' > 'latn' <'AZE ' 'CRT ' 'KAZ ' 'MOL ' 'ROM ' 'TAT ' 'TRK ' 'dflt' > ) ]

StartChar: .notdef
Encoding: 65536 -1 0
Width: 738
GlyphClass: 1
Flags: W
LayerCount: 2
Fore
SplineSet
604 0 m 1,0,-1
 67 0 l 1,1,-1
 67 1349 l 1,2,-1
 604 1349 l 1,3,-1
 604 0 l 1,0,-1
537 67 m 1,4,-1
 537 1282 l 1,5,-1
 134 1282 l 1,6,-1
 134 67 l 1,7,-1
 537 67 l 1,4,-1
EndSplineSet
EndChar

StartChar: exclam
Encoding: 33 33 4
Width: 638
GlyphClass: 1
Flags: W
LayerCount: 2
Fore
SplineSet
338 372 m 1,0,-1
 241 372 l 1,1,-1
 459 1435 l 1,2,-1
 613 1435 l 1,3,-1
 338 372 l 1,0,-1
294 0 m 1,4,-1
 116 0 l 1,5,-1
 156 177 l 1,6,-1
 335 177 l 1,7,-1
 294 0 l 1,4,-1
EndSplineSet
EndChar

StartChar: quotedbl
Encoding: 34 34 5
Width: 907
GlyphClass: 1
Flags: W
LayerCount: 2
Fore
SplineSet
461 1010 m 1,0,-1
 344 1010 l 1,1,-1
 437 1413 l 1,2,-1
 554 1413 l 1,3,-1
 461 1010 l 1,0,-1
798 1010 m 1,4,-1
 679 1010 l 1,5,-1
 773 1413 l 1,6,-1
 891 1413 l 1,7,-1
 798 1010 l 1,4,-1
EndSplineSet
EndChar

StartChar: numbersign
Encoding: 35 35 6
Width: 1377
GlyphClass: 1
Flags: W
LayerCount: 2
Fore
SplineSet
698 0 m 1,0,-1
 593 0 l 1,1,-1
 786 437 l 1,2,-1
 450 437 l 1,3,-1
 259 0 l 1,4,-1
 154 0 l 1,5,-1
 347 444 l 1,6,-1
 106 444 l 1,7,-1
 129 542 l 1,8,-1
 390 542 l 1,9,-1
 542 893 l 1,10,-1
 291 893 l 1,11,-1
 313 986 l 1,12,-1
 583 986 l 1,13,-1
 781 1434 l 1,14,-1
 886 1434 l 1,15,-1
 691 996 l 1,16,-1
 1027 996 l 1,17,-1
 1221 1434 l 1,18,-1
 1325 1434 l 1,19,-1
 1130 989 l 1,20,-1
 1371 989 l 1,21,-1
 1348 893 l 1,22,-1
 1089 893 l 1,23,-1
 936 542 l 1,24,-1
 1186 542 l 1,25,-1
 1163 450 l 1,26,-1
 895 450 l 1,27,-1
 698 0 l 1,0,-1
831 542 m 1,28,-1
 983 893 l 1,29,-1
 648 893 l 1,30,-1
 495 542 l 1,31,-1
 831 542 l 1,28,-1
EndSplineSet
EndChar

StartChar: dollar
Encoding: 36 36 7
Width: 1116
GlyphClass: 1
Flags: W
LayerCount: 2
Fore
SplineSet
430 -247 m 1,0,-1
 344 -247 l 1,1,-1
 403 -12 l 1,2,3
 342 -6 342 -6 285.5 15.5 c 128,-1,4
 229 37 229 37 183.5 73 c 128,-1,5
 138 109 138 109 108 160 c 128,-1,6
 78 211 78 211 70 275 c 0,7,8
 67 295 67 295 66 316 c 128,-1,9
 65 337 65 337 65 357 c 0,10,11
 65 364 65 364 66 368 c 2,12,-1
 202 394 l 1,13,14
 199 372 199 372 199 350 c 0,15,16
 199 287 199 287 221 242.5 c 128,-1,17
 243 198 243 198 281 169.5 c 128,-1,18
 319 141 319 141 369.5 127.5 c 128,-1,19
 420 114 420 114 477 114 c 0,20,21
 543 114 543 114 603.5 132 c 128,-1,22
 664 150 664 150 713 184.5 c 128,-1,23
 762 219 762 219 797 270.5 c 128,-1,24
 832 322 832 322 847 389 c 0,25,26
 850 403 850 403 852 418 c 128,-1,27
 854 433 854 433 854 447 c 0,28,29
 854 500 854 500 831 539 c 128,-1,30
 808 578 808 578 770 609 c 128,-1,31
 732 640 732 640 683.5 665.5 c 128,-1,32
 635 691 635 691 585 716 c 128,-1,33
 535 741 535 741 486.5 768 c 128,-1,34
 438 795 438 795 400 829.5 c 128,-1,35
 362 864 362 864 339 908.5 c 128,-1,36
 316 953 316 953 316 1012 c 0,37,38
 316 1095 316 1095 350.5 1167 c 128,-1,39
 385 1239 385 1239 442 1294.5 c 128,-1,40
 499 1350 499 1350 573 1385.5 c 128,-1,41
 647 1421 647 1421 725 1430 c 1,42,-1
 785 1659 l 1,43,-1
 870 1659 l 1,44,-1
 811 1431 l 1,45,46
 923 1422 923 1422 999 1369 c 128,-1,47
 1075 1316 1075 1316 1110 1207 c 1,48,-1
 995 1147 l 1,49,50
 971 1230 971 1230 909.5 1271 c 128,-1,51
 848 1312 848 1312 763 1312 c 0,52,53
 706 1312 706 1312 651 1289.5 c 128,-1,54
 596 1267 596 1267 552.5 1228.5 c 128,-1,55
 509 1190 509 1190 482 1138 c 128,-1,56
 455 1086 455 1086 455 1027 c 0,57,58
 455 977 455 977 486 937 c 128,-1,59
 517 897 517 897 565 863.5 c 128,-1,60
 613 830 613 830 672 800 c 128,-1,61
 731 770 731 770 787 739.5 c 128,-1,62
 843 709 843 709 889.5 675 c 128,-1,63
 936 641 936 641 959 599 c 0,64,65
 976 570 976 570 983 533 c 128,-1,66
 990 496 990 496 990 463 c 0,67,68
 990 362 990 362 948 276 c 128,-1,69
 906 190 906 190 836.5 126 c 128,-1,70
 767 62 767 62 676.5 25 c 128,-1,71
 586 -12 586 -12 489 -15 c 1,72,-1
 430 -247 l 1,0,-1
EndSplineSet
EndChar

StartChar: percent
Encoding: 37 37 8
Width: 1598
GlyphClass: 1
Flags: W
LayerCount: 2
Fore
SplineSet
473 813 m 0,0,1
 422 813 422 813 386 829.5 c 128,-1,2
 350 846 350 846 327 875 c 128,-1,3
 304 904 304 904 293.5 944 c 128,-1,4
 283 984 283 984 283 1031 c 0,5,6
 283 1073 283 1073 292 1119.5 c 128,-1,7
 301 1166 301 1166 318.5 1211 c 128,-1,8
 336 1256 336 1256 362 1297 c 128,-1,9
 388 1338 388 1338 422 1368.5 c 128,-1,10
 456 1399 456 1399 497.5 1417.5 c 128,-1,11
 539 1436 539 1436 588 1436 c 0,12,13
 638 1436 638 1436 673.5 1418 c 128,-1,14
 709 1400 709 1400 731.5 1369 c 128,-1,15
 754 1338 754 1338 765 1297.5 c 128,-1,16
 776 1257 776 1257 776 1212 c 0,17,18
 776 1149 776 1149 755.5 1079 c 128,-1,19
 735 1009 735 1009 696 950 c 128,-1,20
 657 891 657 891 601 852 c 128,-1,21
 545 813 545 813 473 813 c 0,0,1
366 6 m 1,22,-1
 249 6 l 1,23,-1
 1314 1397 l 1,24,-1
 1432 1397 l 1,25,-1
 366 6 l 1,22,-1
467 895 m 0,26,27
 519 895 519 895 559.5 930 c 128,-1,28
 600 965 600 965 628 1015.5 c 128,-1,29
 656 1066 656 1066 671 1122.5 c 128,-1,30
 686 1179 686 1179 686 1222 c 0,31,32
 686 1246 686 1246 681.5 1269 c 128,-1,33
 677 1292 677 1292 665.5 1310.5 c 128,-1,34
 654 1329 654 1329 635.5 1340 c 128,-1,35
 617 1351 617 1351 589 1351 c 0,36,37
 535 1351 535 1351 494 1317 c 128,-1,38
 453 1283 453 1283 425 1233 c 128,-1,39
 397 1183 397 1183 382.5 1127 c 128,-1,40
 368 1071 368 1071 368 1026 c 0,41,42
 368 1001 368 1001 372.5 977.5 c 128,-1,43
 377 954 377 954 388 935.5 c 128,-1,44
 399 917 399 917 418 906 c 128,-1,45
 437 895 437 895 467 895 c 0,26,27
1115 5 m 0,46,47
 1065 5 1065 5 1029 22 c 128,-1,48
 993 39 993 39 969.5 68 c 128,-1,49
 946 97 946 97 935 137.5 c 128,-1,50
 924 178 924 178 924 224 c 0,51,52
 924 287 924 287 944.5 357 c 128,-1,53
 965 427 965 427 1004 486.5 c 128,-1,54
 1043 546 1043 546 1099.5 584.5 c 128,-1,55
 1156 623 1156 623 1228 623 c 0,56,57
 1277 623 1277 623 1312.5 605 c 128,-1,58
 1348 587 1348 587 1371.5 556.5 c 128,-1,59
 1395 526 1395 526 1406 485.5 c 128,-1,60
 1417 445 1417 445 1417 400 c 0,61,62
 1417 337 1417 337 1397 267.5 c 128,-1,63
 1377 198 1377 198 1338 139.5 c 128,-1,64
 1299 81 1299 81 1243 43 c 128,-1,65
 1187 5 1187 5 1115 5 c 0,46,47
1110 88 m 0,66,67
 1145 88 1145 88 1174.5 104 c 128,-1,68
 1204 120 1204 120 1228.5 146.5 c 128,-1,69
 1253 173 1253 173 1271.5 206.5 c 128,-1,70
 1290 240 1290 240 1303 276 c 128,-1,71
 1316 312 1316 312 1322.5 347.5 c 128,-1,72
 1329 383 1329 383 1329 412 c 0,73,74
 1329 436 1329 436 1324.5 458.5 c 128,-1,75
 1320 481 1320 481 1308.5 499 c 128,-1,76
 1297 517 1297 517 1278.5 527.5 c 128,-1,77
 1260 538 1260 538 1232 538 c 0,78,79
 1180 538 1180 538 1138.5 505 c 128,-1,80
 1097 472 1097 472 1068.5 423 c 128,-1,81
 1040 374 1040 374 1025 318.5 c 128,-1,82
 1010 263 1010 263 1010 219 c 0,83,84
 1010 194 1010 194 1014.5 170 c 128,-1,85
 1019 146 1019 146 1030.5 128 c 128,-1,86
 1042 110 1042 110 1061 99 c 128,-1,87
 1080 88 1080 88 1110 88 c 0,66,67
EndSplineSet
EndChar

StartChar: ampersand
Encoding: 38 38 9
Width: 1369
GlyphClass: 1
Flags: W
LayerCount: 2
Fore
SplineSet
1058 -50 m 1,0,-1
 913 186 l 1,1,2
 811 86 811 86 690 32.5 c 128,-1,3
 569 -21 569 -21 425 -21 c 0,4,5
 361 -21 361 -21 300 -8.5 c 128,-1,6
 239 4 239 4 191.5 34 c 128,-1,7
 144 64 144 64 115 114 c 128,-1,8
 86 164 86 164 86 238 c 0,9,10
 86 280 86 280 100 325 c 0,11,12
 125 406 125 406 173.5 471.5 c 128,-1,13
 222 537 222 537 284.5 590 c 128,-1,14
 347 643 347 643 418.5 687.5 c 128,-1,15
 490 732 490 732 560 771 c 1,16,17
 538 807 538 807 517.5 844 c 128,-1,18
 497 881 497 881 480.5 920.5 c 128,-1,19
 464 960 464 960 454 1001 c 128,-1,20
 444 1042 444 1042 444 1085 c 0,21,22
 444 1161 444 1161 478.5 1224.5 c 128,-1,23
 513 1288 513 1288 569 1333.5 c 128,-1,24
 625 1379 625 1379 695.5 1404.5 c 128,-1,25
 766 1430 766 1430 837 1430 c 0,26,27
 895 1430 895 1430 941.5 1412.5 c 128,-1,28
 988 1395 988 1395 1020.5 1362.5 c 128,-1,29
 1053 1330 1053 1330 1070.5 1283.5 c 128,-1,30
 1088 1237 1088 1237 1088 1179 c 0,31,32
 1088 1163 1088 1163 1085.5 1147.5 c 128,-1,33
 1083 1132 1083 1132 1079 1117 c 0,34,35
 1060 1048 1060 1048 1021.5 992 c 128,-1,36
 983 936 983 936 932.5 890 c 128,-1,37
 882 844 882 844 823.5 806.5 c 128,-1,38
 765 769 765 769 706 736 c 1,39,-1
 934 370 l 1,40,41
 987 445 987 445 1026 526 c 128,-1,42
 1065 607 1065 607 1094 694 c 1,43,-1
 1198 670 l 1,44,45
 1163 564 1163 564 1112.5 463.5 c 128,-1,46
 1062 363 1062 363 993 275 c 1,47,-1
 1151 21 l 1,48,-1
 1058 -50 l 1,0,-1
647 821 m 1,49,50
 679 839 679 839 717 861 c 128,-1,51
 755 883 755 883 793.5 908.5 c 128,-1,52
 832 934 832 934 868 964.5 c 128,-1,53
 904 995 904 995 931.5 1028.5 c 128,-1,54
 959 1062 959 1062 976 1100 c 128,-1,55
 993 1138 993 1138 993 1180 c 0,56,57
 993 1213 993 1213 980 1239 c 128,-1,58
 967 1265 967 1265 945.5 1283.5 c 128,-1,59
 924 1302 924 1302 895.5 1312 c 128,-1,60
 867 1322 867 1322 836 1322 c 0,61,62
 787 1322 787 1322 735.5 1304 c 128,-1,63
 684 1286 684 1286 642 1253.5 c 128,-1,64
 600 1221 600 1221 573.5 1176 c 128,-1,65
 547 1131 547 1131 547 1077 c 0,66,67
 547 1046 547 1046 556.5 1012 c 128,-1,68
 566 978 566 978 580.5 944 c 128,-1,69
 595 910 595 910 613 878.5 c 128,-1,70
 631 847 631 847 647 821 c 1,49,50
433 94 m 0,71,72
 560 94 560 94 664.5 139.5 c 128,-1,73
 769 185 769 185 857 276 c 1,74,-1
 607 679 l 1,75,76
 569 658 569 658 523.5 631.5 c 128,-1,77
 478 605 478 605 432 573 c 128,-1,78
 386 541 386 541 343.5 504.5 c 128,-1,79
 301 468 301 468 268 427 c 128,-1,80
 235 386 235 386 215 340 c 128,-1,81
 195 294 195 294 195 244 c 0,82,83
 195 198 195 198 218.5 168.5 c 128,-1,84
 242 139 242 139 277.5 122.5 c 128,-1,85
 313 106 313 106 354.5 100 c 128,-1,86
 396 94 396 94 433 94 c 0,71,72
EndSplineSet
EndChar

StartChar: quotesingle
Encoding: 39 39 10
Width: 613
GlyphClass: 1
Flags: W
LayerCount: 2
Fore
SplineSet
490 1039 m 1,0,-1
 373 1039 l 1,1,-1
 466 1442 l 1,2,-1
 583 1442 l 1,3,-1
 490 1039 l 1,0,-1
EndSplineSet
EndChar

StartChar: parenleft
Encoding: 40 40 11
Width: 567
GlyphClass: 1
Flags: W
LayerCount: 2
Fore
SplineSet
358 -9 m 1,0,-1
 263 -9 l 1,1,2
 234 35 234 35 214.5 92.5 c 128,-1,3
 195 150 195 150 183 211.5 c 128,-1,4
 171 273 171 273 166 334 c 128,-1,5
 161 395 161 395 161 447 c 0,6,7
 161 584 161 584 190.5 718.5 c 128,-1,8
 220 853 220 853 275.5 978.5 c 128,-1,9
 331 1104 331 1104 409.5 1217.5 c 128,-1,10
 488 1331 488 1331 585 1427 c 1,11,-1
 698 1427 l 1,12,13
 604 1331 604 1331 523.5 1210.5 c 128,-1,14
 443 1090 443 1090 384 961.5 c 128,-1,15
 325 833 325 833 291.5 696.5 c 128,-1,16
 258 560 258 560 258 423 c 0,17,18
 258 308 258 308 280.5 200 c 128,-1,19
 303 92 303 92 358 -9 c 1,0,-1
EndSplineSet
EndChar

StartChar: parenright
Encoding: 41 41 12
Width: 569
GlyphClass: 1
Flags: W
LayerCount: 2
Fore
SplineSet
76 -17 m 1,0,-1
 -32 -17 l 1,1,2
 34 51 34 51 98 142 c 128,-1,3
 162 233 162 233 216.5 328.5 c 128,-1,4
 271 424 271 424 312 523.5 c 128,-1,5
 353 623 353 623 374 716 c 0,6,7
 403 844 403 844 403 971 c 0,8,9
 403 1088 403 1088 379.5 1200.5 c 128,-1,10
 356 1313 356 1313 305 1419 c 1,11,-1
 400 1419 l 1,12,13
 461 1320 461 1320 484.5 1208 c 128,-1,14
 508 1096 508 1096 508 981 c 0,15,16
 508 872 508 872 489.5 768 c 128,-1,17
 471 664 471 664 437 565 c 128,-1,18
 403 466 403 466 355 371.5 c 128,-1,19
 307 277 307 277 248 187 c 0,20,21
 211 130 211 130 169 79 c 128,-1,22
 127 28 127 28 76 -17 c 1,0,-1
EndSplineSet
EndChar

StartChar: asterisk
Encoding: 42 42 13
Width: 874
GlyphClass: 1
Flags: W
LayerCount: 2
Fore
SplineSet
397 855 m 1,0,-1
 329 914 l 1,1,-1
 552 1121 l 1,2,-1
 307 1164 l 1,3,-1
 359 1262 l 1,4,-1
 572 1157 l 1,5,-1
 601 1413 l 1,6,-1
 693 1413 l 1,7,-1
 603 1157 l 1,8,-1
 862 1262 l 1,9,-1
 870 1164 l 1,10,-1
 604 1121 l 1,11,-1
 735 915 l 1,12,-1
 648 856 l 1,13,-1
 576 1094 l 1,14,-1
 397 855 l 1,0,-1
EndSplineSet
EndChar

StartChar: plus
Encoding: 43 43 14
Width: 1282
GlyphClass: 1
Flags: W
LayerCount: 2
Fore
SplineSet
689 106 m 1,0,-1
 592 106 l 1,1,-1
 592 578 l 1,2,-1
 135 578 l 1,3,-1
 135 674 l 1,4,-1
 592 674 l 1,5,-1
 592 1142 l 1,6,-1
 689 1142 l 1,7,-1
 689 674 l 1,8,-1
 1147 674 l 1,9,-1
 1147 578 l 1,10,-1
 689 578 l 1,11,-1
 689 106 l 1,0,-1
EndSplineSet
EndChar

StartChar: comma
Encoding: 44 44 15
Width: 600
GlyphClass: 1
Flags: W
LayerCount: 2
Fore
SplineSet
227 -226 m 1,0,-1
 149 -226 l 1,1,-1
 364 261 l 1,2,-1
 539 261 l 1,3,-1
 227 -226 l 1,0,-1
EndSplineSet
EndChar

StartChar: hyphen
Encoding: 45 45 16
Width: 835
GlyphClass: 1
Flags: W
LayerCount: 2
Fore
SplineSet
698 640 m 1,0,-1
 201 640 l 1,1,-1
 224 737 l 1,2,-1
 721 737 l 1,3,-1
 698 640 l 1,0,-1
EndSplineSet
EndChar

StartChar: period
Encoding: 46 46 17
Width: 600
GlyphClass: 1
Flags: W
LayerCount: 2
Fore
SplineSet
436 0 m 1,0,-1
 249 0 l 1,1,-1
 291 177 l 1,2,-1
 477 177 l 1,3,-1
 436 0 l 1,0,-1
EndSplineSet
EndChar

StartChar: slash
Encoding: 47 47 18
Width: 939
GlyphClass: 1
Flags: W
LayerCount: 2
Fore
SplineSet
-49 -431 m 1,0,-1
 -189 -431 l 1,1,-1
 1011 1516 l 1,2,-1
 1147 1516 l 1,3,-1
 -49 -431 l 1,0,-1
EndSplineSet
EndChar

StartChar: zero
Encoding: 48 48 19
Width: 1200
GlyphClass: 1
Flags: W
LayerCount: 2
Fore
SplineSet
446 -20 m 0,0,1
 334 -20 334 -20 261.5 22 c 128,-1,2
 189 64 189 64 146.5 133 c 128,-1,3
 104 202 104 202 87.5 291.5 c 128,-1,4
 71 381 71 381 71 476 c 0,5,6
 71 568 71 568 92.5 675 c 128,-1,7
 114 782 114 782 154.5 889 c 128,-1,8
 195 996 195 996 255 1094.5 c 128,-1,9
 315 1193 315 1193 391.5 1269 c 128,-1,10
 468 1345 468 1345 561.5 1390.5 c 128,-1,11
 655 1436 655 1436 763 1436 c 0,12,13
 833 1436 833 1436 888.5 1415.5 c 128,-1,14
 944 1395 944 1395 987 1358 c 128,-1,15
 1030 1321 1030 1321 1060.5 1268.5 c 128,-1,16
 1091 1216 1091 1216 1110 1152 c 0,17,18
 1125 1101 1125 1101 1129.5 1046 c 128,-1,19
 1134 991 1134 991 1134 938 c 0,20,21
 1134 847 1134 847 1112.5 741 c 128,-1,22
 1091 635 1091 635 1050 528.5 c 128,-1,23
 1009 422 1009 422 949.5 323 c 128,-1,24
 890 224 890 224 813.5 148 c 128,-1,25
 737 72 737 72 644.5 26 c 128,-1,26
 552 -20 552 -20 446 -20 c 0,0,1
467 100 m 0,27,28
 554 100 554 100 626.5 143.5 c 128,-1,29
 699 187 699 187 757.5 258.5 c 128,-1,30
 816 330 816 330 860 421.5 c 128,-1,31
 904 513 904 513 933.5 607.5 c 128,-1,32
 963 702 963 702 977.5 792.5 c 128,-1,33
 992 883 992 883 992 953 c 0,34,35
 992 1016 992 1016 980.5 1080 c 128,-1,36
 969 1144 969 1144 940.5 1195.5 c 128,-1,37
 912 1247 912 1247 862.5 1279 c 128,-1,38
 813 1311 813 1311 736 1311 c 0,39,40
 647 1311 647 1311 572.5 1268.5 c 128,-1,41
 498 1226 498 1226 438.5 1156.5 c 128,-1,42
 379 1087 379 1087 334.5 997.5 c 128,-1,43
 290 908 290 908 260.5 814 c 128,-1,44
 231 720 231 720 216 629 c 128,-1,45
 201 538 201 538 201 466 c 0,46,47
 201 399 201 399 212 333 c 128,-1,48
 223 267 223 267 253 215.5 c 128,-1,49
 283 164 283 164 334.5 132 c 128,-1,50
 386 100 386 100 467 100 c 0,27,28
EndSplineSet
Substitution2: "'subs' Subscript lookup 20 subtable" uni2080
Substitution2: "'sinf' Scientific Inferiors lookup 19 subtable" uni2080
Substitution2: "'sups' Superscript lookup 17 subtable" uni2070
AlternateSubs2: "'aalt' Access All Alternates lookup 1 subtable" uni2070 uni2080
EndChar

StartChar: one
Encoding: 49 49 20
Width: 1200
GlyphClass: 1
Flags: W
LayerCount: 2
Fore
SplineSet
607 0 m 1,0,-1
 471 0 l 1,1,-1
 724 1097 l 1,2,-1
 367 1097 l 1,3,-1
 392 1208 l 1,4,-1
 578 1208 l 2,5,6
 625 1208 625 1208 663.5 1223.5 c 128,-1,7
 702 1239 702 1239 731.5 1266.5 c 128,-1,8
 761 1294 761 1294 781 1331.5 c 128,-1,9
 801 1369 801 1369 810 1413 c 1,10,-1
 932 1413 l 1,11,-1
 607 0 l 1,0,-1
EndSplineSet
Substitution2: "'subs' Subscript lookup 20 subtable" uni2081
Substitution2: "'sinf' Scientific Inferiors lookup 19 subtable" uni2081
Substitution2: "'sups' Superscript lookup 17 subtable" onesuperior
AlternateSubs2: "'aalt' Access All Alternates lookup 1 subtable" onesuperior uni2081
EndChar

StartChar: two
Encoding: 50 50 21
Width: 1200
GlyphClass: 1
Flags: W
LayerCount: 2
Fore
SplineSet
930 0 m 1,0,-1
 -25 0 l 1,1,-1
 2 130 l 1,2,3
 117 195 117 195 229.5 264.5 c 128,-1,4
 342 334 342 334 445 418 c 0,5,6
 473 441 473 441 499.5 464 c 128,-1,7
 526 487 526 487 553 510 c 0,8,9
 621 568 621 568 694.5 635 c 128,-1,10
 768 702 768 702 829.5 779 c 128,-1,11
 891 856 891 856 931 942.5 c 128,-1,12
 971 1029 971 1029 971 1126 c 0,13,14
 971 1172 971 1172 956 1206.5 c 128,-1,15
 941 1241 941 1241 914 1264.5 c 128,-1,16
 887 1288 887 1288 850 1300 c 128,-1,17
 813 1312 813 1312 769 1312 c 0,18,19
 693 1312 693 1312 631 1282.5 c 128,-1,20
 569 1253 569 1253 521 1203.5 c 128,-1,21
 473 1154 473 1154 440.5 1090.5 c 128,-1,22
 408 1027 408 1027 391 959 c 1,23,-1
 266 980 l 1,24,25
 288 1073 288 1073 333 1155.5 c 128,-1,26
 378 1238 378 1238 443.5 1299.5 c 128,-1,27
 509 1361 509 1361 593.5 1396.5 c 128,-1,28
 678 1432 678 1432 779 1432 c 0,29,30
 814 1432 814 1432 848.5 1428.5 c 128,-1,31
 883 1425 883 1425 916 1415 c 128,-1,32
 949 1405 949 1405 978.5 1388.5 c 128,-1,33
 1008 1372 1008 1372 1033 1345 c 0,34,35
 1073 1302 1073 1302 1092.5 1250 c 128,-1,36
 1112 1198 1112 1198 1112 1139 c 0,37,38
 1112 1067 1112 1067 1093.5 1001 c 128,-1,39
 1075 935 1075 935 1043.5 875 c 128,-1,40
 1012 815 1012 815 969.5 759.5 c 128,-1,41
 927 704 927 704 878.5 653 c 128,-1,42
 830 602 830 602 778 555.5 c 128,-1,43
 726 509 726 509 676 465 c 0,44,45
 605 403 605 403 532.5 344.5 c 128,-1,46
 460 286 460 286 382 234 c 0,47,48
 331 200 331 200 278.5 170.5 c 128,-1,49
 226 141 226 141 173 110 c 1,50,-1
 955 112 l 1,51,-1
 930 0 l 1,0,-1
EndSplineSet
Substitution2: "'subs' Subscript lookup 20 subtable" uni2082
Substitution2: "'sinf' Scientific Inferiors lookup 19 subtable" uni2082
Substitution2: "'sups' Superscript lookup 17 subtable" twosuperior
AlternateSubs2: "'aalt' Access All Alternates lookup 1 subtable" twosuperior uni2082
EndChar

StartChar: three
Encoding: 51 51 22
Width: 1200
GlyphClass: 1
Flags: W
LayerCount: 2
Fore
SplineSet
442 -20 m 0,0,1
 370 -20 370 -20 300 -3.5 c 128,-1,2
 230 13 230 13 175 49.5 c 128,-1,3
 120 86 120 86 86 144 c 128,-1,4
 52 202 52 202 52 285 c 0,5,6
 52 312 52 312 56 338.5 c 128,-1,7
 60 365 60 365 66 391 c 1,8,-1
 188 397 l 1,9,10
 180 359 180 359 180 324 c 0,11,12
 180 265 180 265 203.5 222 c 128,-1,13
 227 179 227 179 265.5 150.5 c 128,-1,14
 304 122 304 122 354 108.5 c 128,-1,15
 404 95 404 95 457 95 c 0,16,17
 537 95 537 95 613.5 123.5 c 128,-1,18
 690 152 690 152 751 203 c 128,-1,19
 812 254 812 254 849 325 c 128,-1,20
 886 396 886 396 886 480 c 0,21,22
 886 531 886 531 864.5 570 c 128,-1,23
 843 609 843 609 808 635.5 c 128,-1,24
 773 662 773 662 728.5 675.5 c 128,-1,25
 684 689 684 689 637 689 c 2,26,-1
 534 689 l 1,27,-1
 562 810 l 1,28,29
 608 810 608 810 652.5 811 c 128,-1,30
 697 812 697 812 742 826 c 0,31,32
 789 841 789 841 828.5 871.5 c 128,-1,33
 868 902 868 902 897 942.5 c 128,-1,34
 926 983 926 983 942.5 1031 c 128,-1,35
 959 1079 959 1079 959 1128 c 0,36,37
 959 1173 959 1173 941.5 1207.5 c 128,-1,38
 924 1242 924 1242 894.5 1266 c 128,-1,39
 865 1290 865 1290 827 1302.5 c 128,-1,40
 789 1315 789 1315 747 1315 c 0,41,42
 689 1315 689 1315 634 1296 c 128,-1,43
 579 1277 579 1277 533 1242.5 c 128,-1,44
 487 1208 487 1208 454 1160.5 c 128,-1,45
 421 1113 421 1113 407 1056 c 1,46,-1
 292 1078 l 1,47,48
 312 1161 312 1161 356.5 1226.5 c 128,-1,49
 401 1292 401 1292 463.5 1338.5 c 128,-1,50
 526 1385 526 1385 602.5 1409.5 c 128,-1,51
 679 1434 679 1434 762 1434 c 0,52,53
 825 1434 825 1434 884 1416.5 c 128,-1,54
 943 1399 943 1399 988 1364.5 c 128,-1,55
 1033 1330 1033 1330 1060 1278 c 128,-1,56
 1087 1226 1087 1226 1087 1157 c 0,57,58
 1087 1091 1087 1091 1068 1031.5 c 128,-1,59
 1049 972 1049 972 1014.5 920.5 c 128,-1,60
 980 869 980 869 932.5 827.5 c 128,-1,61
 885 786 885 786 827 757 c 1,62,63
 922 725 922 725 964.5 658.5 c 128,-1,64
 1007 592 1007 592 1007 494 c 0,65,66
 1007 376 1007 376 961 280.5 c 128,-1,67
 915 185 915 185 837 118.5 c 128,-1,68
 759 52 759 52 657 16 c 128,-1,69
 555 -20 555 -20 442 -20 c 0,0,1
EndSplineSet
Substitution2: "'subs' Subscript lookup 20 subtable" uni2083
Substitution2: "'sinf' Scientific Inferiors lookup 19 subtable" uni2083
Substitution2: "'sups' Superscript lookup 17 subtable" threesuperior
AlternateSubs2: "'aalt' Access All Alternates lookup 1 subtable" threesuperior uni2083
EndChar

StartChar: four
Encoding: 52 52 23
Width: 1200
GlyphClass: 1
Flags: W
LayerCount: 2
Fore
SplineSet
704 0 m 1,0,-1
 572 0 l 1,1,-1
 662 392 l 1,2,-1
 11 392 l 1,3,-1
 28 467 l 1,4,-1
 903 1413 l 1,5,-1
 1028 1413 l 1,6,-1
 819 504 l 1,7,-1
 1043 504 l 1,8,-1
 1018 392 l 1,9,-1
 794 392 l 1,10,-1
 704 0 l 1,0,-1
687 504 m 1,11,-1
 849 1209 l 1,12,-1
 189 504 l 1,13,-1
 687 504 l 1,11,-1
EndSplineSet
Substitution2: "'subs' Subscript lookup 20 subtable" uni2084
Substitution2: "'sinf' Scientific Inferiors lookup 19 subtable" uni2084
Substitution2: "'sups' Superscript lookup 17 subtable" uni2074
AlternateSubs2: "'aalt' Access All Alternates lookup 1 subtable" uni2074 uni2084
EndChar

StartChar: five
Encoding: 53 53 24
Width: 1200
GlyphClass: 1
Flags: W
LayerCount: 2
Fore
SplineSet
451 -20 m 0,0,1
 364 -20 364 -20 297 9 c 128,-1,2
 230 38 230 38 183.5 89.5 c 128,-1,3
 137 141 137 141 113 212 c 128,-1,4
 89 283 89 283 89 366 c 1,5,6
 151 382 151 382 216 402 c 1,7,8
 216 333 216 333 228 277 c 128,-1,9
 240 221 240 221 269 180.5 c 128,-1,10
 298 140 298 140 348 118 c 128,-1,11
 398 96 398 96 474 96 c 0,12,13
 563 96 563 96 641 136.5 c 128,-1,14
 719 177 719 177 776.5 243 c 128,-1,15
 834 309 834 309 867.5 392 c 128,-1,16
 901 475 901 475 901 560 c 0,17,18
 901 675 901 675 836.5 737.5 c 128,-1,19
 772 800 772 800 657 800 c 0,20,21
 610 800 610 800 562.5 788.5 c 128,-1,22
 515 777 515 777 471 756 c 128,-1,23
 427 735 427 735 388 705.5 c 128,-1,24
 349 676 349 676 319 640 c 1,25,-1
 218 708 l 1,26,-1
 500 1413 l 1,27,-1
 1180 1413 l 1,28,-1
 1153 1297 l 1,29,-1
 577 1297 l 1,30,-1
 377 796 l 1,31,32
 511 912 511 912 689 912 c 0,33,34
 768 912 768 912 832 887.5 c 128,-1,35
 896 863 896 863 941 818 c 128,-1,36
 986 773 986 773 1010.5 709 c 128,-1,37
 1035 645 1035 645 1035 566 c 0,38,39
 1035 489 1035 489 1013 416 c 128,-1,40
 991 343 991 343 952 278 c 128,-1,41
 913 213 913 213 858.5 158 c 128,-1,42
 804 103 804 103 739 63.5 c 128,-1,43
 674 24 674 24 601 2 c 128,-1,44
 528 -20 528 -20 451 -20 c 0,0,1
EndSplineSet
Substitution2: "'subs' Subscript lookup 20 subtable" uni2085
Substitution2: "'sinf' Scientific Inferiors lookup 19 subtable" uni2085
Substitution2: "'sups' Superscript lookup 17 subtable" uni2075
AlternateSubs2: "'aalt' Access All Alternates lookup 1 subtable" uni2075 uni2085
EndChar

StartChar: six
Encoding: 54 54 25
Width: 1200
GlyphClass: 1
Flags: W
LayerCount: 2
Fore
SplineSet
457 -20 m 0,0,1
 377 -20 377 -20 310 6.5 c 128,-1,2
 243 33 243 33 194.5 81 c 128,-1,3
 146 129 146 129 119 195.5 c 128,-1,4
 92 262 92 262 92 342 c 0,5,6
 92 439 92 439 128 528 c 128,-1,7
 164 617 164 617 224 692 c 2,8,-1
 803 1413 l 1,9,-1
 949 1413 l 1,10,-1
 509 874 l 1,11,12
 583 891 583 891 656 891 c 0,13,14
 735 891 735 891 803 869 c 128,-1,15
 871 847 871 847 921.5 803.5 c 128,-1,16
 972 760 972 760 1000.5 696 c 128,-1,17
 1029 632 1029 632 1029 549 c 0,18,19
 1029 482 1029 482 1009 416 c 0,20,21
 981 325 981 325 927.5 245.5 c 128,-1,22
 874 166 874 166 802 107 c 128,-1,23
 730 48 730 48 642.5 14 c 128,-1,24
 555 -20 555 -20 457 -20 c 0,0,1
478 100 m 0,25,26
 559 100 559 100 635 137.5 c 128,-1,27
 711 175 711 175 769.5 236 c 128,-1,28
 828 297 828 297 863.5 374.5 c 128,-1,29
 899 452 899 452 899 532 c 0,30,31
 899 589 899 589 880 635 c 128,-1,32
 861 681 861 681 827 713.5 c 128,-1,33
 793 746 793 746 746 763 c 128,-1,34
 699 780 699 780 643 780 c 0,35,36
 560 780 560 780 484 745.5 c 128,-1,37
 408 711 408 711 350 653 c 128,-1,38
 292 595 292 595 257.5 519 c 128,-1,39
 223 443 223 443 223 360 c 0,40,41
 223 304 223 304 241.5 256 c 128,-1,42
 260 208 260 208 293.5 173.5 c 128,-1,43
 327 139 327 139 374 119.5 c 128,-1,44
 421 100 421 100 478 100 c 0,25,26
EndSplineSet
Substitution2: "'subs' Subscript lookup 20 subtable" uni2086
Substitution2: "'sinf' Scientific Inferiors lookup 19 subtable" uni2086
Substitution2: "'sups' Superscript lookup 17 subtable" uni2076
AlternateSubs2: "'aalt' Access All Alternates lookup 1 subtable" uni2076 uni2086
EndChar

StartChar: seven
Encoding: 55 55 26
Width: 1200
GlyphClass: 1
Flags: W
LayerCount: 2
Fore
SplineSet
310 0 m 1,0,-1
 158 0 l 1,1,-1
 1060 1296 l 1,2,-1
 293 1296 l 1,3,-1
 320 1413 l 1,4,-1
 1241 1413 l 1,5,-1
 1227 1347 l 1,6,-1
 310 0 l 1,0,-1
EndSplineSet
Substitution2: "'subs' Subscript lookup 20 subtable" uni2087
Substitution2: "'sinf' Scientific Inferiors lookup 19 subtable" uni2087
Substitution2: "'sups' Superscript lookup 17 subtable" uni2077
AlternateSubs2: "'aalt' Access All Alternates lookup 1 subtable" uni2077 uni2087
EndChar

StartChar: eight
Encoding: 56 56 27
Width: 1200
GlyphClass: 1
Flags: W
LayerCount: 2
Fore
SplineSet
460 -20 m 256,0,1
 387 -20 387 -20 317.5 -3 c 128,-1,2
 248 14 248 14 193 51 c 128,-1,3
 138 88 138 88 104.5 146.5 c 128,-1,4
 71 205 71 205 71 288 c 0,5,6
 71 374 71 374 98.5 448 c 128,-1,7
 126 522 126 522 174 582.5 c 128,-1,8
 222 643 222 643 288 689 c 128,-1,9
 354 735 354 735 431 765 c 1,10,11
 366 804 366 804 335.5 862.5 c 128,-1,12
 305 921 305 921 305 996 c 0,13,14
 305 1093 305 1093 345.5 1173.5 c 128,-1,15
 386 1254 386 1254 453 1312 c 128,-1,16
 520 1370 520 1370 607 1402 c 128,-1,17
 694 1434 694 1434 786 1434 c 0,18,19
 849 1434 849 1434 907 1417 c 128,-1,20
 965 1400 965 1400 1010 1366 c 128,-1,21
 1055 1332 1055 1332 1081.5 1280.5 c 128,-1,22
 1108 1229 1108 1229 1108 1160 c 0,23,24
 1108 1092 1108 1092 1088.5 1032 c 128,-1,25
 1069 972 1069 972 1034 921 c 128,-1,26
 999 870 999 870 949.5 829 c 128,-1,27
 900 788 900 788 841 759 c 1,28,29
 931 719 931 719 976.5 649 c 128,-1,30
 1022 579 1022 579 1022 481 c 0,31,32
 1022 403 1022 403 1000.5 335.5 c 128,-1,33
 979 268 979 268 941 212.5 c 128,-1,34
 903 157 903 157 850.5 113.5 c 128,-1,35
 798 70 798 70 735.5 40.5 c 128,-1,36
 673 11 673 11 603 -4.5 c 128,-1,37
 533 -20 533 -20 460 -20 c 256,0,1
644 800 m 0,38,39
 710 800 710 800 771 826.5 c 128,-1,40
 832 853 832 853 878.5 898 c 128,-1,41
 925 943 925 943 952.5 1003 c 128,-1,42
 980 1063 980 1063 980 1130 c 0,43,44
 980 1176 980 1176 964 1211 c 128,-1,45
 948 1246 948 1246 920 1270 c 128,-1,46
 892 1294 892 1294 854.5 1306 c 128,-1,47
 817 1318 817 1318 773 1318 c 0,48,49
 707 1318 707 1318 645.5 1292 c 128,-1,50
 584 1266 584 1266 537.5 1221.5 c 128,-1,51
 491 1177 491 1177 463 1117.5 c 128,-1,52
 435 1058 435 1058 435 990 c 0,53,54
 435 942 435 942 450.5 906.5 c 128,-1,55
 466 871 466 871 494 847 c 128,-1,56
 522 823 522 823 560.5 811.5 c 128,-1,57
 599 800 599 800 644 800 c 0,38,39
473 90 m 0,58,59
 554 90 554 90 629 119.5 c 128,-1,60
 704 149 704 149 762.5 201.5 c 128,-1,61
 821 254 821 254 856 325 c 128,-1,62
 891 396 891 396 891 480 c 0,63,64
 891 536 891 536 868.5 578 c 128,-1,65
 846 620 846 620 809.5 648 c 128,-1,66
 773 676 773 676 725.5 690 c 128,-1,67
 678 704 678 704 627 704 c 0,68,69
 545 704 545 704 468.5 675 c 128,-1,70
 392 646 392 646 333.5 594 c 128,-1,71
 275 542 275 542 240 470.5 c 128,-1,72
 205 399 205 399 205 313 c 0,73,74
 205 256 205 256 227.5 214 c 128,-1,75
 250 172 250 172 287.5 144.5 c 128,-1,76
 325 117 325 117 373.5 103.5 c 128,-1,77
 422 90 422 90 473 90 c 0,58,59
EndSplineSet
Substitution2: "'subs' Subscript lookup 20 subtable" uni2088
Substitution2: "'sinf' Scientific Inferiors lookup 19 subtable" uni2088
Substitution2: "'sups' Superscript lookup 17 subtable" uni2078
AlternateSubs2: "'aalt' Access All Alternates lookup 1 subtable" uni2078 uni2088
EndChar

StartChar: nine
Encoding: 57 57 28
Width: 1200
GlyphClass: 1
Flags: W
LayerCount: 2
Fore
SplineSet
434 0 m 1,0,-1
 290 0 l 1,1,-1
 728 539 l 1,2,3
 691 531 691 531 654.5 526.5 c 128,-1,4
 618 522 618 522 580 522 c 0,5,6
 501 522 501 522 432.5 544 c 128,-1,7
 364 566 364 566 314.5 609 c 128,-1,8
 265 652 265 652 236.5 715.5 c 128,-1,9
 208 779 208 779 208 863 c 0,10,11
 208 937 208 937 230 1008 c 128,-1,12
 252 1079 252 1079 291 1142.5 c 128,-1,13
 330 1206 330 1206 384 1259.5 c 128,-1,14
 438 1313 438 1313 501.5 1352 c 128,-1,15
 565 1391 565 1391 636 1412.5 c 128,-1,16
 707 1434 707 1434 781 1434 c 0,17,18
 859 1434 859 1434 926 1407 c 128,-1,19
 993 1380 993 1380 1041.5 1332 c 128,-1,20
 1090 1284 1090 1284 1117.5 1217.5 c 128,-1,21
 1145 1151 1145 1151 1145 1072 c 0,22,23
 1145 1026 1145 1026 1135.5 978.5 c 128,-1,24
 1126 931 1126 931 1109 886 c 128,-1,25
 1092 841 1092 841 1068 799 c 128,-1,26
 1044 757 1044 757 1015 721 c 2,27,-1
 434 0 l 1,0,-1
594 633 m 0,28,29
 677 633 677 633 753 667.5 c 128,-1,30
 829 702 829 702 887 760.5 c 128,-1,31
 945 819 945 819 979.5 895.5 c 128,-1,32
 1014 972 1014 972 1014 1055 c 0,33,34
 1014 1109 1014 1109 995 1156 c 128,-1,35
 976 1203 976 1203 942.5 1238 c 128,-1,36
 909 1273 909 1273 863 1293 c 128,-1,37
 817 1313 817 1313 763 1313 c 0,38,39
 682 1313 682 1313 605 1276 c 128,-1,40
 528 1239 528 1239 469 1178 c 128,-1,41
 410 1117 410 1117 374 1040 c 128,-1,42
 338 963 338 963 338 882 c 0,43,44
 338 824 338 824 356.5 777.5 c 128,-1,45
 375 731 375 731 408.5 699 c 128,-1,46
 442 667 442 667 489.5 650 c 128,-1,47
 537 633 537 633 594 633 c 0,28,29
EndSplineSet
Substitution2: "'subs' Subscript lookup 20 subtable" uni2089
Substitution2: "'sinf' Scientific Inferiors lookup 19 subtable" uni2089
Substitution2: "'sups' Superscript lookup 17 subtable" uni2079
AlternateSubs2: "'aalt' Access All Alternates lookup 1 subtable" uni2079 uni2089
EndChar

StartChar: colon
Encoding: 58 58 29
Width: 600
GlyphClass: 1
Flags: W
LayerCount: 2
Fore
SplineSet
612 776 m 1,0,-1
 433 776 l 1,1,-1
 474 953 l 1,2,-1
 653 953 l 1,3,-1
 612 776 l 1,0,-1
434 0 m 1,4,-1
 256 0 l 1,5,-1
 297 177 l 1,6,-1
 475 177 l 1,7,-1
 434 0 l 1,4,-1
EndSplineSet
EndChar

StartChar: semicolon
Encoding: 59 59 30
Width: 600
GlyphClass: 1
Flags: W
LayerCount: 2
Fore
SplineSet
652 776 m 1,0,-1
 473 776 l 1,1,-1
 515 953 l 1,2,-1
 693 953 l 1,3,-1
 652 776 l 1,0,-1
240 -226 m 1,4,-1
 162 -226 l 1,5,-1
 375 261 l 1,6,-1
 550 261 l 1,7,-1
 240 -226 l 1,4,-1
EndSplineSet
EndChar

StartChar: less
Encoding: 60 60 31
Width: 1222
GlyphClass: 1
Flags: W
LayerCount: 2
Fore
SplineSet
1004 174 m 1,0,-1
 125 674 l 1,1,-1
 1004 1173 l 1,2,-1
 1064 1070 l 1,3,-1
 339 674 l 1,4,-1
 1064 276 l 1,5,-1
 1004 174 l 1,0,-1
EndSplineSet
EndChar

StartChar: equal
Encoding: 61 61 32
Width: 1272
GlyphClass: 1
Flags: W
LayerCount: 2
Fore
SplineSet
1008 780 m 1,0,-1
 264 780 l 1,1,-1
 264 900 l 1,2,-1
 1008 900 l 1,3,-1
 1008 780 l 1,0,-1
1008 443 m 1,4,-1
 264 443 l 1,5,-1
 264 562 l 1,6,-1
 1008 562 l 1,7,-1
 1008 443 l 1,4,-1
EndSplineSet
EndChar

StartChar: greater
Encoding: 62 62 33
Width: 1220
GlyphClass: 1
Flags: W
LayerCount: 2
Fore
SplineSet
217 174 m 1,0,-1
 158 276 l 1,1,-1
 882 674 l 1,2,-1
 158 1070 l 1,3,-1
 217 1173 l 1,4,-1
 1097 674 l 1,5,-1
 217 174 l 1,0,-1
EndSplineSet
EndChar

StartChar: question
Encoding: 63 63 34
Width: 1039
GlyphClass: 1
Flags: W
LayerCount: 2
Fore
SplineSet
542 368 m 1,0,-1
 423 368 l 1,1,2
 431 399 431 399 440 445 c 128,-1,3
 449 491 449 491 459.5 538.5 c 128,-1,4
 470 586 470 586 482.5 629.5 c 128,-1,5
 495 673 495 673 509 698 c 0,6,7
 531 738 531 738 564 765.5 c 128,-1,8
 597 793 597 793 635 815 c 128,-1,9
 673 837 673 837 714 856.5 c 128,-1,10
 755 876 755 876 792 901 c 128,-1,11
 829 926 829 926 860 959 c 128,-1,12
 891 992 891 992 909 1041 c 0,13,14
 917 1064 917 1064 925 1096 c 128,-1,15
 933 1128 933 1128 933 1152 c 0,16,17
 933 1200 933 1200 914 1231.5 c 128,-1,18
 895 1263 895 1263 863.5 1282.5 c 128,-1,19
 832 1302 832 1302 793 1310 c 128,-1,20
 754 1318 754 1318 713 1318 c 0,21,22
 657 1318 657 1318 602 1300.5 c 128,-1,23
 547 1283 547 1283 500 1251 c 128,-1,24
 453 1219 453 1219 419 1173.5 c 128,-1,25
 385 1128 385 1128 371 1072 c 1,26,-1
 245 1084 l 1,27,28
 263 1163 263 1163 308.5 1227.5 c 128,-1,29
 354 1292 354 1292 417 1338 c 128,-1,30
 480 1384 480 1384 555.5 1409 c 128,-1,31
 631 1434 631 1434 710 1434 c 0,32,33
 775 1434 775 1434 836.5 1418 c 128,-1,34
 898 1402 898 1402 946.5 1368.5 c 128,-1,35
 995 1335 995 1335 1024.5 1282.5 c 128,-1,36
 1054 1230 1054 1230 1054 1157 c 0,37,38
 1054 1109 1054 1109 1043.5 1063 c 128,-1,39
 1033 1017 1033 1017 1012 975 c 0,40,41
 984 918 984 918 948 883 c 128,-1,42
 912 848 912 848 871 823.5 c 128,-1,43
 830 799 830 799 784 777.5 c 128,-1,44
 738 756 738 756 689 726 c 0,45,46
 671 715 671 715 655 702 c 128,-1,47
 639 689 639 689 626 672 c 0,48,49
 612 654 612 654 603.5 631.5 c 128,-1,50
 595 609 595 609 589 585 c 128,-1,51
 583 561 583 561 579 537 c 128,-1,52
 575 513 575 513 570 491 c 2,53,-1
 542 368 l 1,0,-1
490 0 m 1,54,-1
 311 0 l 1,55,-1
 352 177 l 1,56,-1
 531 177 l 1,57,-1
 490 0 l 1,54,-1
EndSplineSet
EndChar

StartChar: at
Encoding: 64 64 35
Width: 2073
GlyphClass: 1
Flags: W
LayerCount: 2
Fore
SplineSet
843 -349 m 0,0,1
 694 -349 694 -349 564.5 -307 c 128,-1,2
 435 -265 435 -265 339.5 -183 c 128,-1,3
 244 -101 244 -101 189 19.5 c 128,-1,4
 134 140 134 140 134 297 c 0,5,6
 134 438 134 438 174 577 c 128,-1,7
 214 716 214 716 285 842 c 128,-1,8
 356 968 356 968 455 1075 c 128,-1,9
 554 1182 554 1182 671 1258 c 0,10,11
 941 1432 941 1432 1260 1432 c 0,12,13
 1410 1432 1410 1432 1537.5 1387.5 c 128,-1,14
 1665 1343 1665 1343 1758 1258 c 128,-1,15
 1851 1173 1851 1173 1903.5 1050.5 c 128,-1,16
 1956 928 1956 928 1956 773 c 0,17,18
 1956 690 1956 690 1939 597 c 128,-1,19
 1922 504 1922 504 1888 413 c 128,-1,20
 1854 322 1854 322 1804 238.5 c 128,-1,21
 1754 155 1754 155 1687.5 91.5 c 128,-1,22
 1621 28 1621 28 1539 -10 c 128,-1,23
 1457 -48 1457 -48 1360 -48 c 0,24,25
 1317 -48 1317 -48 1276 -39.5 c 128,-1,26
 1235 -31 1235 -31 1202.5 -11 c 128,-1,27
 1170 9 1170 9 1150 42.5 c 128,-1,28
 1130 76 1130 76 1130 126 c 0,29,30
 1130 156 1130 156 1138 185 c 128,-1,31
 1146 214 1146 214 1157 242 c 1,32,33
 1123 205 1123 205 1082 173.5 c 128,-1,34
 1041 142 1041 142 995.5 119.5 c 128,-1,35
 950 97 950 97 900.5 84 c 128,-1,36
 851 71 851 71 800 71 c 0,37,38
 739 71 739 71 693 89.5 c 128,-1,39
 647 108 647 108 616.5 142 c 128,-1,40
 586 176 586 176 571 224 c 128,-1,41
 556 272 556 272 556 331 c 0,42,43
 556 403 556 403 578.5 482.5 c 128,-1,44
 601 562 601 562 641.5 640 c 128,-1,45
 682 718 682 718 737.5 789 c 128,-1,46
 793 860 793 860 859.5 914 c 128,-1,47
 926 968 926 968 1000 1000 c 128,-1,48
 1074 1032 1074 1032 1151 1032 c 0,49,50
 1202 1032 1202 1032 1244 1018.5 c 128,-1,51
 1286 1005 1286 1005 1316.5 978 c 128,-1,52
 1347 951 1347 951 1364 911 c 128,-1,53
 1381 871 1381 871 1381 818 c 1,54,-1
 1451 983 l 1,55,-1
 1588 977 l 1,56,57
 1570 935 1570 935 1538.5 869.5 c 128,-1,58
 1507 804 1507 804 1470.5 727.5 c 128,-1,59
 1434 651 1434 651 1397 569 c 128,-1,60
 1360 487 1360 487 1329.5 411.5 c 128,-1,61
 1299 336 1299 336 1280 273 c 128,-1,62
 1261 210 1261 210 1261 171 c 0,63,64
 1261 145 1261 145 1268.5 129.5 c 128,-1,65
 1276 114 1276 114 1289 105.5 c 128,-1,66
 1302 97 1302 97 1321 94.5 c 128,-1,67
 1340 92 1340 92 1362 92 c 0,68,69
 1440 92 1440 92 1504.5 123.5 c 128,-1,70
 1569 155 1569 155 1620.5 208 c 128,-1,71
 1672 261 1672 261 1711 330 c 128,-1,72
 1750 399 1750 399 1775.5 473.5 c 128,-1,73
 1801 548 1801 548 1814 623 c 128,-1,74
 1827 698 1827 698 1827 763 c 0,75,76
 1827 894 1827 894 1783 995 c 128,-1,77
 1739 1096 1739 1096 1661 1165 c 128,-1,78
 1583 1234 1583 1234 1476.5 1269.5 c 128,-1,79
 1370 1305 1370 1305 1244 1305 c 0,80,81
 1099 1305 1099 1305 966 1262 c 128,-1,82
 833 1219 833 1219 719.5 1142 c 128,-1,83
 606 1065 606 1065 515 957 c 128,-1,84
 424 849 424 849 363 720 c 0,85,86
 319 628 319 628 291.5 521 c 128,-1,87
 264 414 264 414 264 312 c 0,88,89
 264 182 264 182 310 83.5 c 128,-1,90
 356 -15 356 -15 436 -80.5 c 128,-1,91
 516 -146 516 -146 623.5 -179 c 128,-1,92
 731 -212 731 -212 853 -212 c 0,93,94
 920 -212 920 -212 986 -202 c 128,-1,95
 1052 -192 1052 -192 1116 -172 c 1,96,-1
 1149 -300 l 1,97,98
 1074 -324 1074 -324 997.5 -336.5 c 128,-1,99
 921 -349 921 -349 843 -349 c 0,0,1
829 207 m 0,100,101
 905 207 905 207 973 239.5 c 128,-1,102
 1041 272 1041 272 1097.5 324.5 c 128,-1,103
 1154 377 1154 377 1197.5 442.5 c 128,-1,104
 1241 508 1241 508 1268 573 c 0,105,106
 1285 613 1285 613 1299.5 664 c 128,-1,107
 1314 715 1314 715 1314 759 c 0,108,109
 1314 831 1314 831 1274 863.5 c 128,-1,110
 1234 896 1234 896 1165 896 c 0,111,112
 1105 896 1105 896 1045 871 c 128,-1,113
 985 846 985 846 931 804 c 128,-1,114
 877 762 877 762 830.5 706.5 c 128,-1,115
 784 651 784 651 750 590 c 128,-1,116
 716 529 716 529 696.5 466 c 128,-1,117
 677 403 677 403 677 346 c 0,118,119
 677 271 677 271 717 239 c 128,-1,120
 757 207 757 207 829 207 c 0,100,101
EndSplineSet
EndChar

StartChar: A
Encoding: 65 65 36
Width: 1300
GlyphClass: 1
Flags: W
LayerCount: 2
Fore
SplineSet
1108 0 m 1,0,-1
 965 0 l 1,1,-1
 928 307 l 1,2,-1
 289 307 l 1,3,-1
 110 0 l 1,4,-1
 -41 0 l 1,5,-1
 809 1413 l 1,6,-1
 914 1413 l 1,7,-1
 1108 0 l 1,0,-1
911 435 m 1,8,-1
 821 1214 l 1,9,-1
 363 435 l 1,10,-1
 911 435 l 1,8,-1
EndSplineSet
Substitution2: "Single Substitution lookup 3 subtable" ordfeminine
Substitution2: "Single Substitution lookup 2 subtable" ordfeminine
Position2: "'cpsp' Capital Spacing lookup 0 per glyph data 0" dx=5 dy=0 dh=10 dv=0
EndChar

StartChar: B
Encoding: 66 66 37
Width: 1247
GlyphClass: 1
Flags: W
LayerCount: 2
Fore
SplineSet
559 0 m 2,0,-1
 109 0 l 1,1,2
 190 355 190 355 272 706.5 c 128,-1,3
 354 1058 354 1058 435 1413 c 1,4,-1
 761 1413 l 2,5,6
 806 1413 806 1413 854.5 1409 c 128,-1,7
 903 1405 903 1405 950.5 1393.5 c 128,-1,8
 998 1382 998 1382 1040.5 1363 c 128,-1,9
 1083 1344 1083 1344 1115.5 1314 c 128,-1,10
 1148 1284 1148 1284 1167 1242 c 128,-1,11
 1186 1200 1186 1200 1186 1143 c 0,12,13
 1186 1073 1186 1073 1165.5 1012.5 c 128,-1,14
 1145 952 1145 952 1109 901.5 c 128,-1,15
 1073 851 1073 851 1022.5 810.5 c 128,-1,16
 972 770 972 770 912 739 c 1,17,18
 999 698 999 698 1048 632 c 128,-1,19
 1097 566 1097 566 1097 467 c 0,20,21
 1097 348 1097 348 1054 260 c 128,-1,22
 1011 172 1011 172 937.5 114.5 c 128,-1,23
 864 57 864 57 766.5 28.5 c 128,-1,24
 669 0 669 0 559 0 c 2,0,-1
649 779 m 2,25,26
 726 779 726 779 796.5 803.5 c 128,-1,27
 867 828 867 828 920 874 c 128,-1,28
 973 920 973 920 1004.5 985.5 c 128,-1,29
 1036 1051 1036 1051 1036 1132 c 0,30,31
 1036 1186 1036 1186 1012 1217.5 c 128,-1,32
 988 1249 988 1249 951.5 1265.5 c 128,-1,33
 915 1282 915 1282 870.5 1286.5 c 128,-1,34
 826 1291 826 1291 784 1291 c 2,35,-1
 539 1291 l 1,36,-1
 421 779 l 1,37,-1
 649 779 l 2,25,26
582 125 m 2,38,39
 651 125 651 125 712 139 c 128,-1,40
 773 153 773 153 821 184 c 128,-1,41
 869 215 869 215 903.5 265 c 128,-1,42
 938 315 938 315 955 386 c 0,43,44
 960 408 960 408 963 429.5 c 128,-1,45
 966 451 966 451 966 474 c 0,46,47
 966 531 966 531 945.5 566 c 128,-1,48
 925 601 925 601 890.5 621 c 128,-1,49
 856 641 856 641 811.5 648 c 128,-1,50
 767 655 767 655 720 655 c 2,51,-1
 394 655 l 1,52,-1
 271 125 l 1,53,-1
 582 125 l 2,38,39
EndSplineSet
Position2: "'cpsp' Capital Spacing lookup 0 per glyph data 0" dx=5 dy=0 dh=10 dv=0
EndChar

StartChar: C
Encoding: 67 67 38
Width: 1425
GlyphClass: 1
Flags: W
LayerCount: 2
Fore
SplineSet
631 -20 m 0,0,1
 511 -20 511 -20 419 14 c 128,-1,2
 327 48 327 48 264 112.5 c 128,-1,3
 201 177 201 177 168.5 270.5 c 128,-1,4
 136 364 136 364 136 482 c 0,5,6
 136 582 136 582 155.5 678.5 c 128,-1,7
 175 775 175 775 209 868 c 0,8,9
 254 991 254 991 322.5 1095 c 128,-1,10
 391 1199 391 1199 483 1274.5 c 128,-1,11
 575 1350 575 1350 689.5 1393 c 128,-1,12
 804 1436 804 1436 940 1436 c 0,13,14
 1032 1436 1032 1436 1113.5 1413.5 c 128,-1,15
 1195 1391 1195 1391 1259 1345 c 128,-1,16
 1323 1299 1323 1299 1366.5 1229 c 128,-1,17
 1410 1159 1410 1159 1427 1064 c 1,18,-1
 1300 1017 l 1,19,20
 1293 1096 1293 1096 1259.5 1151 c 128,-1,21
 1226 1206 1226 1206 1175 1241 c 128,-1,22
 1124 1276 1124 1276 1058.5 1292 c 128,-1,23
 993 1308 993 1308 921 1308 c 0,24,25
 791 1308 791 1308 688 1258 c 128,-1,26
 585 1208 585 1208 508 1124.5 c 128,-1,27
 431 1041 431 1041 379.5 933 c 128,-1,28
 328 825 328 825 302 709 c 0,29,30
 290 655 290 655 282.5 600.5 c 128,-1,31
 275 546 275 546 275 491 c 0,32,33
 275 305 275 305 368 209 c 128,-1,34
 461 113 461 113 648 113 c 0,35,36
 816 113 816 113 944.5 189.5 c 128,-1,37
 1073 266 1073 266 1159 409 c 1,38,-1
 1272 346 l 1,39,40
 1216 264 1216 264 1147 196.5 c 128,-1,41
 1078 129 1078 129 997 81 c 128,-1,42
 916 33 916 33 824.5 6.5 c 128,-1,43
 733 -20 733 -20 631 -20 c 0,0,1
EndSplineSet
Position2: "'cpsp' Capital Spacing lookup 0 per glyph data 0" dx=5 dy=0 dh=10 dv=0
EndChar

StartChar: D
Encoding: 68 68 39
Width: 1415
GlyphClass: 1
Flags: W
LayerCount: 2
Fore
SplineSet
461 0 m 2,0,-1
 109 0 l 1,1,2
 190 355 190 355 272 706.5 c 128,-1,3
 354 1058 354 1058 435 1413 c 1,4,-1
 734 1413 l 2,5,6
 862 1413 862 1413 974.5 1390 c 128,-1,7
 1087 1367 1087 1367 1171 1310 c 128,-1,8
 1255 1253 1255 1253 1304 1157.5 c 128,-1,9
 1353 1062 1353 1062 1353 916 c 0,10,11
 1353 832 1353 832 1337 749.5 c 128,-1,12
 1321 667 1321 667 1295 588 c 0,13,14
 1195 291 1195 291 983.5 145.5 c 128,-1,15
 772 0 772 0 461 0 c 2,0,-1
456 124 m 2,16,17
 596 124 596 124 717.5 166 c 128,-1,18
 839 208 839 208 934.5 285.5 c 128,-1,19
 1030 363 1030 363 1097 473 c 128,-1,20
 1164 583 1164 583 1195 719 c 0,21,22
 1206 765 1206 765 1212 811 c 128,-1,23
 1218 857 1218 857 1218 905 c 0,24,25
 1218 1013 1218 1013 1182.5 1087 c 128,-1,26
 1147 1161 1147 1161 1085 1206.5 c 128,-1,27
 1023 1252 1023 1252 939 1272 c 128,-1,28
 855 1292 855 1292 757 1292 c 2,29,-1
 545 1292 l 1,30,-1
 275 124 l 1,31,-1
 456 124 l 2,16,17
EndSplineSet
Position2: "'cpsp' Capital Spacing lookup 0 per glyph data 0" dx=5 dy=0 dh=10 dv=0
EndChar

StartChar: E
Encoding: 69 69 40
Width: 1248
GlyphClass: 1
Flags: W
LayerCount: 2
Fore
SplineSet
1019 0 m 1,0,-1
 109 0 l 1,1,-1
 435 1413 l 1,2,-1
 1344 1413 l 1,3,-1
 1317 1298 l 1,4,-1
 545 1298 l 1,5,-1
 423 762 l 1,6,-1
 1084 762 l 1,7,-1
 1058 652 l 1,8,-1
 395 652 l 1,9,-1
 273 123 l 1,10,-1
 1046 123 l 1,11,-1
 1019 0 l 1,0,-1
EndSplineSet
Position2: "'cpsp' Capital Spacing lookup 0 per glyph data 0" dx=5 dy=0 dh=10 dv=0
EndChar

StartChar: F
Encoding: 70 70 41
Width: 1199
GlyphClass: 1
Flags: W
LayerCount: 2
Fore
SplineSet
246 0 m 1,0,-1
 109 0 l 1,1,-1
 435 1413 l 1,2,-1
 1321 1413 l 1,3,-1
 1294 1298 l 1,4,-1
 545 1298 l 1,5,-1
 423 762 l 1,6,-1
 1083 762 l 1,7,-1
 1056 652 l 1,8,-1
 395 652 l 1,9,-1
 246 0 l 1,0,-1
EndSplineSet
Position2: "'cpsp' Capital Spacing lookup 0 per glyph data 0" dx=5 dy=0 dh=10 dv=0
EndChar

StartChar: G
Encoding: 71 71 42
Width: 1507
GlyphClass: 1
Flags: W
LayerCount: 2
Fore
SplineSet
651 -20 m 0,0,1
 531 -20 531 -20 439 13.5 c 128,-1,2
 347 47 347 47 284 111 c 128,-1,3
 221 175 221 175 188.5 268 c 128,-1,4
 156 361 156 361 156 480 c 0,5,6
 156 561 156 561 170.5 640.5 c 128,-1,7
 185 720 185 720 208 797 c 0,8,9
 248 928 248 928 316.5 1044.5 c 128,-1,10
 385 1161 385 1161 480 1248 c 128,-1,11
 575 1335 575 1335 696.5 1385.5 c 128,-1,12
 818 1436 818 1436 963 1436 c 0,13,14
 1056 1436 1056 1436 1136 1412 c 128,-1,15
 1216 1388 1216 1388 1279 1341 c 128,-1,16
 1342 1294 1342 1294 1386 1224 c 128,-1,17
 1430 1154 1430 1154 1451 1061 c 1,18,-1
 1318 1018 l 1,19,20
 1285 1161 1285 1161 1191 1232.5 c 128,-1,21
 1097 1304 1097 1304 952 1304 c 0,22,23
 821 1304 821 1304 715.5 1254.5 c 128,-1,24
 610 1205 610 1205 530.5 1122 c 128,-1,25
 451 1039 451 1039 397.5 930.5 c 128,-1,26
 344 822 344 822 317 704 c 0,27,28
 305 652 305 652 298 600 c 128,-1,29
 291 548 291 548 291 494 c 0,30,31
 291 404 291 404 313.5 332.5 c 128,-1,32
 336 261 336 261 382 211.5 c 128,-1,33
 428 162 428 162 496.5 135.5 c 128,-1,34
 565 109 565 109 658 109 c 0,35,36
 768 109 768 109 864 147.5 c 128,-1,37
 960 186 960 186 1035.5 252.5 c 128,-1,38
 1111 319 1111 319 1164.5 409.5 c 128,-1,39
 1218 500 1218 500 1243 604 c 1,40,41
 1161 601 1161 601 1080 600.5 c 128,-1,42
 999 600 999 600 917 598 c 1,43,-1
 942 703 l 1,44,-1
 1393 703 l 1,45,-1
 1231 0 l 1,46,-1
 1115 0 l 1,47,-1
 1184 273 l 1,48,49
 1142 203 1142 203 1083.5 148.5 c 128,-1,50
 1025 94 1025 94 956 56.5 c 128,-1,51
 887 19 887 19 809.5 -0.5 c 128,-1,52
 732 -20 732 -20 651 -20 c 0,0,1
EndSplineSet
Position2: "'cpsp' Capital Spacing lookup 0 per glyph data 0" dx=5 dy=0 dh=10 dv=0
EndChar

StartChar: H
Encoding: 72 72 43
Width: 1458
GlyphClass: 1
Flags: W
LayerCount: 2
Fore
SplineSet
1120 0 m 1,0,-1
 984 0 l 1,1,-1
 1132 652 l 1,2,-1
 395 652 l 1,3,-1
 246 0 l 1,4,-1
 109 0 l 1,5,-1
 435 1413 l 1,6,-1
 571 1413 l 1,7,-1
 423 762 l 1,8,-1
 1160 762 l 1,9,-1
 1309 1413 l 1,10,-1
 1446 1413 l 1,11,-1
 1120 0 l 1,0,-1
EndSplineSet
Position2: "'cpsp' Capital Spacing lookup 0 per glyph data 0" dx=5 dy=0 dh=10 dv=0
EndChar

StartChar: I
Encoding: 73 73 44
Width: 584
GlyphClass: 1
Flags: W
LayerCount: 2
Fore
SplineSet
246 0 m 1,0,-1
 109 0 l 1,1,-1
 435 1413 l 1,2,-1
 571 1413 l 1,3,-1
 246 0 l 1,0,-1
EndSplineSet
Position2: "'cpsp' Capital Spacing lookup 0 per glyph data 0" dx=5 dy=0 dh=10 dv=0
EndChar

StartChar: J
Encoding: 74 74 45
Width: 1127
GlyphClass: 1
Flags: W
LayerCount: 2
Fore
SplineSet
416 -20 m 0,0,1
 374 -20 374 -20 333.5 -16 c 128,-1,2
 293 -12 293 -12 254 2 c 0,3,4
 203 20 203 20 165.5 51 c 128,-1,5
 128 82 128 82 103.5 122.5 c 128,-1,6
 79 163 79 163 67.5 211 c 128,-1,7
 56 259 56 259 56 311 c 0,8,9
 56 331 56 331 57.5 351 c 128,-1,10
 59 371 59 371 63 391 c 1,11,-1
 196 397 l 1,12,13
 190 360 190 360 190 322 c 0,14,15
 190 273 190 273 202 232 c 128,-1,16
 214 191 214 191 238.5 161 c 128,-1,17
 263 131 263 131 301 114 c 128,-1,18
 339 97 339 97 391 97 c 0,19,20
 483 97 483 97 549 127.5 c 128,-1,21
 615 158 615 158 661.5 210.5 c 128,-1,22
 708 263 708 263 737.5 334 c 128,-1,23
 767 405 767 405 785 485 c 2,24,-1
 999 1413 l 1,25,-1
 1137 1413 l 1,26,27
 1096 1240 1096 1240 1056.5 1070 c 128,-1,28
 1017 900 1017 900 979 726 c 0,29,30
 965 661 965 661 950.5 592.5 c 128,-1,31
 936 524 936 524 916.5 456 c 128,-1,32
 897 388 897 388 870.5 324 c 128,-1,33
 844 260 844 260 807 203 c 128,-1,34
 770 146 770 146 720 99.5 c 128,-1,35
 670 53 670 53 604 21 c 0,36,37
 560 0 560 0 512.5 -10 c 128,-1,38
 465 -20 465 -20 416 -20 c 0,0,1
EndSplineSet
Position2: "'cpsp' Capital Spacing lookup 0 per glyph data 0" dx=5 dy=0 dh=10 dv=0
EndChar

StartChar: K
Encoding: 75 75 46
Width: 1451
GlyphClass: 1
Flags: W
LayerCount: 2
Fore
SplineSet
1229 0 m 1,0,-1
 1072 0 l 1,1,-1
 756 766 l 1,2,-1
 311 394 l 1,3,-1
 219 0 l 1,4,-1
 82 0 l 1,5,-1
 408 1413 l 1,6,-1
 545 1413 l 1,7,-1
 349 566 l 1,8,-1
 1343 1413 l 1,9,-1
 1523 1413 l 1,10,-1
 868 861 l 1,11,-1
 1229 0 l 1,0,-1
EndSplineSet
Position2: "'cpsp' Capital Spacing lookup 0 per glyph data 0" dx=5 dy=0 dh=10 dv=0
EndChar

StartChar: L
Encoding: 76 76 47
Width: 1041
GlyphClass: 1
Flags: W
LayerCount: 2
Fore
SplineSet
851 0 m 1,0,-1
 109 0 l 1,1,-1
 435 1413 l 1,2,-1
 571 1413 l 1,3,-1
 273 123 l 1,4,-1
 878 123 l 1,5,-1
 851 0 l 1,0,-1
EndSplineSet
Position2: "'cpsp' Capital Spacing lookup 0 per glyph data 0" dx=5 dy=0 dh=10 dv=0
EndChar

StartChar: M
Encoding: 77 77 48
Width: 1762
GlyphClass: 1
Flags: W
LayerCount: 2
Fore
SplineSet
1401 0 m 1,0,-1
 1265 0 l 1,1,-1
 1567 1305 l 1,2,-1
 848 123 l 1,3,-1
 692 123 l 1,4,-1
 523 1305 l 1,5,-1
 220 0 l 1,6,-1
 82 0 l 1,7,-1
 408 1413 l 1,8,-1
 637 1413 l 1,9,-1
 793 246 l 1,10,-1
 1497 1413 l 1,11,-1
 1728 1413 l 1,12,-1
 1401 0 l 1,0,-1
EndSplineSet
Position2: "'cpsp' Capital Spacing lookup 0 per glyph data 0" dx=5 dy=0 dh=10 dv=0
EndChar

StartChar: N
Encoding: 78 78 49
Width: 1417
GlyphClass: 1
Flags: W
LayerCount: 2
Fore
SplineSet
1057 0 m 1,0,-1
 845 0 l 1,1,-1
 515 1274 l 1,2,-1
 220 0 l 1,3,-1
 82 0 l 1,4,-1
 408 1413 l 1,5,-1
 616 1413 l 1,6,-1
 951 141 l 1,7,-1
 1246 1413 l 1,8,-1
 1382 1413 l 1,9,-1
 1057 0 l 1,0,-1
EndSplineSet
Position2: "'cpsp' Capital Spacing lookup 0 per glyph data 0" dx=5 dy=0 dh=10 dv=0
EndChar

StartChar: O
Encoding: 79 79 50
Width: 1473
GlyphClass: 1
Flags: W
LayerCount: 2
Fore
SplineSet
628 -20 m 0,0,1
 508 -20 508 -20 416 15 c 128,-1,2
 324 50 324 50 261.5 115 c 128,-1,3
 199 180 199 180 167 273.5 c 128,-1,4
 135 367 135 367 135 485 c 0,5,6
 135 585 135 585 154.5 681 c 128,-1,7
 174 777 174 777 209 870 c 0,8,9
 255 992 255 992 324 1095 c 128,-1,10
 393 1198 393 1198 485 1274 c 128,-1,11
 577 1350 577 1350 691 1392.5 c 128,-1,12
 805 1435 805 1435 941 1435 c 0,13,14
 1061 1435 1061 1435 1153 1400 c 128,-1,15
 1245 1365 1245 1365 1308 1299 c 128,-1,16
 1371 1233 1371 1233 1403 1139 c 128,-1,17
 1435 1045 1435 1045 1435 927 c 0,18,19
 1435 826 1435 826 1414.5 727.5 c 128,-1,20
 1394 629 1394 629 1358 535 c 0,21,22
 1312 414 1312 414 1242.5 312.5 c 128,-1,23
 1173 211 1173 211 1081.5 137 c 128,-1,24
 990 63 990 63 876.5 21.5 c 128,-1,25
 763 -20 763 -20 628 -20 c 0,0,1
645 108 m 0,26,27
 778 108 778 108 883.5 158.5 c 128,-1,28
 989 209 989 209 1067.5 294 c 128,-1,29
 1146 379 1146 379 1197.5 489 c 128,-1,30
 1249 599 1249 599 1274 719 c 0,31,32
 1284 767 1284 767 1290.5 815.5 c 128,-1,33
 1297 864 1297 864 1297 913 c 0,34,35
 1297 1005 1297 1005 1273.5 1078 c 128,-1,36
 1250 1151 1250 1151 1203 1201.5 c 128,-1,37
 1156 1252 1156 1252 1085.5 1278.5 c 128,-1,38
 1015 1305 1015 1305 920 1305 c 0,39,40
 813 1305 813 1305 723.5 1270.5 c 128,-1,41
 634 1236 634 1236 562 1177 c 128,-1,42
 490 1118 490 1118 436.5 1038 c 128,-1,43
 383 958 383 958 347 867 c 128,-1,44
 311 776 311 776 293 678.5 c 128,-1,45
 275 581 275 581 275 487 c 0,46,47
 275 399 275 399 299.5 328.5 c 128,-1,48
 324 258 324 258 371 209 c 128,-1,49
 418 160 418 160 487 134 c 128,-1,50
 556 108 556 108 645 108 c 0,26,27
EndSplineSet
Substitution2: "Single Substitution lookup 3 subtable" ordmasculine
Substitution2: "Single Substitution lookup 2 subtable" ordmasculine
Position2: "'cpsp' Capital Spacing lookup 0 per glyph data 0" dx=5 dy=0 dh=10 dv=0
EndChar

StartChar: P
Encoding: 80 80 51
Width: 1156
GlyphClass: 1
Flags: W
LayerCount: 2
Fore
SplineSet
246 0 m 1,0,-1
 109 0 l 1,1,2
 191 353 191 353 271.5 707 c 128,-1,3
 352 1061 352 1061 435 1413 c 1,4,-1
 815 1413 l 2,5,6
 884 1413 884 1413 950.5 1397 c 128,-1,7
 1017 1381 1017 1381 1069 1345.5 c 128,-1,8
 1121 1310 1121 1310 1152.5 1254.5 c 128,-1,9
 1184 1199 1184 1199 1184 1120 c 0,10,11
 1184 1065 1184 1065 1171.5 1011.5 c 128,-1,12
 1159 958 1159 958 1134 909 c 0,13,14
 1097 835 1097 835 1047 787 c 128,-1,15
 997 739 997 739 938 710.5 c 128,-1,16
 879 682 879 682 813 668.5 c 128,-1,17
 747 655 747 655 678 651 c 0,18,19
 631 648 631 648 584 648 c 0,20,21
 561 648 561 648 513 649 c 128,-1,22
 465 650 465 650 395 650 c 1,23,-1
 246 0 l 1,0,-1
669 768 m 2,24,25
 747 768 747 768 816 790.5 c 128,-1,26
 885 813 885 813 937 856.5 c 128,-1,27
 989 900 989 900 1019.5 964 c 128,-1,28
 1050 1028 1050 1028 1050 1110 c 0,29,30
 1050 1165 1050 1165 1028 1200.5 c 128,-1,31
 1006 1236 1006 1236 971 1257 c 128,-1,32
 936 1278 936 1278 891 1286 c 128,-1,33
 846 1294 846 1294 800 1294 c 2,34,-1
 545 1294 l 1,35,-1
 422 768 l 1,36,-1
 669 768 l 2,24,25
EndSplineSet
Position2: "'cpsp' Capital Spacing lookup 0 per glyph data 0" dx=5 dy=0 dh=10 dv=0
EndChar

StartChar: Q
Encoding: 81 81 52
Width: 1554
GlyphClass: 1
Flags: W
LayerCount: 2
Fore
SplineSet
1209 -93 m 1,0,-1
 1054 114 l 1,1,2
 960 42 960 42 853 11 c 128,-1,3
 746 -20 746 -20 628 -20 c 0,4,5
 508 -20 508 -20 416 14.5 c 128,-1,6
 324 49 324 49 261.5 114.5 c 128,-1,7
 199 180 199 180 167 273.5 c 128,-1,8
 135 367 135 367 135 485 c 0,9,10
 135 601 135 601 163.5 722.5 c 128,-1,11
 192 844 192 844 245.5 955.5 c 128,-1,12
 299 1067 299 1067 377 1163 c 128,-1,13
 455 1259 455 1259 554 1324 c 0,14,15
 643 1383 643 1383 739 1409 c 128,-1,16
 835 1435 835 1435 941 1435 c 0,17,18
 1061 1435 1061 1435 1153 1400 c 128,-1,19
 1245 1365 1245 1365 1307.5 1299 c 128,-1,20
 1370 1233 1370 1233 1402.5 1139 c 128,-1,21
 1435 1045 1435 1045 1435 927 c 0,22,23
 1435 834 1435 834 1415.5 734.5 c 128,-1,24
 1396 635 1396 635 1360 539 c 128,-1,25
 1324 443 1324 443 1272 356 c 128,-1,26
 1220 269 1220 269 1154 203 c 1,27,-1
 1312 -4 l 1,28,-1
 1209 -93 l 1,0,-1
646 107 m 0,29,30
 737 107 737 107 820 133 c 128,-1,31
 903 159 903 159 977 213 c 1,32,-1
 835 403 l 1,33,-1
 934 494 l 1,34,-1
 1078 307 l 1,35,36
 1128 365 1128 365 1168 439 c 128,-1,37
 1208 513 1208 513 1236.5 593.5 c 128,-1,38
 1265 674 1265 674 1280 757 c 128,-1,39
 1295 840 1295 840 1295 916 c 0,40,41
 1295 1007 1295 1007 1272 1079.5 c 128,-1,42
 1249 1152 1249 1152 1202.5 1202 c 128,-1,43
 1156 1252 1156 1252 1086 1279 c 128,-1,44
 1016 1306 1016 1306 922 1306 c 0,45,46
 815 1306 815 1306 725.5 1271.5 c 128,-1,47
 636 1237 636 1237 564.5 1177 c 128,-1,48
 493 1117 493 1117 439 1037 c 128,-1,49
 385 957 385 957 349 866 c 128,-1,50
 313 775 313 775 295 677.5 c 128,-1,51
 277 580 277 580 277 486 c 0,52,53
 277 398 277 398 301 327.5 c 128,-1,54
 325 257 325 257 371.5 208 c 128,-1,55
 418 159 418 159 487 133 c 128,-1,56
 556 107 556 107 646 107 c 0,29,30
EndSplineSet
Position2: "'cpsp' Capital Spacing lookup 0 per glyph data 0" dx=5 dy=0 dh=10 dv=0
EndChar

StartChar: R
Encoding: 82 82 53
Width: 1221
GlyphClass: 1
Flags: W
LayerCount: 2
Fore
SplineSet
1005 -2 m 1,0,-1
 858 -2 l 1,1,-1
 653 639 l 1,2,-1
 393 639 l 1,3,-1
 243 -2 l 1,4,-1
 106 -2 l 1,5,-1
 434 1411 l 1,6,-1
 821 1411 l 2,7,8
 891 1411 891 1411 955.5 1392 c 128,-1,9
 1020 1373 1020 1373 1070 1335.5 c 128,-1,10
 1120 1298 1120 1298 1150 1241 c 128,-1,11
 1180 1184 1180 1184 1180 1107 c 0,12,13
 1180 1021 1180 1021 1149 945 c 128,-1,14
 1118 869 1118 869 1064.5 810 c 128,-1,15
 1011 751 1011 751 938.5 711 c 128,-1,16
 866 671 866 671 783 657 c 1,17,-1
 1005 -2 l 1,0,-1
715 767 m 2,18,19
 742 767 742 767 768 774.5 c 128,-1,20
 794 782 794 782 819 792 c 0,21,22
 869 812 869 812 911 842 c 128,-1,23
 953 872 953 872 984 911 c 128,-1,24
 1015 950 1015 950 1032 998 c 128,-1,25
 1049 1046 1049 1046 1049 1102 c 0,26,27
 1049 1155 1049 1155 1028 1191 c 128,-1,28
 1007 1227 1007 1227 973 1249 c 128,-1,29
 939 1271 939 1271 895 1281 c 128,-1,30
 851 1291 851 1291 806 1291 c 2,31,-1
 544 1291 l 1,32,-1
 423 767 l 1,33,-1
 715 767 l 2,18,19
EndSplineSet
Position2: "'cpsp' Capital Spacing lookup 0 per glyph data 0" dx=5 dy=0 dh=10 dv=0
EndChar

StartChar: S
Encoding: 83 83 54
Width: 1115
GlyphClass: 1
Flags: W
LayerCount: 2
Fore
SplineSet
482 -16 m 0,0,1
 397 -16 397 -16 320.5 8 c 128,-1,2
 244 32 244 32 187 79.5 c 128,-1,3
 130 127 130 127 96.5 197 c 128,-1,4
 63 267 63 267 63 358 c 1,5,-1
 195 385 l 1,6,-1
 195 379 l 2,7,8
 195 314 195 314 215.5 263.5 c 128,-1,9
 236 213 236 213 274 178.5 c 128,-1,10
 312 144 312 144 366 127 c 128,-1,11
 420 110 420 110 486 110 c 0,12,13
 553 110 553 110 617.5 128.5 c 128,-1,14
 682 147 682 147 732.5 184 c 128,-1,15
 783 221 783 221 814 276.5 c 128,-1,16
 845 332 845 332 845 407 c 0,17,18
 845 465 845 465 822.5 507 c 128,-1,19
 800 549 800 549 762.5 581.5 c 128,-1,20
 725 614 725 614 678 639.5 c 128,-1,21
 631 665 631 665 581.5 691 c 128,-1,22
 532 717 532 717 484.5 745.5 c 128,-1,23
 437 774 437 774 399.5 811 c 128,-1,24
 362 848 362 848 339.5 897.5 c 128,-1,25
 317 947 317 947 317 1015 c 0,26,27
 317 1107 317 1107 355 1184 c 128,-1,28
 393 1261 393 1261 456.5 1316.5 c 128,-1,29
 520 1372 520 1372 602 1403 c 128,-1,30
 684 1434 684 1434 772 1434 c 0,31,32
 829 1434 829 1434 881 1420.5 c 128,-1,33
 933 1407 933 1407 976.5 1379.5 c 128,-1,34
 1020 1352 1020 1352 1054 1311 c 128,-1,35
 1088 1270 1088 1270 1108 1215 c 1,36,-1
 997 1159 l 1,37,38
 970 1235 970 1235 908.5 1274 c 128,-1,39
 847 1313 847 1313 768 1313 c 0,40,41
 710 1313 710 1313 653 1293.5 c 128,-1,42
 596 1274 596 1274 552 1238 c 128,-1,43
 508 1202 508 1202 480.5 1151 c 128,-1,44
 453 1100 453 1100 453 1037 c 0,45,46
 453 982 453 982 475.5 943 c 128,-1,47
 498 904 498 904 535.5 873.5 c 128,-1,48
 573 843 573 843 620.5 818.5 c 128,-1,49
 668 794 668 794 717.5 769 c 128,-1,50
 767 744 767 744 814 715 c 128,-1,51
 861 686 861 686 898.5 647.5 c 128,-1,52
 936 609 936 609 958.5 557 c 128,-1,53
 981 505 981 505 981 433 c 0,54,55
 981 331 981 331 939 248.5 c 128,-1,56
 897 166 897 166 827.5 107 c 128,-1,57
 758 48 758 48 668 16 c 128,-1,58
 578 -16 578 -16 482 -16 c 0,0,1
EndSplineSet
Position2: "'cpsp' Capital Spacing lookup 0 per glyph data 0" dx=5 dy=0 dh=10 dv=0
EndChar

StartChar: T
Encoding: 84 84 55
Width: 1263
GlyphClass: 1
Flags: W
LayerCount: 2
Fore
SplineSet
586 0 m 1,0,-1
 447 0 l 1,1,-1
 748 1305 l 1,2,-1
 263 1305 l 1,3,-1
 288 1413 l 1,4,-1
 1396 1413 l 1,5,-1
 1371 1305 l 1,6,-1
 887 1305 l 1,7,-1
 586 0 l 1,0,-1
EndSplineSet
Position2: "'cpsp' Capital Spacing lookup 0 per glyph data 0" dx=5 dy=0 dh=10 dv=0
EndChar

StartChar: U
Encoding: 85 85 56
Width: 1354
GlyphClass: 1
Flags: W
LayerCount: 2
Fore
SplineSet
567 -20 m 0,0,1
 476 -20 476 -20 404.5 4 c 128,-1,2
 333 28 333 28 283 75.5 c 128,-1,3
 233 123 233 123 206.5 193.5 c 128,-1,4
 180 264 180 264 180 356 c 0,5,6
 180 406 180 406 186.5 454.5 c 128,-1,7
 193 503 193 503 203.5 551 c 128,-1,8
 214 599 214 599 226 646.5 c 128,-1,9
 238 694 238 694 250 742 c 0,10,11
 292 910 292 910 329.5 1077 c 128,-1,12
 367 1244 367 1244 406 1413 c 1,13,-1
 543 1413 l 1,14,15
 506 1246 506 1246 468.5 1082 c 128,-1,16
 431 918 431 918 390 752 c 0,17,18
 378 704 378 704 365.5 656.5 c 128,-1,19
 353 609 353 609 342.5 560.5 c 128,-1,20
 332 512 332 512 325.5 463.5 c 128,-1,21
 319 415 319 415 319 365 c 0,22,23
 319 234 319 234 381 170.5 c 128,-1,24
 443 107 443 107 574 107 c 0,25,26
 645 107 645 107 702.5 124 c 128,-1,27
 760 141 760 141 806 172 c 128,-1,28
 852 203 852 203 887.5 245.5 c 128,-1,29
 923 288 923 288 951 339 c 128,-1,30
 979 390 979 390 1000.5 447.5 c 128,-1,31
 1022 505 1022 505 1039 565 c 0,32,33
 1068 666 1068 666 1089 768.5 c 128,-1,34
 1110 871 1110 871 1133 974 c 0,35,36
 1158 1085 1158 1085 1183.5 1194 c 128,-1,37
 1209 1303 1209 1303 1235 1413 c 1,38,-1
 1372 1413 l 1,39,-1
 1173 547 l 2,40,41
 1146 431 1146 431 1096.5 328 c 128,-1,42
 1047 225 1047 225 972 147.5 c 128,-1,43
 897 70 897 70 796.5 25 c 128,-1,44
 696 -20 696 -20 567 -20 c 0,0,1
EndSplineSet
Position2: "'cpsp' Capital Spacing lookup 0 per glyph data 0" dx=5 dy=0 dh=10 dv=0
EndChar

StartChar: V
Encoding: 86 86 57
Width: 1327
GlyphClass: 1
Flags: W
LayerCount: 2
Fore
SplineSet
589 0 m 1,0,-1
 465 0 l 1,1,-1
 266 1413 l 1,2,-1
 408 1413 l 1,3,-1
 563 168 l 1,4,-1
 1294 1413 l 1,5,-1
 1437 1413 l 1,6,-1
 589 0 l 1,0,-1
EndSplineSet
Position2: "'cpsp' Capital Spacing lookup 0 per glyph data 0" dx=5 dy=0 dh=10 dv=0
EndChar

StartChar: W
Encoding: 87 87 58
Width: 1971
GlyphClass: 1
Flags: W
LayerCount: 2
Fore
SplineSet
1330 0 m 1,0,-1
 1168 0 l 1,1,-1
 1098 1188 l 1,2,-1
 477 0 l 1,3,-1
 314 0 l 1,4,-1
 249 1413 l 1,5,-1
 387 1413 l 1,6,-1
 442 156 l 1,7,-1
 1093 1413 l 1,8,-1
 1204 1413 l 1,9,-1
 1277 156 l 1,10,-1
 1909 1413 l 1,11,-1
 2049 1413 l 1,12,-1
 1330 0 l 1,0,-1
EndSplineSet
Position2: "'cpsp' Capital Spacing lookup 0 per glyph data 1" dx=5 dy=1 dh=10 dv=2
EndChar

StartChar: X
Encoding: 88 88 59
Width: 1257
GlyphClass: 1
Flags: W
LayerCount: 2
Fore
SplineSet
1050 0 m 1,0,-1
 896 0 l 1,1,-1
 652 586 l 1,2,-1
 139 0 l 1,3,-1
 -26 0 l 1,4,-1
 604 707 l 1,5,-1
 305 1413 l 1,6,-1
 463 1413 l 1,7,-1
 699 816 l 1,8,-1
 1216 1413 l 1,9,-1
 1377 1413 l 1,10,-1
 750 707 l 1,11,-1
 1050 0 l 1,0,-1
EndSplineSet
Position2: "'cpsp' Capital Spacing lookup 0 per glyph data 0" dx=5 dy=0 dh=10 dv=0
EndChar

StartChar: Y
Encoding: 89 89 60
Width: 1331
GlyphClass: 1
Flags: W
LayerCount: 2
Fore
SplineSet
618 0 m 1,0,-1
 487 0 l 1,1,-1
 615 553 l 1,2,-1
 284 1413 l 1,3,-1
 438 1413 l 1,4,-1
 707 694 l 1,5,-1
 1314 1413 l 1,6,-1
 1473 1413 l 1,7,-1
 747 553 l 1,8,-1
 618 0 l 1,0,-1
EndSplineSet
Position2: "'cpsp' Capital Spacing lookup 0 per glyph data 0" dx=5 dy=0 dh=10 dv=0
EndChar

StartChar: Z
Encoding: 90 90 61
Width: 1288
GlyphClass: 1
Flags: W
LayerCount: 2
Fore
SplineSet
1062 0 m 1,0,-1
 -14 0 l 1,1,-1
 8 111 l 1,2,-1
 1193 1298 l 1,3,-1
 329 1298 l 1,4,-1
 356 1413 l 1,5,-1
 1388 1413 l 1,6,-1
 1363 1295 l 1,7,-1
 185 124 l 1,8,-1
 1092 124 l 1,9,-1
 1062 0 l 1,0,-1
EndSplineSet
Position2: "'cpsp' Capital Spacing lookup 0 per glyph data 0" dx=5 dy=0 dh=10 dv=0
EndChar

StartChar: bracketleft
Encoding: 91 91 62
Width: 642
GlyphClass: 1
Flags: W
LayerCount: 2
Fore
SplineSet
427 -79 m 1,0,-1
 81 -79 l 1,1,-1
 443 1490 l 1,2,-1
 788 1490 l 1,3,-1
 772 1416 l 1,4,-1
 536 1416 l 1,5,-1
 209 -3 l 1,6,-1
 445 -3 l 1,7,-1
 427 -79 l 1,0,-1
EndSplineSet
EndChar

StartChar: backslash
Encoding: 92 92 63
Width: 938
GlyphClass: 1
Flags: W
LayerCount: 2
Fore
SplineSet
693 -431 m 1,0,-1
 564 -431 l 1,1,-1
 263 1516 l 1,2,-1
 397 1516 l 1,3,-1
 693 -431 l 1,0,-1
EndSplineSet
EndChar

StartChar: bracketright
Encoding: 93 93 64
Width: 642
GlyphClass: 1
Flags: W
LayerCount: 2
Fore
SplineSet
293 -79 m 1,0,-1
 -52 -79 l 1,1,-1
 -34 -3 l 1,2,-1
 202 -3 l 1,3,-1
 529 1416 l 1,4,-1
 293 1416 l 1,5,-1
 310 1490 l 1,6,-1
 654 1490 l 1,7,-1
 293 -79 l 1,0,-1
EndSplineSet
EndChar

StartChar: asciicircum
Encoding: 94 94 65
Width: 986
GlyphClass: 1
Flags: W
LayerCount: 2
Fore
SplineSet
922 848 m 1,0,-1
 787 848 l 1,1,-1
 655 1190 l 1,2,-1
 364 848 l 1,3,-1
 223 848 l 1,4,-1
 699 1412 l 1,5,-1
 922 848 l 1,0,-1
EndSplineSet
EndChar

StartChar: underscore
Encoding: 95 95 66
Width: 1244
GlyphClass: 1
Flags: W
LayerCount: 2
Fore
SplineSet
866 -100 m 1,0,-1
 102 -100 l 1,1,-1
 125 -3 l 1,2,-1
 888 -3 l 1,3,-1
 866 -100 l 1,0,-1
EndSplineSet
EndChar

StartChar: grave
Encoding: 96 96 67
Width: 540
GlyphClass: 1
Flags: W
LayerCount: 2
Fore
SplineSet
506 1125 m 1,0,-1
 386 1125 l 1,1,-1
 194 1413 l 1,2,-1
 359 1413 l 1,3,-1
 506 1125 l 1,0,-1
EndSplineSet
EndChar

StartChar: a
Encoding: 97 97 68
Width: 1162
GlyphClass: 1
Flags: W
LayerCount: 2
Fore
SplineSet
407 -20 m 0,0,1
 324 -20 324 -20 264.5 9.5 c 128,-1,2
 205 39 205 39 167 89.5 c 128,-1,3
 129 140 129 140 111 207 c 128,-1,4
 93 274 93 274 93 350 c 0,5,6
 93 424 93 424 109.5 505 c 128,-1,7
 126 586 126 586 157.5 665 c 128,-1,8
 189 744 189 744 235.5 815.5 c 128,-1,9
 282 887 282 887 341.5 941.5 c 128,-1,10
 401 996 401 996 474 1028 c 128,-1,11
 547 1060 547 1060 632 1060 c 0,12,13
 733 1060 733 1060 810 1019.5 c 128,-1,14
 887 979 887 979 932 885 c 1,15,16
 941 924 941 924 950 962.5 c 128,-1,17
 959 1001 959 1001 970 1039 c 1,18,-1
 1101 1039 l 1,19,-1
 863 0 l 1,20,-1
 733 0 l 1,21,-1
 763 139 l 1,22,23
 694 65 694 65 601 22.5 c 128,-1,24
 508 -20 508 -20 407 -20 c 0,0,1
444 95 m 0,25,26
 516 95 516 95 576.5 121.5 c 128,-1,27
 637 148 637 148 686 193.5 c 128,-1,28
 735 239 735 239 772 298.5 c 128,-1,29
 809 358 809 358 833.5 424 c 128,-1,30
 858 490 858 490 870.5 558 c 128,-1,31
 883 626 883 626 883 688 c 0,32,33
 883 743 883 743 870.5 789.5 c 128,-1,34
 858 836 858 836 831.5 870 c 128,-1,35
 805 904 805 904 763 923 c 128,-1,36
 721 942 721 942 661 942 c 0,37,38
 590 942 590 942 529.5 915.5 c 128,-1,39
 469 889 469 889 420 844 c 128,-1,40
 371 799 371 799 334 739.5 c 128,-1,41
 297 680 297 680 272 614.5 c 128,-1,42
 247 549 247 549 234.5 481.5 c 128,-1,43
 222 414 222 414 222 352 c 0,44,45
 222 297 222 297 234 250 c 128,-1,46
 246 203 246 203 273 168.5 c 128,-1,47
 300 134 300 134 342 114.5 c 128,-1,48
 384 95 384 95 444 95 c 0,25,26
EndSplineSet
Substitution2: "Single Substitution lookup 3 subtable" ordfeminine
Substitution2: "Single Substitution lookup 2 subtable" ordfeminine
EndChar

StartChar: b
Encoding: 98 98 69
Width: 1160
GlyphClass: 1
Flags: W
LayerCount: 2
Fore
SplineSet
538 -20 m 0,0,1
 487 -20 487 -20 441 -11 c 128,-1,2
 395 -2 395 -2 356.5 18.5 c 128,-1,3
 318 39 318 39 287 73 c 128,-1,4
 256 107 256 107 235 156 c 1,5,-1
 197 0 l 1,6,-1
 67 0 l 1,7,-1
 406 1413 l 1,8,-1
 536 1413 l 1,9,-1
 399 893 l 1,10,11
 472 972 472 972 560.5 1017 c 128,-1,12
 649 1062 649 1062 758 1062 c 0,13,14
 842 1062 842 1062 901.5 1032.5 c 128,-1,15
 961 1003 961 1003 999.5 952 c 128,-1,16
 1038 901 1038 901 1056 833.5 c 128,-1,17
 1074 766 1074 766 1074 690 c 0,18,19
 1074 607 1074 607 1056 520.5 c 128,-1,20
 1038 434 1038 434 1003.5 353 c 128,-1,21
 969 272 969 272 918 201 c 128,-1,22
 867 130 867 130 800 78 c 0,23,24
 741 32 741 32 677 6 c 128,-1,25
 613 -20 613 -20 538 -20 c 0,0,1
502 89 m 0,26,27
 548 89 548 89 591 101.5 c 128,-1,28
 634 114 634 114 674 137 c 0,29,30
 742 178 742 178 793.5 239 c 128,-1,31
 845 300 845 300 879 372.5 c 128,-1,32
 913 445 913 445 930 524.5 c 128,-1,33
 947 604 947 604 947 681 c 0,34,35
 947 736 947 736 935 785 c 128,-1,36
 923 834 923 834 896 871 c 128,-1,37
 869 908 869 908 826.5 929.5 c 128,-1,38
 784 951 784 951 723 951 c 0,39,40
 651 951 651 951 590 923.5 c 128,-1,41
 529 896 529 896 480 849.5 c 128,-1,42
 431 803 431 803 394 741.5 c 128,-1,43
 357 680 357 680 332 613 c 128,-1,44
 307 546 307 546 294.5 477.5 c 128,-1,45
 282 409 282 409 282 347 c 0,46,47
 282 293 282 293 294 245.5 c 128,-1,48
 306 198 306 198 332 163.5 c 128,-1,49
 358 129 358 129 400 109 c 128,-1,50
 442 89 442 89 502 89 c 0,26,27
EndSplineSet
EndChar

StartChar: c
Encoding: 99 99 70
Width: 998
GlyphClass: 1
Flags: W
LayerCount: 2
Fore
SplineSet
432 -20 m 0,0,1
 344 -20 344 -20 279 9 c 128,-1,2
 214 38 214 38 171.5 89 c 128,-1,3
 129 140 129 140 108 210.5 c 128,-1,4
 87 281 87 281 87 364 c 0,5,6
 87 442 87 442 104.5 523.5 c 128,-1,7
 122 605 122 605 155.5 682 c 128,-1,8
 189 759 189 759 238 827 c 128,-1,9
 287 895 287 895 349.5 946 c 128,-1,10
 412 997 412 997 487.5 1026.5 c 128,-1,11
 563 1056 563 1056 650 1056 c 0,12,13
 781 1056 781 1056 869 988 c 128,-1,14
 957 920 957 920 988 792 c 1,15,-1
 859 742 l 1,16,17
 856 788 856 788 838 825 c 128,-1,18
 820 862 820 862 790 887.5 c 128,-1,19
 760 913 760 913 721 927 c 128,-1,20
 682 941 682 941 637 941 c 0,21,22
 568 941 568 941 509.5 914.5 c 128,-1,23
 451 888 451 888 404.5 843 c 128,-1,24
 358 798 358 798 322.5 739.5 c 128,-1,25
 287 681 287 681 263.5 616 c 128,-1,26
 240 551 240 551 228 485 c 128,-1,27
 216 419 216 419 216 360 c 0,28,29
 216 304 216 304 227.5 255 c 128,-1,30
 239 206 239 206 265.5 170 c 128,-1,31
 292 134 292 134 334.5 113.5 c 128,-1,32
 377 93 377 93 440 93 c 0,33,34
 490 93 490 93 538.5 109 c 128,-1,35
 587 125 587 125 629 152.5 c 128,-1,36
 671 180 671 180 705 218 c 128,-1,37
 739 256 739 256 761 300 c 1,38,-1
 863 241 l 1,39,40
 829 182 829 182 783 134 c 128,-1,41
 737 86 737 86 682.5 51.5 c 128,-1,42
 628 17 628 17 564.5 -1.5 c 128,-1,43
 501 -20 501 -20 432 -20 c 0,0,1
EndSplineSet
EndChar

StartChar: d
Encoding: 100 100 71
Width: 1166
GlyphClass: 1
Flags: W
LayerCount: 2
Fore
SplineSet
407 -20 m 0,0,1
 323 -20 323 -20 263.5 9.5 c 128,-1,2
 204 39 204 39 166 89.5 c 128,-1,3
 128 140 128 140 110.5 207 c 128,-1,4
 93 274 93 274 93 350 c 0,5,6
 93 424 93 424 109.5 505.5 c 128,-1,7
 126 587 126 587 157.5 666 c 128,-1,8
 189 745 189 745 235.5 816 c 128,-1,9
 282 887 282 887 341.5 941.5 c 128,-1,10
 401 996 401 996 474 1028 c 128,-1,11
 547 1060 547 1060 632 1060 c 0,12,13
 682 1060 682 1060 727 1050 c 128,-1,14
 772 1040 772 1040 810 1019 c 128,-1,15
 848 998 848 998 879 965 c 128,-1,16
 910 932 910 932 932 885 c 1,17,18
 966 1018 966 1018 1000 1149.5 c 128,-1,19
 1034 1281 1034 1281 1071 1413 c 1,20,-1
 1202 1413 l 1,21,-1
 863 0 l 1,22,-1
 733 0 l 1,23,-1
 763 139 l 1,24,25
 690 59 690 59 603 19.5 c 128,-1,26
 516 -20 516 -20 407 -20 c 0,0,1
445 95 m 0,27,28
 517 95 517 95 577.5 122 c 128,-1,29
 638 149 638 149 686.5 194 c 128,-1,30
 735 239 735 239 772 299 c 128,-1,31
 809 359 809 359 834 425 c 128,-1,32
 859 491 859 491 871.5 559 c 128,-1,33
 884 627 884 627 884 688 c 0,34,35
 884 743 884 743 871.5 789.5 c 128,-1,36
 859 836 859 836 832 870 c 128,-1,37
 805 904 805 904 763 923 c 128,-1,38
 721 942 721 942 661 942 c 0,39,40
 590 942 590 942 529.5 915.5 c 128,-1,41
 469 889 469 889 420 844 c 128,-1,42
 371 799 371 799 334 739.5 c 128,-1,43
 297 680 297 680 272 614.5 c 128,-1,44
 247 549 247 549 234.5 481.5 c 128,-1,45
 222 414 222 414 222 352 c 0,46,47
 222 297 222 297 234.5 250 c 128,-1,48
 247 203 247 203 273.5 168.5 c 128,-1,49
 300 134 300 134 342.5 114.5 c 128,-1,50
 385 95 385 95 445 95 c 0,27,28
EndSplineSet
EndChar

StartChar: e
Encoding: 101 101 72
Width: 1059
GlyphClass: 1
Flags: W
LayerCount: 2
Fore
SplineSet
446 -12 m 0,0,1
 359 -12 359 -12 292 13.5 c 128,-1,2
 225 39 225 39 179 87 c 128,-1,3
 133 135 133 135 109 203.5 c 128,-1,4
 85 272 85 272 85 357 c 0,5,6
 85 436 85 436 102.5 518 c 128,-1,7
 120 600 120 600 153.5 677 c 128,-1,8
 187 754 187 754 236 822.5 c 128,-1,9
 285 891 285 891 347.5 942 c 128,-1,10
 410 993 410 993 486 1022.5 c 128,-1,11
 562 1052 562 1052 649 1052 c 0,12,13
 815 1052 815 1052 904 970 c 128,-1,14
 993 888 993 888 993 719 c 0,15,16
 993 661 993 661 985 604.5 c 128,-1,17
 977 548 977 548 960 493 c 0,18,19
 958 488 958 488 956 483.5 c 128,-1,20
 954 479 954 479 953 474 c 1,21,-1
 229 474 l 1,22,23
 222 444 222 444 217.5 413 c 128,-1,24
 213 382 213 382 213 351 c 0,25,26
 213 234 213 234 274.5 167 c 128,-1,27
 336 100 336 100 455 100 c 0,28,29
 546 100 546 100 630.5 125 c 128,-1,30
 715 150 715 150 784 212 c 1,31,-1
 863 136 l 1,32,33
 776 61 776 61 668 24.5 c 128,-1,34
 560 -12 560 -12 446 -12 c 0,0,1
858 584 m 1,35,36
 867 617 867 617 874 651 c 128,-1,37
 881 685 881 685 881 720 c 0,38,39
 881 779 881 779 863 820 c 128,-1,40
 845 861 845 861 812.5 887 c 128,-1,41
 780 913 780 913 734.5 924.5 c 128,-1,42
 689 936 689 936 635 936 c 0,43,44
 559 936 559 936 496.5 906.5 c 128,-1,45
 434 877 434 877 386 828.5 c 128,-1,46
 338 780 338 780 305 716.5 c 128,-1,47
 272 653 272 653 254 584 c 1,48,-1
 858 584 l 1,35,36
EndSplineSet
EndChar

StartChar: f
Encoding: 102 102 73
Width: 711
GlyphClass: 1
Flags: W
LayerCount: 2
Fore
SplineSet
216 0 m 1,0,-1
 83 0 l 1,1,-1
 298 936 l 1,2,-1
 107 936 l 1,3,-1
 132 1037 l 1,4,-1
 322 1037 l 1,5,-1
 368 1209 l 2,6,7
 383 1266 383 1266 414.5 1308 c 128,-1,8
 446 1350 446 1350 489 1378 c 128,-1,9
 532 1406 532 1406 584 1420 c 128,-1,10
 636 1434 636 1434 692 1434 c 0,11,12
 734 1434 734 1434 774.5 1424.5 c 128,-1,13
 815 1415 815 1415 852 1395 c 1,14,-1
 802 1300 l 1,15,16
 773 1311 773 1311 743 1318 c 128,-1,17
 713 1325 713 1325 682 1325 c 0,18,19
 615 1325 615 1325 576.5 1300 c 128,-1,20
 538 1275 538 1275 516 1234.5 c 128,-1,21
 494 1194 494 1194 482 1143 c 128,-1,22
 470 1092 470 1092 455 1039 c 1,23,-1
 764 1039 l 1,24,-1
 739 936 l 1,25,-1
 433 936 l 1,26,-1
 216 0 l 1,0,-1
EndSplineSet
EndChar

StartChar: g
Encoding: 103 103 74
Width: 1169
GlyphClass: 1
Flags: W
LayerCount: 2
Fore
SplineSet
345 -433 m 0,0,1
 290 -433 290 -433 235.5 -422.5 c 128,-1,2
 181 -412 181 -412 133.5 -389 c 128,-1,3
 86 -366 86 -366 48 -328 c 128,-1,4
 10 -290 10 -290 -12 -235 c 1,5,-1
 101 -173 l 1,6,7
 132 -253 132 -253 199 -288.5 c 128,-1,8
 266 -324 266 -324 348 -324 c 0,9,10
 423 -324 423 -324 486 -298.5 c 128,-1,11
 549 -273 549 -273 597.5 -228.5 c 128,-1,12
 646 -184 646 -184 680.5 -123.5 c 128,-1,13
 715 -63 715 -63 733 6 c 2,14,-1
 769 147 l 1,15,16
 700 71 700 71 609.5 25.5 c 128,-1,17
 519 -20 519 -20 415 -20 c 0,18,19
 331 -20 331 -20 270 8.5 c 128,-1,20
 209 37 209 37 169.5 86.5 c 128,-1,21
 130 136 130 136 111.5 203 c 128,-1,22
 93 270 93 270 93 348 c 0,23,24
 93 425 93 425 109.5 507 c 128,-1,25
 126 589 126 589 157.5 668.5 c 128,-1,26
 189 748 189 748 235.5 819 c 128,-1,27
 282 890 282 890 343 943.5 c 128,-1,28
 404 997 404 997 479 1028.5 c 128,-1,29
 554 1060 554 1060 641 1060 c 0,30,31
 740 1060 740 1060 815 1018 c 128,-1,32
 890 976 890 976 932 883 c 1,33,-1
 970 1039 l 1,34,-1
 1105 1039 l 1,35,36
 1045 786 1045 786 988.5 535 c 128,-1,37
 932 284 932 284 868 32 c 0,38,39
 841 -72 841 -72 799 -157.5 c 128,-1,40
 757 -243 757 -243 694 -304 c 128,-1,41
 631 -365 631 -365 545 -399 c 128,-1,42
 459 -433 459 -433 345 -433 c 0,0,1
445 90 m 0,43,44
 516 90 516 90 576 117.5 c 128,-1,45
 636 145 636 145 685 191.5 c 128,-1,46
 734 238 734 238 771.5 299 c 128,-1,47
 809 360 809 360 834 427 c 128,-1,48
 859 494 859 494 872 562 c 128,-1,49
 885 630 885 630 885 691 c 0,50,51
 885 745 885 745 873 792 c 128,-1,52
 861 839 861 839 834.5 873.5 c 128,-1,53
 808 908 808 908 766 928 c 128,-1,54
 724 948 724 948 665 948 c 0,55,56
 593 948 593 948 532.5 921 c 128,-1,57
 472 894 472 894 422.5 848 c 128,-1,58
 373 802 373 802 335.5 741.5 c 128,-1,59
 298 681 298 681 273 614.5 c 128,-1,60
 248 548 248 548 235 480 c 128,-1,61
 222 412 222 412 222 350 c 0,62,63
 222 295 222 295 234.5 247.5 c 128,-1,64
 247 200 247 200 273.5 165 c 128,-1,65
 300 130 300 130 342.5 110 c 128,-1,66
 385 90 385 90 445 90 c 0,43,44
EndSplineSet
EndChar

StartChar: h
Encoding: 104 104 75
Width: 1155
GlyphClass: 1
Flags: W
LayerCount: 2
Fore
SplineSet
886 0 m 1,0,-1
 752 0 l 1,1,-1
 825 314 l 2,2,3
 838 369 838 369 853 424.5 c 128,-1,4
 868 480 868 480 881.5 535.5 c 128,-1,5
 895 591 895 591 904 647.5 c 128,-1,6
 913 704 913 704 913 761 c 0,7,8
 913 843 913 843 874.5 889.5 c 128,-1,9
 836 936 836 936 750 936 c 0,10,11
 675 936 675 936 606 904 c 128,-1,12
 537 872 537 872 481 820 c 128,-1,13
 425 768 425 768 384.5 701.5 c 128,-1,14
 344 635 344 635 326 565 c 0,15,16
 288 425 288 425 258.5 283.5 c 128,-1,17
 229 142 229 142 196 0 c 1,18,-1
 67 0 l 1,19,-1
 406 1413 l 1,20,-1
 535 1413 l 1,21,-1
 391 863 l 1,22,23
 425 905 425 905 468.5 940.5 c 128,-1,24
 512 976 512 976 561 1001.5 c 128,-1,25
 610 1027 610 1027 664 1041.5 c 128,-1,26
 718 1056 718 1056 773 1056 c 0,27,28
 908 1056 908 1056 976.5 982 c 128,-1,29
 1045 908 1045 908 1045 775 c 0,30,31
 1045 740 1045 740 1041 706 c 128,-1,32
 1037 672 1037 672 1029 638 c 2,33,-1
 886 0 l 1,0,-1
EndSplineSet
EndChar

StartChar: i
Encoding: 105 105 76
Width: 484
GlyphClass: 1
Flags: W
LayerCount: 2
Fore
SplineSet
465 1230 m 1,0,-1
 335 1230 l 1,1,-1
 378 1413 l 1,2,-1
 508 1413 l 1,3,-1
 465 1230 l 1,0,-1
202 0 m 1,4,-1
 72 0 l 1,5,-1
 301 1039 l 1,6,-1
 431 1039 l 1,7,-1
 202 0 l 1,4,-1
EndSplineSet
Substitution2: "'locl' Localized Forms in Latin lookup 21-1" i.loclTRK
Substitution2: "Single Substitution lookup 2 subtable" dotlessi
Substitution2: "'aalt' Access All Alternates lookup 0 subtable" i.loclTRK
EndChar

StartChar: j
Encoding: 106 106 77
Width: 519
GlyphClass: 1
Flags: W
LayerCount: 2
Fore
SplineSet
491 1239 m 1,0,-1
 350 1239 l 1,1,-1
 394 1419 l 1,2,-1
 536 1419 l 1,3,-1
 491 1239 l 1,0,-1
-152 -439 m 0,4,5
 -190 -439 -190 -439 -227.5 -430.5 c 128,-1,6
 -265 -422 -265 -422 -300 -408 c 1,7,-1
 -252 -300 l 1,8,9
 -223 -308 -223 -308 -193.5 -311.5 c 128,-1,10
 -164 -315 -164 -315 -135 -315 c 0,11,12
 -68 -315 -68 -315 -29.5 -275 c 128,-1,13
 9 -235 9 -235 23 -173 c 2,14,-1
 306 1039 l 1,15,-1
 447 1039 l 1,16,-1
 167 -161 l 2,17,18
 153 -223 153 -223 126 -274 c 128,-1,19
 99 -325 99 -325 59.5 -362 c 128,-1,20
 20 -399 20 -399 -33 -419 c 128,-1,21
 -86 -439 -86 -439 -152 -439 c 0,4,5
EndSplineSet
Substitution2: "Single Substitution lookup 2 subtable" uni0237
EndChar

StartChar: k
Encoding: 107 107 78
Width: 1078
GlyphClass: 1
Flags: W
LayerCount: 2
Fore
SplineSet
884 0 m 1,0,-1
 729 0 l 1,1,-1
 535 556 l 1,2,-1
 244 303 l 1,3,-1
 173 0 l 1,4,-1
 40 0 l 1,5,-1
 369 1413 l 1,6,-1
 501 1413 l 1,7,-1
 281 477 l 1,8,-1
 892 1039 l 1,9,-1
 1057 1039 l 1,10,-1
 639 657 l 1,11,-1
 884 0 l 1,0,-1
EndSplineSet
EndChar

StartChar: l
Encoding: 108 108 79
Width: 522
GlyphClass: 1
Flags: W
LayerCount: 2
Fore
SplineSet
194 -20 m 0,0,1
 165 -20 165 -20 141.5 -15 c 128,-1,2
 118 -10 118 -10 101 2.5 c 128,-1,3
 84 15 84 15 75 36 c 128,-1,4
 66 57 66 57 66 89 c 0,5,6
 66 111 66 111 70.5 132 c 128,-1,7
 75 153 75 153 80 174 c 2,8,-1
 371 1413 l 1,9,-1
 506 1413 l 1,10,11
 198 130 198 130 198 126 c 0,12,13
 198 108 198 108 211 98 c 128,-1,14
 224 88 224 88 241 88 c 0,15,16
 292 88 292 88 340 103 c 1,17,-1
 320 -2 l 1,18,19
 259 -20 259 -20 194 -20 c 0,0,1
EndSplineSet
EndChar

StartChar: m
Encoding: 109 109 80
Width: 1754
GlyphClass: 1
Flags: W
LayerCount: 2
Fore
SplineSet
1487 0 m 1,0,-1
 1352 0 l 1,1,-1
 1433 345 l 2,2,3
 1444 390 1444 390 1458 444.5 c 128,-1,4
 1472 499 1472 499 1484.5 555.5 c 128,-1,5
 1497 612 1497 612 1506 666 c 128,-1,6
 1515 720 1515 720 1515 764 c 0,7,8
 1515 851 1515 851 1476 902 c 128,-1,9
 1437 953 1437 953 1345 953 c 0,10,11
 1274 953 1274 953 1213 921 c 128,-1,12
 1152 889 1152 889 1105 837.5 c 128,-1,13
 1058 786 1058 786 1025.5 722 c 128,-1,14
 993 658 993 658 978 594 c 2,15,-1
 841 0 l 1,16,-1
 707 0 l 1,17,-1
 853 633 l 2,18,19
 870 704 870 704 870 772 c 0,20,21
 870 856 870 856 832 904.5 c 128,-1,22
 794 953 794 953 705 953 c 0,23,24
 634 953 634 953 572.5 921 c 128,-1,25
 511 889 511 889 463 837.5 c 128,-1,26
 415 786 415 786 382 722 c 128,-1,27
 349 658 349 658 334 594 c 2,28,-1
 198 0 l 1,29,-1
 65 0 l 1,30,-1
 303 1039 l 1,31,-1
 437 1039 l 1,32,-1
 390 842 l 1,33,34
 415 889 415 889 449.5 928.5 c 128,-1,35
 484 968 484 968 526 996.5 c 128,-1,36
 568 1025 568 1025 617 1041.5 c 128,-1,37
 666 1058 666 1058 720 1058 c 256,38,39
 774 1058 774 1058 822.5 1045.5 c 128,-1,40
 871 1033 871 1033 908.5 1006 c 128,-1,41
 946 979 946 979 969.5 937 c 128,-1,42
 993 895 993 895 997 836 c 1,43,44
 1030 885 1030 885 1067.5 925.5 c 128,-1,45
 1105 966 1105 966 1149.5 995 c 128,-1,46
 1194 1024 1194 1024 1246 1040 c 128,-1,47
 1298 1056 1298 1056 1360 1056 c 0,48,49
 1500 1056 1500 1056 1572 982 c 128,-1,50
 1644 908 1644 908 1644 769 c 0,51,52
 1644 698 1644 698 1627 625 c 2,53,-1
 1487 0 l 1,0,-1
EndSplineSet
EndChar

StartChar: n
Encoding: 110 110 81
Width: 1151
GlyphClass: 1
Flags: W
LayerCount: 2
Fore
SplineSet
882 0 m 1,0,-1
 751 0 l 1,1,-1
 895 630 l 2,2,3
 903 662 903 662 907 693.5 c 128,-1,4
 911 725 911 725 911 757 c 0,5,6
 911 844 911 844 870.5 889 c 128,-1,7
 830 934 830 934 741 934 c 0,8,9
 669 934 669 934 603.5 905.5 c 128,-1,10
 538 877 538 877 484 829 c 128,-1,11
 430 781 430 781 390.5 719.5 c 128,-1,12
 351 658 351 658 332 592 c 0,13,14
 311 518 311 518 295.5 443.5 c 128,-1,15
 280 369 280 369 263 294 c 0,16,17
 246 220 246 220 229 147 c 128,-1,18
 212 74 212 74 196 0 c 1,19,-1
 65 0 l 1,20,-1
 303 1039 l 1,21,-1
 435 1039 l 1,22,23
 424 997 424 997 414 955 c 0,24,25
 414 954 414 954 414 954 c 1,26,-1
 413 951 l 2,27,28
 413 950 413 950 413 950 c 1,29,-1
 412 947 l 1,30,31
 412 947 412 947 412 946 c 2,32,-1
 411 943 l 1,33,34
 411 943 411 943 411 942 c 2,35,-1
 410 939 l 2,36,37
 410 938 410 938 410 937 c 2,38,-1
 409 934 l 1,39,40
 409 934 409 934 409 933 c 2,41,-1
 408 930 l 1,42,43
 408 930 408 930 408 929 c 2,44,-1
 407 927 l 2,45,46
 407 926 407 926 407 925 c 2,47,-1
 406 923 l 2,48,49
 406 921 406 921 406 920 c 2,50,-1
 405 918 l 2,51,52
 405 917 405 917 405 916 c 2,53,-1
 404 914 l 2,54,55
 404 913 404 913 404 912 c 2,56,-1
 403 910 l 2,57,58
 403 909 403 909 403 908 c 2,59,-1
 402 906 l 2,60,61
 402 905 402 905 402 903 c 2,62,-1
 401 901 l 2,63,64
 401 900 401 900 401 899 c 2,65,-1
 400 897 l 2,66,67
 400 896 400 896 400 896 c 1,68,-1
 399 893 l 2,69,70
 399 892 399 892 399 892 c 1,71,-1
 398 889 l 2,72,73
 398 888 398 888 398 887 c 2,74,-1
 397 884 l 2,75,76
 397 883 397 883 397 883 c 1,77,-1
 396 880 l 2,78,79
 396 879 396 879 396 879 c 1,80,-1
 395 876 l 1,81,82
 395 876 395 876 395 875 c 2,83,-1
 394 872 l 1,84,85
 394 872 394 872 394 871 c 1,86,87
 426 911 426 911 468 945 c 128,-1,88
 510 979 510 979 557.5 1003.5 c 128,-1,89
 605 1028 605 1028 656.5 1042 c 128,-1,90
 708 1056 708 1056 760 1056 c 0,91,92
 899 1056 899 1056 969.5 982.5 c 128,-1,93
 1040 909 1040 909 1040 772 c 0,94,95
 1040 715 1040 715 1031.5 659 c 128,-1,96
 1023 603 1023 603 1010 547.5 c 128,-1,97
 997 492 997 492 982 437 c 128,-1,98
 967 382 967 382 955 326 c 0,99,100
 937 244 937 244 920 162.5 c 128,-1,101
 903 81 903 81 882 0 c 1,0,-1
EndSplineSet
EndChar

StartChar: o
Encoding: 111 111 82
Width: 1149
GlyphClass: 1
Flags: W
LayerCount: 2
Fore
SplineSet
465 -20 m 0,0,1
 377 -20 377 -20 306.5 10 c 128,-1,2
 236 40 236 40 187 93 c 128,-1,3
 138 146 138 146 111.5 219 c 128,-1,4
 85 292 85 292 85 378 c 0,5,6
 85 459 85 459 106 540.5 c 128,-1,7
 127 622 127 622 165.5 697 c 128,-1,8
 204 772 204 772 258 836.5 c 128,-1,9
 312 901 312 901 379 949 c 128,-1,10
 446 997 446 997 524 1024.5 c 128,-1,11
 602 1052 602 1052 688 1052 c 0,12,13
 777 1052 777 1052 847.5 1021 c 128,-1,14
 918 990 918 990 967.5 935 c 128,-1,15
 1017 880 1017 880 1043.5 806.5 c 128,-1,16
 1070 733 1070 733 1070 647 c 0,17,18
 1070 567 1070 567 1048.5 486.5 c 128,-1,19
 1027 406 1027 406 988 331.5 c 128,-1,20
 949 257 949 257 894 193 c 128,-1,21
 839 129 839 129 772 81.5 c 128,-1,22
 705 34 705 34 627 7 c 128,-1,23
 549 -20 549 -20 465 -20 c 0,0,1
471 97 m 0,24,25
 543 97 543 97 605.5 121 c 128,-1,26
 668 145 668 145 719.5 187 c 128,-1,27
 771 229 771 229 811.5 285 c 128,-1,28
 852 341 852 341 879.5 404 c 128,-1,29
 907 467 907 467 921.5 534.5 c 128,-1,30
 936 602 936 602 936 667 c 0,31,32
 936 727 936 727 919.5 776 c 128,-1,33
 903 825 903 825 871 860.5 c 128,-1,34
 839 896 839 896 791.5 915 c 128,-1,35
 744 934 744 934 682 934 c 0,36,37
 612 934 612 934 550 909.5 c 128,-1,38
 488 885 488 885 436.5 843.5 c 128,-1,39
 385 802 385 802 344.5 746.5 c 128,-1,40
 304 691 304 691 276 628 c 128,-1,41
 248 565 248 565 233 498.5 c 128,-1,42
 218 432 218 432 218 368 c 0,43,44
 218 310 218 310 235 260 c 128,-1,45
 252 210 252 210 284 174 c 128,-1,46
 316 138 316 138 363 117.5 c 128,-1,47
 410 97 410 97 471 97 c 0,24,25
EndSplineSet
Substitution2: "Single Substitution lookup 3 subtable" ordmasculine
Substitution2: "Single Substitution lookup 2 subtable" ordmasculine
EndChar

StartChar: p
Encoding: 112 112 83
Width: 1167
GlyphClass: 1
Flags: W
LayerCount: 2
Fore
SplineSet
92 -439 m 1,0,-1
 -40 -439 l 1,1,2
 -5 -284 -5 -284 33 -130.5 c 128,-1,3
 71 23 71 23 106 178 c 0,4,5
 156 395 156 395 205.5 608.5 c 128,-1,6
 255 822 255 822 306 1039 c 1,7,-1
 437 1039 l 1,8,9
 426 1003 426 1003 418 966.5 c 128,-1,10
 410 930 410 930 400 894 c 1,11,12
 472 974 472 974 561 1017 c 128,-1,13
 650 1060 650 1060 759 1060 c 0,14,15
 842 1060 842 1060 902 1030.5 c 128,-1,16
 962 1001 962 1001 1001 951 c 128,-1,17
 1040 901 1040 901 1058.5 833.5 c 128,-1,18
 1077 766 1077 766 1077 690 c 0,19,20
 1077 615 1077 615 1060.5 533 c 128,-1,21
 1044 451 1044 451 1012.5 372.5 c 128,-1,22
 981 294 981 294 934.5 222.5 c 128,-1,23
 888 151 888 151 827.5 97.5 c 128,-1,24
 767 44 767 44 693.5 12 c 128,-1,25
 620 -20 620 -20 534 -20 c 0,26,27
 433 -20 433 -20 356 20.5 c 128,-1,28
 279 61 279 61 237 157 c 1,29,-1
 92 -439 l 1,0,-1
502 89 m 0,30,31
 573 89 573 89 634 116 c 128,-1,32
 695 143 695 143 745 188 c 128,-1,33
 795 233 795 233 833.5 293 c 128,-1,34
 872 353 872 353 898 419 c 128,-1,35
 924 485 924 485 937.5 553 c 128,-1,36
 951 621 951 621 951 683 c 0,37,38
 951 739 951 739 938 787.5 c 128,-1,39
 925 836 925 836 897 871.5 c 128,-1,40
 869 907 869 907 825.5 927.5 c 128,-1,41
 782 948 782 948 721 948 c 0,42,43
 651 948 651 948 591 920.5 c 128,-1,44
 531 893 531 893 482 847 c 128,-1,45
 433 801 433 801 396 740.5 c 128,-1,46
 359 680 359 680 334 614 c 128,-1,47
 309 548 309 548 296 480 c 128,-1,48
 283 412 283 412 283 352 c 0,49,50
 283 298 283 298 294.5 250 c 128,-1,51
 306 202 306 202 332 166 c 128,-1,52
 358 130 358 130 399.5 109.5 c 128,-1,53
 441 89 441 89 502 89 c 0,30,31
EndSplineSet
EndChar

StartChar: q
Encoding: 113 113 84
Width: 1161
GlyphClass: 1
Flags: W
LayerCount: 2
Fore
SplineSet
756 -439 m 1,0,-1
 622 -439 l 1,1,-1
 766 146 l 1,2,3
 728 106 728 106 688 75 c 128,-1,4
 648 44 648 44 603.5 23 c 128,-1,5
 559 2 559 2 510 -9 c 128,-1,6
 461 -20 461 -20 405 -20 c 0,7,8
 321 -20 321 -20 261.5 9.5 c 128,-1,9
 202 39 202 39 164 89.5 c 128,-1,10
 126 140 126 140 108.5 207.5 c 128,-1,11
 91 275 91 275 91 351 c 0,12,13
 91 426 91 426 107.5 507.5 c 128,-1,14
 124 589 124 589 155.5 667.5 c 128,-1,15
 187 746 187 746 233.5 817.5 c 128,-1,16
 280 889 280 889 340 942.5 c 128,-1,17
 400 996 400 996 473.5 1028 c 128,-1,18
 547 1060 547 1060 632 1060 c 0,19,20
 733 1060 733 1060 809.5 1020 c 128,-1,21
 886 980 886 980 929 885 c 1,22,-1
 969 1039 l 1,23,-1
 1101 1039 l 1,24,25
 1015 669 1015 669 930.5 299 c 128,-1,26
 846 -71 846 -71 756 -439 c 1,0,-1
440 89 m 0,27,28
 512 89 512 89 573 116.5 c 128,-1,29
 634 144 634 144 683 190 c 128,-1,30
 732 236 732 236 769 297 c 128,-1,31
 806 358 806 358 831 425 c 128,-1,32
 856 492 856 492 868.5 560.5 c 128,-1,33
 881 629 881 629 881 691 c 0,34,35
 881 745 881 745 869 792 c 128,-1,36
 857 839 857 839 831 873.5 c 128,-1,37
 805 908 805 908 763 928 c 128,-1,38
 721 948 721 948 661 948 c 0,39,40
 589 948 589 948 528 921 c 128,-1,41
 467 894 467 894 418 848 c 128,-1,42
 369 802 369 802 332 742 c 128,-1,43
 295 682 295 682 270 615.5 c 128,-1,44
 245 549 245 549 232.5 480.5 c 128,-1,45
 220 412 220 412 220 350 c 0,46,47
 220 295 220 295 231.5 247.5 c 128,-1,48
 243 200 243 200 269 165 c 128,-1,49
 295 130 295 130 337 109.5 c 128,-1,50
 379 89 379 89 440 89 c 0,27,28
EndSplineSet
EndChar

StartChar: r
Encoding: 114 114 85
Width: 834
GlyphClass: 1
Flags: W
LayerCount: 2
Fore
SplineSet
200 0 m 1,0,-1
 65 0 l 1,1,-1
 304 1039 l 1,2,-1
 440 1039 l 1,3,4
 429 984 429 984 416 930.5 c 128,-1,5
 403 877 403 877 390 823 c 1,6,7
 404 852 404 852 420.5 879 c 128,-1,8
 437 906 437 906 458 929 c 0,9,10
 482 956 482 956 516 979 c 128,-1,11
 550 1002 550 1002 588 1018.5 c 128,-1,12
 626 1035 626 1035 666 1044.5 c 128,-1,13
 706 1054 706 1054 742 1054 c 0,14,15
 782 1054 782 1054 825.5 1042.5 c 128,-1,16
 869 1031 869 1031 902 1008 c 1,17,-1
 846 906 l 1,18,19
 823 930 823 930 791 939.5 c 128,-1,20
 759 949 759 949 727 949 c 0,21,22
 648 949 648 949 583.5 909.5 c 128,-1,23
 519 870 519 870 469 809 c 128,-1,24
 419 748 419 748 384 675.5 c 128,-1,25
 349 603 349 603 328 537 c 0,26,27
 305 464 305 464 289 389.5 c 128,-1,28
 273 315 273 315 255 240 c 0,29,30
 255 239 255 239 255 238 c 2,31,-1
 253 233 l 2,32,33
 252 228 252 228 251 223 c 2,34,-1
 250 218 l 2,35,36
 249 216 249 216 249 214 c 2,37,-1
 248 209 l 2,38,39
 247 204 247 204 246 199 c 2,40,-1
 244 194 l 2,41,42
 244 192 244 192 243 190 c 2,43,-1
 242 185 l 2,44,45
 241 180 241 180 240 175 c 2,46,-1
 238 168 l 2,47,48
 238 167 238 167 238 166 c 2,49,-1
 236 161 l 2,50,51
 235 156 235 156 234 151 c 2,52,-1
 233 146 l 2,53,54
 233 144 233 144 232 142 c 2,55,-1
 231 137 l 2,56,57
 230 132 230 132 229 127 c 2,58,-1
 227 122 l 2,59,60
 227 121 227 121 227 120 c 0,61,62
 213 60 213 60 200 0 c 1,0,-1
EndSplineSet
EndChar

StartChar: s
Encoding: 115 115 86
Width: 892
GlyphClass: 1
Flags: W
LayerCount: 2
Fore
SplineSet
371 -20 m 0,0,1
 316 -20 316 -20 258 -3.5 c 128,-1,2
 200 13 200 13 151.5 45 c 128,-1,3
 103 77 103 77 69 123.5 c 128,-1,4
 35 170 35 170 28 230 c 1,5,-1
 152 280 l 1,6,7
 160 234 160 234 181 200 c 128,-1,8
 202 166 202 166 233.5 143.5 c 128,-1,9
 265 121 265 121 304.5 110 c 128,-1,10
 344 99 344 99 388 99 c 256,11,12
 432 99 432 99 476 113.5 c 128,-1,13
 520 128 520 128 554.5 155 c 128,-1,14
 589 182 589 182 610.5 221 c 128,-1,15
 632 260 632 260 632 308 c 0,16,17
 632 352 632 352 612 381 c 128,-1,18
 592 410 592 410 559.5 430 c 128,-1,19
 527 450 527 450 485.5 464.5 c 128,-1,20
 444 479 444 479 401 493.5 c 128,-1,21
 358 508 358 508 316.5 527 c 128,-1,22
 275 546 275 546 242.5 574.5 c 128,-1,23
 210 603 210 603 190 645 c 128,-1,24
 170 687 170 687 170 749 c 0,25,26
 170 823 170 823 197.5 880 c 128,-1,27
 225 937 225 937 271.5 975.5 c 128,-1,28
 318 1014 318 1014 380 1034 c 128,-1,29
 442 1054 442 1054 512 1054 c 0,30,31
 561 1054 561 1054 610.5 1041 c 128,-1,32
 660 1028 660 1028 703.5 1003 c 128,-1,33
 747 978 747 978 780.5 941 c 128,-1,34
 814 904 814 904 831 856 c 1,35,-1
 720 807 l 1,36,37
 708 844 708 844 686.5 869.5 c 128,-1,38
 665 895 665 895 636 910.5 c 128,-1,39
 607 926 607 926 573 933 c 128,-1,40
 539 940 539 940 503 940 c 0,41,42
 461 940 461 940 422 930 c 128,-1,43
 383 920 383 920 353 898.5 c 128,-1,44
 323 877 323 877 305.5 843.5 c 128,-1,45
 288 810 288 810 288 763 c 0,46,47
 288 725 288 725 299.5 701 c 128,-1,48
 311 677 311 677 330.5 661.5 c 128,-1,49
 350 646 350 646 377.5 636.5 c 128,-1,50
 405 627 405 627 436 617 c 0,51,52
 494 599 494 599 552 576.5 c 128,-1,53
 610 554 610 554 656.5 520 c 128,-1,54
 703 486 703 486 732 436.5 c 128,-1,55
 761 387 761 387 761 315 c 0,56,57
 761 242 761 242 725.5 180.5 c 128,-1,58
 690 119 690 119 633.5 74.5 c 128,-1,59
 577 30 577 30 508 5 c 128,-1,60
 439 -20 439 -20 371 -20 c 0,0,1
EndSplineSet
Substitution2: "'hist' Historical Forms lookup 18 subtable" longs
Substitution2: "'aalt' Access All Alternates lookup 0 subtable" longs
EndChar

StartChar: t
Encoding: 116 116 87
Width: 676
GlyphClass: 1
Flags: W
LayerCount: 2
Fore
SplineSet
344 -21 m 0,0,1
 249 -21 249 -21 197 22.5 c 128,-1,2
 145 66 145 66 145 165 c 0,3,4
 145 194 145 194 149 223 c 128,-1,5
 153 252 153 252 159 281 c 2,6,-1
 231 607 l 2,7,8
 249 690 249 690 267.5 771.5 c 128,-1,9
 286 853 286 853 305 936 c 1,10,-1
 148 936 l 1,11,-1
 171 1039 l 1,12,-1
 329 1039 l 1,13,-1
 381 1235 l 1,14,-1
 547 1350 l 1,15,-1
 464 1039 l 1,16,-1
 729 1039 l 1,17,-1
 706 936 l 1,18,-1
 440 936 l 1,19,20
 410 808 410 808 382.5 680.5 c 128,-1,21
 355 553 355 553 323 425 c 0,22,23
 316 396 316 396 307.5 366.5 c 128,-1,24
 299 337 299 337 292 307.5 c 128,-1,25
 285 278 285 278 280 248 c 128,-1,26
 275 218 275 218 275 187 c 0,27,28
 275 138 275 138 296.5 109.5 c 128,-1,29
 318 81 318 81 370 81 c 0,30,31
 398 81 398 81 425 88.5 c 128,-1,32
 452 96 452 96 478 106 c 1,33,-1
 462 -4 l 1,34,35
 433 -13 433 -13 403.5 -17 c 128,-1,36
 374 -21 374 -21 344 -21 c 0,0,1
EndSplineSet
EndChar

StartChar: u
Encoding: 117 117 88
Width: 1147
GlyphClass: 1
Flags: W
LayerCount: 2
Fore
SplineSet
398 -23 m 0,0,1
 257 -23 257 -23 188.5 54.5 c 128,-1,2
 120 132 120 132 120 269 c 0,3,4
 120 310 120 310 125 349.5 c 128,-1,5
 130 389 130 389 139 428 c 2,6,-1
 275 1039 l 1,7,-1
 406 1039 l 1,8,-1
 262 403 l 2,9,10
 254 368 254 368 249 333 c 128,-1,11
 244 298 244 298 244 263 c 0,12,13
 244 223 244 223 252 189.5 c 128,-1,14
 260 156 260 156 278.5 132 c 128,-1,15
 297 108 297 108 327 95 c 128,-1,16
 357 82 357 82 401 82 c 0,17,18
 476 82 476 82 544.5 112.5 c 128,-1,19
 613 143 613 143 667 195 c 0,20,21
 722 248 722 248 760.5 311.5 c 128,-1,22
 799 375 799 375 826.5 445.5 c 128,-1,23
 854 516 854 516 872.5 591 c 128,-1,24
 891 666 891 666 905.5 742.5 c 128,-1,25
 920 819 920 819 932.5 894 c 128,-1,26
 945 969 945 969 961 1039 c 1,27,-1
 1090 1039 l 1,28,-1
 852 0 l 1,29,-1
 722 0 l 1,30,-1
 767 185 l 1,31,32
 739 140 739 140 697.5 102 c 128,-1,33
 656 64 656 64 607.5 36.5 c 128,-1,34
 559 9 559 9 505 -7 c 128,-1,35
 451 -23 451 -23 398 -23 c 0,0,1
EndSplineSet
EndChar

StartChar: v
Encoding: 118 118 89
Width: 984
GlyphClass: 1
Flags: W
LayerCount: 2
Fore
SplineSet
435 0 m 1,0,-1
 314 0 l 1,1,-1
 174 1039 l 1,2,-1
 316 1039 l 1,3,-1
 410 170 l 1,4,-1
 912 1039 l 1,5,-1
 1056 1039 l 1,6,-1
 435 0 l 1,0,-1
EndSplineSet
EndChar

StartChar: w
Encoding: 119 119 90
Width: 1462
GlyphClass: 1
Flags: W
LayerCount: 2
Fore
SplineSet
356 -1 m 1,0,-1
 226 -1 l 1,1,-1
 184 1039 l 1,2,-1
 318 1039 l 1,3,-1
 340 182 l 1,4,-1
 788 1039 l 1,5,-1
 914 1039 l 1,6,-1
 964 184 l 1,7,-1
 1381 1039 l 1,8,-1
 1524 1039 l 1,9,-1
 999 0 l 1,10,-1
 865 0 l 1,11,-1
 814 862 l 1,12,-1
 356 -1 l 1,0,-1
EndSplineSet
EndChar

StartChar: x
Encoding: 120 120 91
Width: 950
GlyphClass: 1
Flags: W
LayerCount: 2
Fore
SplineSet
772 0 m 1,0,-1
 615 0 l 1,1,-1
 455 423 l 1,2,-1
 94 0 l 1,3,-1
 -72 0 l 1,4,-1
 407 536 l 1,5,-1
 184 1039 l 1,6,-1
 341 1039 l 1,7,-1
 498 643 l 1,8,-1
 843 1039 l 1,9,-1
 1003 1039 l 1,10,-1
 547 531 l 1,11,-1
 772 0 l 1,0,-1
EndSplineSet
EndChar

StartChar: y
Encoding: 121 121 92
Width: 1017
GlyphClass: 1
Flags: W
LayerCount: 2
Fore
SplineSet
192 -431 m 1,0,-1
 51 -431 l 1,1,-1
 332 11 l 1,2,-1
 174 1039 l 1,3,-1
 319 1039 l 1,4,-1
 428 168 l 1,5,-1
 938 1039 l 1,6,-1
 1084 1039 l 1,7,-1
 192 -431 l 1,0,-1
EndSplineSet
EndChar

StartChar: z
Encoding: 122 122 93
Width: 964
GlyphClass: 1
Flags: W
LayerCount: 2
Fore
SplineSet
755 0 m 1,0,-1
 -42 0 l 1,1,-1
 -20 100 l 1,2,-1
 817 936 l 1,3,-1
 204 936 l 1,4,-1
 227 1039 l 1,5,-1
 993 1039 l 1,6,-1
 969 928 l 1,7,-1
 146 109 l 1,8,-1
 781 109 l 1,9,-1
 755 0 l 1,0,-1
EndSplineSet
EndChar

StartChar: braceleft
Encoding: 123 123 94
Width: 602
GlyphClass: 1
Flags: W
LayerCount: 2
Fore
SplineSet
345 -114 m 2,0,-1
 340 -114 l 2,1,2
 339 -114 339 -114 337 -114 c 2,3,-1
 330 -114 l 2,4,5
 329 -114 329 -114 328 -114 c 2,6,-1
 298 -114 l 2,7,8
 297 -114 297 -114 295 -114 c 2,9,-1
 289 -114 l 2,10,11
 260 -114 260 -114 233.5 -107.5 c 128,-1,12
 207 -101 207 -101 185.5 -85.5 c 128,-1,13
 164 -70 164 -70 152 -40 c 0,14,15
 148 -29 148 -29 143.5 -21 c 128,-1,16
 139 -13 139 -13 135.5 -5 c 128,-1,17
 132 3 132 3 130 12 c 128,-1,18
 128 21 128 21 128 34 c 0,19,20
 128 52 128 52 131 70 c 128,-1,21
 134 88 134 88 138 106 c 2,22,-1
 198 375 l 2,23,24
 204 404 204 404 214.5 436 c 128,-1,25
 225 468 225 468 225 497 c 0,26,27
 225 518 225 518 215.5 533.5 c 128,-1,28
 206 549 206 549 191 561 c 128,-1,29
 176 573 176 573 158.5 581.5 c 128,-1,30
 141 590 141 590 125 597 c 1,31,-1
 137 701 l 1,32,33
 201 715 201 715 249 755 c 128,-1,34
 297 795 297 795 312 861 c 2,35,-1
 361 1076 l 2,36,37
 370 1114 370 1114 380 1166.5 c 128,-1,38
 390 1219 390 1219 405 1272.5 c 128,-1,39
 420 1326 420 1326 441 1372.5 c 128,-1,40
 462 1419 462 1419 493 1444 c 0,41,42
 511 1458 511 1458 532.5 1467 c 128,-1,43
 554 1476 554 1476 577.5 1481 c 128,-1,44
 601 1486 601 1486 625 1488 c 128,-1,45
 649 1490 649 1490 671 1490 c 2,46,-1
 743 1489 l 1,47,-1
 738 1418 l 1,48,49
 727 1420 727 1420 716.5 1420.5 c 128,-1,50
 706 1421 706 1421 695 1421 c 0,51,52
 674 1421 674 1421 649.5 1418 c 128,-1,53
 625 1415 625 1415 603.5 1406.5 c 128,-1,54
 582 1398 582 1398 565 1383 c 128,-1,55
 548 1368 548 1368 542 1344 c 0,56,57
 522 1267 522 1267 505.5 1190 c 128,-1,58
 489 1113 489 1113 472 1035 c 0,59,60
 467 1012 467 1012 459 975 c 128,-1,61
 451 938 451 938 441.5 899 c 128,-1,62
 432 860 432 860 422 825.5 c 128,-1,63
 412 791 412 791 401 773 c 0,64,65
 386 747 386 747 361.5 725.5 c 128,-1,66
 337 704 337 704 307.5 687 c 128,-1,67
 278 670 278 670 246.5 657 c 128,-1,68
 215 644 215 644 188 635 c 1,69,70
 214 625 214 625 241.5 613.5 c 128,-1,71
 269 602 269 602 291.5 585 c 128,-1,72
 314 568 314 568 328.5 544 c 128,-1,73
 343 520 343 520 343 487 c 0,74,75
 343 481 343 481 340 466.5 c 128,-1,76
 337 452 337 452 332.5 435.5 c 128,-1,77
 328 419 328 419 324 403.5 c 128,-1,78
 320 388 320 388 318 380 c 2,79,-1
 299 294 l 2,80,81
 293 265 293 265 284 233.5 c 128,-1,82
 275 202 275 202 266.5 169.5 c 128,-1,83
 258 137 258 137 252.5 105 c 128,-1,84
 247 73 247 73 247 44 c 0,85,86
 247 -7 247 -7 274 -27 c 128,-1,87
 301 -47 301 -47 349 -47 c 0,88,89
 370 -47 370 -47 392 -39 c 1,90,-1
 392 -55 l 2,91,92
 392 -56 392 -56 392 -57 c 2,93,94
 392 -57 392 -57 392 -58 c 2,95,96
 392 -58 392 -58 392 -59 c 2,97,-1
 392 -72 l 2,98,99
 392 -82 392 -82 388.5 -92 c 128,-1,100
 385 -102 385 -102 375.5 -108 c 128,-1,101
 366 -114 366 -114 345 -114 c 2,0,-1
EndSplineSet
EndChar

StartChar: bar
Encoding: 124 124 95
Width: 630
GlyphClass: 1
Flags: W
LayerCount: 2
Fore
SplineSet
127 -513 m 1,0,-1
 35 -513 l 1,1,-1
 508 1534 l 1,2,-1
 601 1534 l 1,3,-1
 127 -513 l 1,0,-1
EndSplineSet
EndChar

StartChar: braceright
Encoding: 125 125 96
Width: 602
GlyphClass: 1
Flags: W
LayerCount: 2
Fore
SplineSet
24 -114 m 2,0,-1
 -55 -113 l 1,1,-1
 -50 -43 l 1,2,3
 -39 -47 -39 -47 -24 -47 c 0,4,5
 56 -47 56 -47 103 -4.5 c 128,-1,6
 150 38 150 38 167 114 c 2,7,-1
 251 479 l 2,8,9
 260 517 260 517 284 544 c 128,-1,10
 308 571 308 571 340 589.5 c 128,-1,11
 372 608 372 608 408.5 621 c 128,-1,12
 445 634 445 634 478 644 c 1,13,14
 451 655 451 655 424.5 669 c 128,-1,15
 398 683 398 683 376.5 702 c 128,-1,16
 355 721 355 721 342 746 c 128,-1,17
 329 771 329 771 329 804 c 0,18,19
 329 855 329 855 343.5 910 c 128,-1,20
 358 965 358 965 372 1013 c 0,21,22
 391 1081 391 1081 406.5 1149 c 128,-1,23
 422 1217 422 1217 437 1286 c 0,24,25
 442 1308 442 1308 448 1329.5 c 128,-1,26
 454 1351 454 1351 454 1374 c 2,27,-1
 454 1377 l 1,28,29
 450 1385 450 1385 449 1390.5 c 128,-1,30
 448 1396 448 1396 440 1403 c 0,31,32
 425 1414 425 1414 405.5 1417 c 128,-1,33
 386 1420 386 1420 367 1420 c 0,34,35
 350 1420 350 1420 332.5 1419.5 c 128,-1,36
 315 1419 315 1419 298 1416 c 1,37,-1
 303 1488 l 1,38,-1
 395 1488 l 2,39,40
 430 1488 430 1488 460.5 1481.5 c 128,-1,41
 491 1475 491 1475 514 1459.5 c 128,-1,42
 537 1444 537 1444 550.5 1417.5 c 128,-1,43
 564 1391 564 1391 564 1351 c 0,44,45
 564 1333 564 1333 561 1315 c 128,-1,46
 558 1297 558 1297 554 1279 c 2,47,-1
 458 862 l 2,48,49
 455 848 455 848 452 833.5 c 128,-1,50
 449 819 449 819 449 804 c 0,51,52
 449 757 449 757 476 732.5 c 128,-1,53
 503 708 503 708 545 697 c 1,54,-1
 532 592 l 1,55,56
 510 585 510 585 483.5 573.5 c 128,-1,57
 457 562 457 562 433 546 c 128,-1,58
 409 530 409 530 390.5 509 c 128,-1,59
 372 488 372 488 366 463 c 2,60,-1
 322 279 l 2,61,62
 307 214 307 214 294 148.5 c 128,-1,63
 281 83 281 83 260 20 c 0,64,65
 255 6 255 6 246.5 -15 c 128,-1,66
 238 -36 238 -36 227 -47 c 0,67,68
 184 -88 184 -88 132.5 -101 c 128,-1,69
 81 -114 81 -114 24 -114 c 2,0,-1
EndSplineSet
EndChar

StartChar: asciitilde
Encoding: 126 126 97
Width: 1171
GlyphClass: 1
Flags: W
LayerCount: 2
Fore
SplineSet
744 380 m 0,0,1
 707 380 707 380 675.5 394 c 128,-1,2
 644 408 644 408 616.5 428.5 c 128,-1,3
 589 449 589 449 564 473.5 c 128,-1,4
 539 498 539 498 514 518.5 c 128,-1,5
 489 539 489 539 463.5 553 c 128,-1,6
 438 567 438 567 410 567 c 0,7,8
 376 567 376 567 355.5 552 c 128,-1,9
 335 537 335 537 324 513.5 c 128,-1,10
 313 490 313 490 309 462 c 128,-1,11
 305 434 305 434 305 407 c 1,12,-1
 223 407 l 1,13,14
 223 451 223 451 233 494 c 128,-1,15
 243 537 243 537 265 571.5 c 128,-1,16
 287 606 287 606 322 627.5 c 128,-1,17
 357 649 357 649 408 649 c 0,18,19
 455 649 455 649 489.5 635.5 c 128,-1,20
 524 622 524 622 551.5 601.5 c 128,-1,21
 579 581 579 581 601.5 557.5 c 128,-1,22
 624 534 624 534 646.5 513.5 c 128,-1,23
 669 493 669 493 694 479.5 c 128,-1,24
 719 466 719 466 751 466 c 0,25,26
 787 466 787 466 808.5 483 c 128,-1,27
 830 500 830 500 841.5 526.5 c 128,-1,28
 853 553 853 553 856 584 c 128,-1,29
 859 615 859 615 859 643 c 1,30,-1
 950 643 l 1,31,32
 950 592 950 592 939.5 545 c 128,-1,33
 929 498 929 498 905 461 c 128,-1,34
 881 424 881 424 841.5 402 c 128,-1,35
 802 380 802 380 744 380 c 0,0,1
EndSplineSet
EndChar

StartChar: exclamdown
Encoding: 161 161 99
Width: 636
GlyphClass: 1
Flags: W
LayerCount: 2
Fore
SplineSet
480 822 m 1,0,-1
 301 822 l 1,1,-1
 342 998 l 1,2,-1
 520 998 l 1,3,-1
 480 822 l 1,0,-1
177 -437 m 1,4,-1
 23 -437 l 1,5,-1
 298 627 l 1,6,-1
 395 627 l 1,7,-1
 177 -437 l 1,4,-1
EndSplineSet
EndChar

StartChar: cent
Encoding: 162 162 100
Width: 1152
GlyphClass: 1
Flags: W
LayerCount: 2
Fore
SplineSet
494 -206 m 1,0,-1
 399 -206 l 1,1,-1
 451 -15 l 1,2,3
 376 -7 376 -7 322 24 c 128,-1,4
 268 55 268 55 233 103 c 128,-1,5
 198 151 198 151 181.5 213.5 c 128,-1,6
 165 276 165 276 165 346 c 0,7,8
 165 420 165 420 181 495.5 c 128,-1,9
 197 571 197 571 227.5 641.5 c 128,-1,10
 258 712 258 712 302.5 775.5 c 128,-1,11
 347 839 347 839 403.5 888 c 128,-1,12
 460 937 460 937 528.5 969.5 c 128,-1,13
 597 1002 597 1002 676 1011 c 1,14,-1
 725 1199 l 1,15,-1
 818 1199 l 1,16,-1
 769 1011 l 1,17,18
 822 1004 822 1004 868.5 983 c 128,-1,19
 915 962 915 962 951.5 929 c 128,-1,20
 988 896 988 896 1013.5 852 c 128,-1,21
 1039 808 1039 808 1050 755 c 1,22,-1
 912 712 l 1,23,24
 910 753 910 753 893.5 786 c 128,-1,25
 877 819 877 819 850 841.5 c 128,-1,26
 823 864 823 864 788 876 c 128,-1,27
 753 888 753 888 713 888 c 0,28,29
 648 888 648 888 592 863.5 c 128,-1,30
 536 839 536 839 490.5 798 c 128,-1,31
 445 757 445 757 410 702.5 c 128,-1,32
 375 648 375 648 351 587.5 c 128,-1,33
 327 527 327 527 315 465 c 128,-1,34
 303 403 303 403 303 346 c 0,35,36
 303 294 303 294 314 250 c 128,-1,37
 325 206 325 206 349.5 174 c 128,-1,38
 374 142 374 142 413.5 124 c 128,-1,39
 453 106 453 106 510 106 c 0,40,41
 556 106 556 106 601 120.5 c 128,-1,42
 646 135 646 135 686 160 c 128,-1,43
 726 185 726 185 758.5 219.5 c 128,-1,44
 791 254 791 254 812 294 c 1,45,-1
 921 231 l 1,46,47
 857 123 857 123 762.5 58.5 c 128,-1,48
 668 -6 668 -6 541 -17 c 1,49,-1
 494 -206 l 1,0,-1
EndSplineSet
EndChar

StartChar: sterling
Encoding: 163 163 101
Width: 1255
GlyphClass: 1
Flags: W
LayerCount: 2
Fore
SplineSet
1066 0 m 1,0,-1
 56 0 l 1,1,2
 61 23 61 23 65.5 46 c 128,-1,3
 70 69 70 69 77 92 c 1,4,5
 157 147 157 147 221.5 202 c 128,-1,6
 286 257 286 257 331 322.5 c 128,-1,7
 376 388 376 388 400.5 467 c 128,-1,8
 425 546 425 546 425 649 c 1,9,-1
 205 649 l 1,10,-1
 232 758 l 1,11,-1
 425 758 l 1,12,13
 419 788 419 788 416.5 818 c 128,-1,14
 414 848 414 848 414 879 c 0,15,16
 414 981 414 981 444.5 1079.5 c 128,-1,17
 475 1178 475 1178 534.5 1256 c 128,-1,18
 594 1334 594 1334 680.5 1382 c 128,-1,19
 767 1430 767 1430 878 1430 c 0,20,21
 941 1430 941 1430 997 1409 c 128,-1,22
 1053 1388 1053 1388 1096.5 1350.5 c 128,-1,23
 1140 1313 1140 1313 1168.5 1261 c 128,-1,24
 1197 1209 1197 1209 1206 1146 c 1,25,26
 1183 1139 1183 1139 1161 1133.5 c 128,-1,27
 1139 1128 1139 1128 1116 1123 c 1,28,-1
 1115 1122 l 1,29,-1
 1094 1117 l 1,30,31
 1088 1162 1088 1162 1069 1198.5 c 128,-1,32
 1050 1235 1050 1235 1021 1261 c 128,-1,33
 992 1287 992 1287 953 1301 c 128,-1,34
 914 1315 914 1315 869 1315 c 0,35,36
 810 1315 810 1315 761 1296 c 128,-1,37
 712 1277 712 1277 673.5 1243.5 c 128,-1,38
 635 1210 635 1210 607 1165.5 c 128,-1,39
 579 1121 579 1121 560.5 1071 c 128,-1,40
 542 1021 542 1021 533 967.5 c 128,-1,41
 524 914 524 914 524 862 c 0,42,43
 524 836 524 836 525 810 c 128,-1,44
 526 784 526 784 531 758 c 1,45,-1
 1006 758 l 1,46,-1
 980 649 l 1,47,-1
 534 649 l 1,48,49
 534 559 534 559 519.5 482.5 c 128,-1,50
 505 406 505 406 472.5 340.5 c 128,-1,51
 440 275 440 275 387.5 218.5 c 128,-1,52
 335 162 335 162 258 111 c 1,53,-1
 1093 115 l 1,54,-1
 1066 0 l 1,0,-1
EndSplineSet
EndChar

StartChar: currency
Encoding: 164 164 102
Width: 1124
GlyphClass: 1
Flags: W
LayerCount: 2
Fore
SplineSet
862 175 m 1,0,-1
 782 275 l 1,1,2
 719 234 719 234 649.5 210.5 c 128,-1,3
 580 187 580 187 505 187 c 0,4,5
 432 187 432 187 368 210 c 128,-1,6
 304 233 304 233 251 284 c 1,7,-1
 120 175 l 1,8,9
 118 178 118 178 107.5 192 c 128,-1,10
 97 206 97 206 85 221.5 c 128,-1,11
 73 237 73 237 63 250 c 128,-1,12
 53 263 53 263 52 263 c 1,13,-1
 186 370 l 1,14,15
 164 410 164 410 153.5 454.5 c 128,-1,16
 143 499 143 499 143 544 c 0,17,18
 143 647 143 647 185.5 738 c 128,-1,19
 228 829 228 829 303 899 c 1,20,-1
 225 995 l 1,21,-1
 325 1085 l 1,22,-1
 403 983 l 1,23,24
 466 1025 466 1025 537.5 1049 c 128,-1,25
 609 1073 609 1073 685 1073 c 0,26,27
 757 1073 757 1073 819.5 1050 c 128,-1,28
 882 1027 882 1027 935 977 c 1,29,-1
 1064 1083 l 1,30,-1
 1131 1000 l 1,31,-1
 1004 894 l 1,32,33
 1025 854 1025 854 1035.5 810 c 128,-1,34
 1046 766 1046 766 1046 721 c 0,35,36
 1046 670 1046 670 1034 620.5 c 128,-1,37
 1022 571 1022 571 1000.5 525 c 128,-1,38
 979 479 979 479 949.5 437 c 128,-1,39
 920 395 920 395 885 359 c 1,40,-1
 963 263 l 1,41,-1
 862 175 l 1,0,-1
499 305 m 0,42,43
 576 305 576 305 653 340 c 128,-1,44
 730 375 730 375 791.5 432.5 c 128,-1,45
 853 490 853 490 891.5 564 c 128,-1,46
 930 638 930 638 930 717 c 0,47,48
 930 771 930 771 911.5 814.5 c 128,-1,49
 893 858 893 858 860 889 c 128,-1,50
 827 920 827 920 782 936.5 c 128,-1,51
 737 953 737 953 684 953 c 0,52,53
 632 953 632 953 580 936.5 c 128,-1,54
 528 920 528 920 480.5 891.5 c 128,-1,55
 433 863 433 863 392 823.5 c 128,-1,56
 351 784 351 784 320.5 737.5 c 128,-1,57
 290 691 290 691 272.5 639.5 c 128,-1,58
 255 588 255 588 255 536 c 0,59,60
 255 482 255 482 273.5 439.5 c 128,-1,61
 292 397 292 397 325 367 c 128,-1,62
 358 337 358 337 402.5 321 c 128,-1,63
 447 305 447 305 499 305 c 0,42,43
EndSplineSet
EndChar

StartChar: yen
Encoding: 165 165 103
Width: 1317
GlyphClass: 1
Flags: W
LayerCount: 2
Fore
SplineSet
608 0 m 1,0,-1
 480 0 l 1,1,-1
 553 318 l 1,2,-1
 253 318 l 1,3,-1
 276 418 l 1,4,-1
 576 418 l 1,5,-1
 605 540 l 1,6,-1
 305 540 l 1,7,-1
 328 639 l 1,8,-1
 582 639 l 1,9,-1
 284 1413 l 1,10,-1
 428 1413 l 1,11,-1
 703 703 l 1,12,-1
 1309 1413 l 1,13,-1
 1458 1413 l 1,14,-1
 804 641 l 1,15,-1
 1057 641 l 1,16,-1
 1034 540 l 1,17,-1
 732 540 l 1,18,-1
 703 418 l 1,19,-1
 1005 418 l 1,20,-1
 982 318 l 1,21,-1
 680 318 l 1,22,-1
 608 0 l 1,0,-1
EndSplineSet
EndChar

StartChar: brokenbar
Encoding: 166 166 104
Width: 622
GlyphClass: 1
Flags: W
LayerCount: 2
Fore
SplineSet
407 732 m 1,0,-1
 322 732 l 1,1,-1
 494 1475 l 1,2,-1
 579 1475 l 1,3,-1
 407 732 l 1,0,-1
167 -308 m 1,4,-1
 82 -308 l 1,5,-1
 249 418 l 1,6,-1
 335 418 l 1,7,-1
 167 -308 l 1,4,-1
EndSplineSet
EndChar

StartChar: section
Encoding: 167 167 105
Width: 1138
GlyphClass: 1
Flags: W
LayerCount: 2
Fore
SplineSet
466 -18 m 0,0,1
 396 -18 396 -18 335 -1.5 c 128,-1,2
 274 15 274 15 227.5 49.5 c 128,-1,3
 181 84 181 84 152.5 138 c 128,-1,4
 124 192 124 192 119 267 c 1,5,-1
 242 295 l 1,6,7
 242 239 242 239 258.5 201 c 128,-1,8
 275 163 275 163 305 139.5 c 128,-1,9
 335 116 335 116 377.5 106 c 128,-1,10
 420 96 420 96 471 96 c 0,11,12
 517 96 517 96 562 104 c 128,-1,13
 607 112 607 112 646.5 131 c 128,-1,14
 686 150 686 150 716.5 181.5 c 128,-1,15
 747 213 747 213 764 260 c 0,16,17
 769 274 769 274 772 288 c 128,-1,18
 775 302 775 302 775 316 c 0,19,20
 775 354 775 354 748 378 c 128,-1,21
 721 402 721 402 678.5 418 c 128,-1,22
 636 434 636 434 583.5 445.5 c 128,-1,23
 531 457 531 457 480.5 469.5 c 128,-1,24
 430 482 430 482 386.5 499.5 c 128,-1,25
 343 517 343 517 318 544 c 1,26,-1
 320 543 l 1,27,28
 268 595 268 595 268 669 c 0,29,30
 268 712 268 712 281 753 c 128,-1,31
 294 794 294 794 316.5 830.5 c 128,-1,32
 339 867 339 867 369 898.5 c 128,-1,33
 399 930 399 930 433 954 c 1,34,35
 398 979 398 979 383 1018 c 128,-1,36
 368 1057 368 1057 368 1099 c 0,37,38
 368 1175 368 1175 404.5 1236.5 c 128,-1,39
 441 1298 441 1298 499 1342 c 128,-1,40
 557 1386 557 1386 628 1410 c 128,-1,41
 699 1434 699 1434 768 1434 c 0,42,43
 902 1434 902 1434 981.5 1369 c 128,-1,44
 1061 1304 1061 1304 1081 1170 c 1,45,-1
 958 1151 l 1,46,47
 952 1241 952 1241 899.5 1280 c 128,-1,48
 847 1319 847 1319 761 1319 c 0,49,50
 715 1319 715 1319 665.5 1304 c 128,-1,51
 616 1289 616 1289 575 1260.5 c 128,-1,52
 534 1232 534 1232 507.5 1191.5 c 128,-1,53
 481 1151 481 1151 481 1099 c 0,54,55
 481 1060 481 1060 512 1037 c 128,-1,56
 543 1014 543 1014 590.5 998.5 c 128,-1,57
 638 983 638 983 696.5 971.5 c 128,-1,58
 755 960 755 960 809.5 943.5 c 128,-1,59
 864 927 864 927 908 902 c 128,-1,60
 952 877 952 877 972 834 c 0,61,62
 981 814 981 814 984.5 792 c 128,-1,63
 988 770 988 770 988 748 c 0,64,65
 988 706 988 706 976 665 c 128,-1,66
 964 624 964 624 943 587 c 128,-1,67
 922 550 922 550 893 518.5 c 128,-1,68
 864 487 864 487 829 464 c 1,69,70
 861 437 861 437 875.5 401.5 c 128,-1,71
 890 366 890 366 890 324 c 0,72,73
 890 239 890 239 852.5 174.5 c 128,-1,74
 815 110 815 110 754.5 67.5 c 128,-1,75
 694 25 694 25 618 3.5 c 128,-1,76
 542 -18 542 -18 466 -18 c 0,0,1
699 522 m 1,77,78
 735 536 735 536 766.5 557.5 c 128,-1,79
 798 579 798 579 822 607.5 c 128,-1,80
 846 636 846 636 859.5 671 c 128,-1,81
 873 706 873 706 873 746 c 0,82,83
 873 772 873 772 860.5 792 c 128,-1,84
 848 812 848 812 827 827.5 c 128,-1,85
 806 843 806 843 780 854 c 128,-1,86
 754 865 754 865 726.5 872.5 c 128,-1,87
 699 880 699 880 673.5 885 c 128,-1,88
 648 890 648 890 628 893 c 0,89,90
 613 895 613 895 597.5 897.5 c 128,-1,91
 582 900 582 900 568 905 c 1,92,93
 535 892 535 892 502.5 871.5 c 128,-1,94
 470 851 470 851 443.5 823 c 128,-1,95
 417 795 417 795 400.5 761.5 c 128,-1,96
 384 728 384 728 384 690 c 0,97,98
 384 656 384 656 401 632.5 c 128,-1,99
 418 609 418 609 445.5 593 c 128,-1,100
 473 577 473 577 507.5 567 c 128,-1,101
 542 557 542 557 577 550 c 128,-1,102
 612 543 612 543 644 536.5 c 128,-1,103
 676 530 676 530 699 522 c 1,77,78
EndSplineSet
EndChar

StartChar: dieresis
Encoding: 168 168 106
Width: 834
GlyphClass: 1
Flags: W
LayerCount: 2
Fore
SplineSet
490 1230 m 1,0,-1
 332 1230 l 1,1,-1
 374 1413 l 1,2,-1
 533 1413 l 1,3,-1
 490 1230 l 1,0,-1
823 1230 m 1,4,-1
 665 1230 l 1,5,-1
 707 1413 l 1,6,-1
 865 1413 l 1,7,-1
 823 1230 l 1,4,-1
EndSplineSet
EndChar

StartChar: copyright
Encoding: 169 169 107
Width: 1809
GlyphClass: 1
Flags: W
LayerCount: 2
Fore
SplineSet
951 -51 m 0,0,1
 847 -51 847 -51 751.5 -23.5 c 128,-1,2
 656 4 656 4 573.5 54 c 128,-1,3
 491 104 491 104 423 174 c 128,-1,4
 355 244 355 244 307 328 c 128,-1,5
 259 412 259 412 232.5 508 c 128,-1,6
 206 604 206 604 206 707 c 0,7,8
 206 809 206 809 232.5 905 c 128,-1,9
 259 1001 259 1001 307.5 1085 c 128,-1,10
 356 1169 356 1169 424 1239 c 128,-1,11
 492 1309 492 1309 574.5 1359 c 128,-1,12
 657 1409 657 1409 752.5 1436.5 c 128,-1,13
 848 1464 848 1464 951 1464 c 256,14,15
 1054 1464 1054 1464 1149 1436 c 128,-1,16
 1244 1408 1244 1408 1327 1358 c 128,-1,17
 1410 1308 1410 1308 1478 1238 c 128,-1,18
 1546 1168 1546 1168 1594.5 1084 c 128,-1,19
 1643 1000 1643 1000 1670 904.5 c 128,-1,20
 1697 809 1697 809 1697 707 c 0,21,22
 1697 604 1697 604 1670.5 508 c 128,-1,23
 1644 412 1644 412 1595.5 328 c 128,-1,24
 1547 244 1547 244 1479 174 c 128,-1,25
 1411 104 1411 104 1328.5 54 c 128,-1,26
 1246 4 1246 4 1150 -23.5 c 128,-1,27
 1054 -51 1054 -51 951 -51 c 0,0,1
951 51 m 256,28,29
 1039 51 1039 51 1121 75.5 c 128,-1,30
 1203 100 1203 100 1274.5 144 c 128,-1,31
 1346 188 1346 188 1404.5 248.5 c 128,-1,32
 1463 309 1463 309 1505.5 382 c 128,-1,33
 1548 455 1548 455 1571 537.5 c 128,-1,34
 1594 620 1594 620 1594 707 c 256,35,36
 1594 794 1594 794 1570.5 876 c 128,-1,37
 1547 958 1547 958 1504.5 1030.5 c 128,-1,38
 1462 1103 1462 1103 1403 1164 c 128,-1,39
 1344 1225 1344 1225 1272.5 1268.5 c 128,-1,40
 1201 1312 1201 1312 1119.5 1336.5 c 128,-1,41
 1038 1361 1038 1361 951 1361 c 0,42,43
 863 1361 863 1361 781 1336.5 c 128,-1,44
 699 1312 699 1312 627.5 1268.5 c 128,-1,45
 556 1225 556 1225 497.5 1164.5 c 128,-1,46
 439 1104 439 1104 396.5 1031.5 c 128,-1,47
 354 959 354 959 331 876.5 c 128,-1,48
 308 794 308 794 308 707 c 256,49,50
 308 620 308 620 331 537.5 c 128,-1,51
 354 455 354 455 396.5 382 c 128,-1,52
 439 309 439 309 497.5 248.5 c 128,-1,53
 556 188 556 188 627.5 144 c 128,-1,54
 699 100 699 100 781 75.5 c 128,-1,55
 863 51 863 51 951 51 c 256,28,29
968 308 m 0,56,57
 880 308 880 308 815.5 339.5 c 128,-1,58
 751 371 751 371 708 425.5 c 128,-1,59
 665 480 665 480 644 552 c 128,-1,60
 623 624 623 624 623 705 c 0,61,62
 623 785 623 785 644.5 857 c 128,-1,63
 666 929 666 929 709 983 c 128,-1,64
 752 1037 752 1037 816.5 1069 c 128,-1,65
 881 1101 881 1101 968 1101 c 0,66,67
 1015 1101 1015 1101 1059 1089 c 128,-1,68
 1103 1077 1103 1077 1141.5 1054.5 c 128,-1,69
 1180 1032 1180 1032 1211.5 999 c 128,-1,70
 1243 966 1243 966 1264 924 c 1,71,-1
 1171 885 l 1,72,73
 1140 942 1140 942 1085.5 970.5 c 128,-1,74
 1031 999 1031 999 968 999 c 256,75,76
 905 999 905 999 858.5 974.5 c 128,-1,77
 812 950 812 950 781.5 909.5 c 128,-1,78
 751 869 751 869 736.5 815.5 c 128,-1,79
 722 762 722 762 722 705 c 256,80,81
 722 648 722 648 736 594.5 c 128,-1,82
 750 541 750 541 780 500.5 c 128,-1,83
 810 460 810 460 856 435.5 c 128,-1,84
 902 411 902 411 966 411 c 0,85,86
 996 411 996 411 1027 418.5 c 128,-1,87
 1058 426 1058 426 1085 440.5 c 128,-1,88
 1112 455 1112 455 1134 477 c 128,-1,89
 1156 499 1156 499 1169 527 c 1,90,-1
 1264 487 l 1,91,92
 1222 399 1222 399 1143 353.5 c 128,-1,93
 1064 308 1064 308 968 308 c 0,56,57
EndSplineSet
EndChar

StartChar: ordfeminine
Encoding: 170 170 108
Width: 1018
GlyphClass: 2
Flags: W
LayerCount: 2
Fore
SplineSet
484 710 m 0,0,1
 445 710 445 710 410.5 721 c 128,-1,2
 376 732 376 732 349.5 753.5 c 128,-1,3
 323 775 323 775 307.5 806.5 c 128,-1,4
 292 838 292 838 292 879 c 0,5,6
 292 946 292 946 317.5 992 c 128,-1,7
 343 1038 343 1038 385 1066.5 c 128,-1,8
 427 1095 427 1095 481.5 1108.5 c 128,-1,9
 536 1122 536 1122 595 1124 c 2,10,-1
 819 1131 l 1,11,12
 824 1154 824 1154 827.5 1176.5 c 128,-1,13
 831 1199 831 1199 831 1222 c 0,14,15
 831 1286 831 1286 798 1316.5 c 128,-1,16
 765 1347 765 1347 702 1347 c 0,17,18
 674 1347 674 1347 643.5 1338.5 c 128,-1,19
 613 1330 613 1330 584.5 1315.5 c 128,-1,20
 556 1301 556 1301 531 1281.5 c 128,-1,21
 506 1262 506 1262 488 1240 c 1,22,-1
 411 1303 l 1,23,24
 474 1368 474 1368 543.5 1401 c 128,-1,25
 613 1434 613 1434 704 1434 c 0,26,27
 752 1434 752 1434 793.5 1421.5 c 128,-1,28
 835 1409 835 1409 865.5 1383.5 c 128,-1,29
 896 1358 896 1358 913.5 1319.5 c 128,-1,30
 931 1281 931 1281 931 1230 c 0,31,32
 931 1209 931 1209 928.5 1188.5 c 128,-1,33
 926 1168 926 1168 921 1148 c 2,34,-1
 822 724 l 1,35,-1
 735 724 l 1,36,-1
 761 845 l 1,37,38
 730 811 730 811 700.5 785.5 c 128,-1,39
 671 760 671 760 638.5 743.5 c 128,-1,40
 606 727 606 727 568.5 718.5 c 128,-1,41
 531 710 531 710 484 710 c 0,0,1
509 801 m 0,42,43
 557 801 557 801 604 822 c 128,-1,44
 651 843 651 843 690.5 877 c 128,-1,45
 730 911 730 911 759 955 c 128,-1,46
 788 999 788 999 799 1044 c 1,47,48
 781 1042 781 1042 762 1042 c 2,49,-1
 758 1042 l 2,50,51
 757 1042 757 1042 757 1042 c 1,52,-1
 755 1042 l 1,53,54
 755 1042 755 1042 754 1042 c 2,55,-1
 746 1042 l 2,56,57
 745 1042 745 1042 745 1042 c 1,58,-1
 722 1042 l 2,59,60
 681 1042 681 1042 638 1041 c 128,-1,61
 595 1040 595 1040 555.5 1032 c 128,-1,62
 516 1024 516 1024 482.5 1005 c 128,-1,63
 449 986 449 986 425 950 c 0,64,65
 405 919 405 919 405 884 c 0,66,67
 405 863 405 863 414.5 847.5 c 128,-1,68
 424 832 424 832 439 821.5 c 128,-1,69
 454 811 454 811 472.5 806 c 128,-1,70
 491 801 491 801 509 801 c 0,42,43
EndSplineSet
EndChar

StartChar: guillemotleft
Encoding: 171 171 109
Width: 978
GlyphClass: 1
Flags: W
LayerCount: 2
Fore
SplineSet
368 194 m 1,0,-1
 85 511 l 1,1,-1
 511 827 l 1,2,-1
 480 680 l 1,3,-1
 242 512 l 1,4,-1
 398 342 l 1,5,-1
 368 194 l 1,0,-1
733 193 m 1,6,-1
 449 511 l 1,7,-1
 876 827 l 1,8,-1
 845 680 l 1,9,-1
 606 512 l 1,10,-1
 764 342 l 1,11,-1
 733 193 l 1,6,-1
EndSplineSet
EndChar

StartChar: logicalnot
Encoding: 172 172 110
Width: 1293
GlyphClass: 1
Flags: W
LayerCount: 2
Fore
SplineSet
1027 291 m 1,0,-1
 908 291 l 1,1,-1
 908 681 l 1,2,-1
 165 681 l 1,3,-1
 165 795 l 1,4,-1
 1027 795 l 1,5,-1
 1027 291 l 1,0,-1
EndSplineSet
EndChar

StartChar: uni00AD
Encoding: 173 173 111
Width: 979
GlyphClass: 1
Flags: W
LayerCount: 2
Fore
SplineSet
831 594 m 1,0,-1
 191 594 l 1,1,-1
 214 690 l 1,2,-1
 854 690 l 1,3,-1
 831 594 l 1,0,-1
EndSplineSet
EndChar

StartChar: registered
Encoding: 174 174 112
Width: 1809
GlyphClass: 1
Flags: W
LayerCount: 2
Fore
SplineSet
953 -49 m 0,0,1
 849 -49 849 -49 753.5 -21.5 c 128,-1,2
 658 6 658 6 575.5 56 c 128,-1,3
 493 106 493 106 425 176 c 128,-1,4
 357 246 357 246 309 330 c 128,-1,5
 261 414 261 414 234.5 510 c 128,-1,6
 208 606 208 606 208 709 c 0,7,8
 208 811 208 811 234.5 907 c 128,-1,9
 261 1003 261 1003 309.5 1087 c 128,-1,10
 358 1171 358 1171 426 1241 c 128,-1,11
 494 1311 494 1311 577 1361 c 128,-1,12
 660 1411 660 1411 755 1438.5 c 128,-1,13
 850 1466 850 1466 953 1466 c 256,14,15
 1056 1466 1056 1466 1151 1438.5 c 128,-1,16
 1246 1411 1246 1411 1329 1360.5 c 128,-1,17
 1412 1310 1412 1310 1480 1240.5 c 128,-1,18
 1548 1171 1548 1171 1597 1086.5 c 128,-1,19
 1646 1002 1646 1002 1672.5 906.5 c 128,-1,20
 1699 811 1699 811 1699 709 c 256,21,22
 1699 607 1699 607 1672.5 511 c 128,-1,23
 1646 415 1646 415 1597.5 330.5 c 128,-1,24
 1549 246 1549 246 1481 176.5 c 128,-1,25
 1413 107 1413 107 1330 56.5 c 128,-1,26
 1247 6 1247 6 1151.5 -21.5 c 128,-1,27
 1056 -49 1056 -49 953 -49 c 0,0,1
953 45 m 256,28,29
 1043 45 1043 45 1126 69.5 c 128,-1,30
 1209 94 1209 94 1281.5 138 c 128,-1,31
 1354 182 1354 182 1413.5 243.5 c 128,-1,32
 1473 305 1473 305 1515 378.5 c 128,-1,33
 1557 452 1557 452 1580.5 536 c 128,-1,34
 1604 620 1604 620 1604 709 c 0,35,36
 1604 797 1604 797 1580.5 880.5 c 128,-1,37
 1557 964 1557 964 1514.5 1037.5 c 128,-1,38
 1472 1111 1472 1111 1412 1172.5 c 128,-1,39
 1352 1234 1352 1234 1280 1278.5 c 128,-1,40
 1208 1323 1208 1323 1125 1347.5 c 128,-1,41
 1042 1372 1042 1372 953 1372 c 256,42,43
 864 1372 864 1372 780.5 1347.5 c 128,-1,44
 697 1323 697 1323 624.5 1279 c 128,-1,45
 552 1235 552 1235 492.5 1173.5 c 128,-1,46
 433 1112 433 1112 390.5 1038.5 c 128,-1,47
 348 965 348 965 324.5 881.5 c 128,-1,48
 301 798 301 798 301 709 c 256,49,50
 301 620 301 620 324.5 536.5 c 128,-1,51
 348 453 348 453 390.5 379 c 128,-1,52
 433 305 433 305 492.5 243.5 c 128,-1,53
 552 182 552 182 624.5 138 c 128,-1,54
 697 94 697 94 780 69.5 c 128,-1,55
 863 45 863 45 953 45 c 256,28,29
1294 307 m 1,56,-1
 1169 307 l 1,57,-1
 990 645 l 1,58,-1
 817 645 l 1,59,-1
 817 307 l 1,60,-1
 710 307 l 1,61,-1
 710 1096 l 1,62,-1
 1008 1096 l 2,63,64
 1066 1096 1066 1096 1113 1083.5 c 128,-1,65
 1160 1071 1160 1071 1193.5 1044 c 128,-1,66
 1227 1017 1227 1017 1245 973.5 c 128,-1,67
 1263 930 1263 930 1263 868 c 0,68,69
 1263 781 1263 781 1221 724 c 128,-1,70
 1179 667 1179 667 1091 653 c 1,71,-1
 1294 307 l 1,56,-1
1008 739 m 2,72,73
 1041 739 1041 739 1070 745 c 128,-1,74
 1099 751 1099 751 1120.5 766 c 128,-1,75
 1142 781 1142 781 1154.5 806 c 128,-1,76
 1167 831 1167 831 1167 868 c 0,77,78
 1167 906 1167 906 1155 931.5 c 128,-1,79
 1143 957 1143 957 1121.5 972 c 128,-1,80
 1100 987 1100 987 1071 993 c 128,-1,81
 1042 999 1042 999 1008 999 c 2,82,-1
 807 999 l 1,83,-1
 807 739 l 1,84,-1
 1008 739 l 2,72,73
EndSplineSet
EndChar

StartChar: macron
Encoding: 175 175 113
Width: 877
GlyphClass: 1
Flags: W
LayerCount: 2
Fore
SplineSet
976 1193 m 1,0,-1
 441 1193 l 1,1,-1
 469 1312 l 1,2,-1
 1004 1312 l 1,3,-1
 976 1193 l 1,0,-1
EndSplineSet
EndChar

StartChar: degree
Encoding: 176 176 114
Width: 1002
GlyphClass: 1
Flags: W
LayerCount: 2
Fore
SplineSet
501 847 m 0,0,1
 440 847 440 847 386 870 c 128,-1,2
 332 893 332 893 292 933 c 128,-1,3
 252 973 252 973 229 1027 c 128,-1,4
 206 1081 206 1081 206 1142 c 0,5,6
 206 1202 206 1202 229.5 1255.5 c 128,-1,7
 253 1309 253 1309 293.5 1349 c 128,-1,8
 334 1389 334 1389 387.5 1412.5 c 128,-1,9
 441 1436 441 1436 501 1436 c 256,10,11
 561 1436 561 1436 614 1412.5 c 128,-1,12
 667 1389 667 1389 707 1348.5 c 128,-1,13
 747 1308 747 1308 770.5 1255 c 128,-1,14
 794 1202 794 1202 794 1142 c 256,15,16
 794 1082 794 1082 771 1028.5 c 128,-1,17
 748 975 748 975 708 934.5 c 128,-1,18
 668 894 668 894 614.5 870.5 c 128,-1,19
 561 847 561 847 501 847 c 0,0,1
501 928 m 0,20,21
 545 928 545 928 583.5 945 c 128,-1,22
 622 962 622 962 650.5 991.5 c 128,-1,23
 679 1021 679 1021 695.5 1060 c 128,-1,24
 712 1099 712 1099 712 1142 c 256,25,26
 712 1185 712 1185 695 1223.5 c 128,-1,27
 678 1262 678 1262 649 1291.5 c 128,-1,28
 620 1321 620 1321 582 1338 c 128,-1,29
 544 1355 544 1355 501 1355 c 256,30,31
 458 1355 458 1355 419 1338 c 128,-1,32
 380 1321 380 1321 351 1292 c 128,-1,33
 322 1263 322 1263 305 1224.5 c 128,-1,34
 288 1186 288 1186 288 1142 c 0,35,36
 288 1097 288 1097 304.5 1058 c 128,-1,37
 321 1019 321 1019 349.5 990 c 128,-1,38
 378 961 378 961 417 944.5 c 128,-1,39
 456 928 456 928 501 928 c 0,20,21
EndSplineSet
EndChar

StartChar: plusminus
Encoding: 177 177 115
Width: 1328
GlyphClass: 1
Flags: W
LayerCount: 2
Fore
SplineSet
712 106 m 1,0,-1
 615 106 l 1,1,-1
 615 578 l 1,2,-1
 158 578 l 1,3,-1
 158 674 l 1,4,-1
 615 674 l 1,5,-1
 615 1142 l 1,6,-1
 712 1142 l 1,7,-1
 712 674 l 1,8,-1
 1170 674 l 1,9,-1
 1170 578 l 1,10,-1
 712 578 l 1,11,-1
 712 106 l 1,0,-1
1169 -100 m 1,12,-1
 158 -100 l 1,13,-1
 158 -3 l 1,14,-1
 1169 -3 l 1,15,-1
 1169 -100 l 1,12,-1
EndSplineSet
EndChar

StartChar: twosuperior
Encoding: 178 178 116
Width: 816
GlyphClass: 2
Flags: W
LayerCount: 2
Fore
SplineSet
616 488 m 1,0,-1
 -25 488 l 1,1,-1
 -6 582 l 1,2,3
 93 636 93 636 184.5 697 c 128,-1,4
 276 758 276 758 361 832 c 0,5,6
 405 870 405 870 454 913.5 c 128,-1,7
 503 957 503 957 544.5 1007 c 128,-1,8
 586 1057 586 1057 613.5 1113 c 128,-1,9
 641 1169 641 1169 641 1232 c 0,10,11
 641 1296 641 1296 605.5 1327.5 c 128,-1,12
 570 1359 570 1359 507 1359 c 0,13,14
 456 1359 456 1359 415 1339.5 c 128,-1,15
 374 1320 374 1320 342.5 1288 c 128,-1,16
 311 1256 311 1256 289 1214 c 128,-1,17
 267 1172 267 1172 255 1127 c 1,18,-1
 170 1141 l 1,19,20
 185 1204 185 1204 215.5 1260 c 128,-1,21
 246 1316 246 1316 290.5 1357.5 c 128,-1,22
 335 1399 335 1399 392.5 1423 c 128,-1,23
 450 1447 450 1447 518 1447 c 0,24,25
 565 1447 565 1447 606 1435.5 c 128,-1,26
 647 1424 647 1424 678 1400 c 128,-1,27
 709 1376 709 1376 726.5 1339 c 128,-1,28
 744 1302 744 1302 744 1251 c 0,29,30
 744 1183 744 1183 721 1125 c 128,-1,31
 698 1067 698 1067 659 1013 c 0,32,33
 616 953 616 953 549.5 889 c 128,-1,34
 483 825 483 825 408 765 c 128,-1,35
 333 705 333 705 255.5 654 c 128,-1,36
 178 603 178 603 112 569 c 1,37,-1
 634 570 l 1,38,-1
 616 488 l 1,0,-1
EndSplineSet
EndChar

StartChar: threesuperior
Encoding: 179 179 117
Width: 841
GlyphClass: 2
Flags: W
LayerCount: 2
Fore
SplineSet
303 471 m 0,0,1
 254 471 254 471 206 482.5 c 128,-1,2
 158 494 158 494 120.5 518.5 c 128,-1,3
 83 543 83 543 60 582.5 c 128,-1,4
 37 622 37 622 37 679 c 0,5,6
 37 697 37 697 39.5 715 c 128,-1,7
 42 733 42 733 46 751 c 1,8,9
 69 753 69 753 91.5 753 c 128,-1,10
 114 753 114 753 137 755 c 1,11,12
 131 731 131 731 131 705 c 0,13,14
 131 667 131 667 147 639 c 128,-1,15
 163 611 163 611 189 592.5 c 128,-1,16
 215 574 215 574 248 565 c 128,-1,17
 281 556 281 556 315 556 c 0,18,19
 368 556 368 556 419.5 574 c 128,-1,20
 471 592 471 592 511 625 c 128,-1,21
 551 658 551 658 575.5 704.5 c 128,-1,22
 600 751 600 751 600 808 c 0,23,24
 600 843 600 843 586 868.5 c 128,-1,25
 572 894 572 894 548.5 911 c 128,-1,26
 525 928 525 928 495.5 936.5 c 128,-1,27
 466 945 466 945 435 945 c 2,28,-1
 365 945 l 1,29,-1
 384 1035 l 1,30,31
 415 1035 415 1035 445.5 1035.5 c 128,-1,32
 476 1036 476 1036 506 1045 c 0,33,34
 538 1054 538 1054 564.5 1074 c 128,-1,35
 591 1094 591 1094 610.5 1120 c 128,-1,36
 630 1146 630 1146 641 1177.5 c 128,-1,37
 652 1209 652 1209 652 1242 c 0,38,39
 652 1272 652 1272 640 1294.5 c 128,-1,40
 628 1317 628 1317 608.5 1332 c 128,-1,41
 589 1347 589 1347 563.5 1355 c 128,-1,42
 538 1363 538 1363 511 1363 c 0,43,44
 474 1363 474 1363 436.5 1350.5 c 128,-1,45
 399 1338 399 1338 368 1315.5 c 128,-1,46
 337 1293 337 1293 314 1262 c 128,-1,47
 291 1231 291 1231 282 1193 c 1,48,-1
 203 1209 l 1,49,50
 217 1265 217 1265 248 1310 c 128,-1,51
 279 1355 279 1355 321.5 1386.5 c 128,-1,52
 364 1418 364 1418 416 1434.5 c 128,-1,53
 468 1451 468 1451 525 1451 c 0,54,55
 567 1451 567 1451 607 1439.5 c 128,-1,56
 647 1428 647 1428 678 1404.5 c 128,-1,57
 709 1381 709 1381 727.5 1346.5 c 128,-1,58
 746 1312 746 1312 746 1265 c 0,59,60
 746 1220 746 1220 732.5 1179.5 c 128,-1,61
 719 1139 719 1139 695 1104.5 c 128,-1,62
 671 1070 671 1070 637.5 1042.5 c 128,-1,63
 604 1015 604 1015 565 996 c 1,64,65
 689 951 689 951 689 819 c 0,66,67
 689 739 689 739 657 674.5 c 128,-1,68
 625 610 625 610 571.5 565 c 128,-1,69
 518 520 518 520 448 495.5 c 128,-1,70
 378 471 378 471 303 471 c 0,0,1
EndSplineSet
EndChar

StartChar: acute
Encoding: 180 180 118
Width: 537
GlyphClass: 1
Flags: W
LayerCount: 2
Fore
SplineSet
342 1126 m 1,0,-1
 217 1126 l 1,1,-1
 497 1413 l 1,2,-1
 676 1413 l 1,3,-1
 342 1126 l 1,0,-1
EndSplineSet
EndChar

StartChar: uni00B5
Encoding: 181 181 119
Width: 1353
GlyphClass: 1
Flags: W
LayerCount: 2
Fore
SplineSet
220 -267 m 1,0,-1
 96 -267 l 1,1,-1
 399 1039 l 1,2,-1
 543 1039 l 1,3,-1
 400 406 l 2,4,5
 392 372 392 372 386.5 339 c 128,-1,6
 381 306 381 306 381 271 c 0,7,8
 381 186 381 186 420.5 144 c 128,-1,9
 460 102 460 102 546 102 c 0,10,11
 613 102 613 102 678.5 132 c 128,-1,12
 744 162 744 162 799.5 210.5 c 128,-1,13
 855 259 855 259 894.5 320.5 c 128,-1,14
 934 382 934 382 949 445 c 2,15,-1
 1086 1039 l 1,16,-1
 1232 1039 l 1,17,-1
 993 0 l 1,18,-1
 847 0 l 1,19,-1
 894 189 l 1,20,21
 866 145 866 145 823.5 106 c 128,-1,22
 781 67 781 67 731 38.5 c 128,-1,23
 681 10 681 10 626 -6.5 c 128,-1,24
 571 -23 571 -23 518 -23 c 0,25,26
 464 -23 464 -23 414 -9 c 128,-1,27
 364 5 364 5 320 37 c 1,28,29
 295 -39 295 -39 269.5 -114.5 c 128,-1,30
 244 -190 244 -190 220 -267 c 1,0,-1
EndSplineSet
EndChar

StartChar: paragraph
Encoding: 182 182 120
Width: 1380
GlyphClass: 1
Flags: W
LayerCount: 2
Fore
SplineSet
546 -247 m 1,0,-1
 420 -247 l 1,1,-1
 627 624 l 1,2,3
 557 624 557 624 489.5 643 c 128,-1,4
 422 662 422 662 368.5 701 c 128,-1,5
 315 740 315 740 282.5 798 c 128,-1,6
 250 856 250 856 250 934 c 0,7,8
 250 1042 250 1042 297.5 1130.5 c 128,-1,9
 345 1219 345 1219 422 1282 c 128,-1,10
 499 1345 499 1345 597 1379 c 128,-1,11
 695 1413 695 1413 796 1413 c 2,12,-1
 929 1413 l 1,13,14
 881 1211 881 1211 835.5 1010.5 c 128,-1,15
 790 810 790 810 743 608 c 0,16,17
 693 393 693 393 643 181 c 128,-1,18
 593 -31 593 -31 546 -247 c 1,0,-1
918 -247 m 1,19,-1
 792 -247 l 1,20,21
 889 170 889 170 984 583 c 128,-1,22
 1079 996 1079 996 1176 1413 c 1,23,-1
 1301 1413 l 1,24,-1
 1119 621 l 2,25,26
 1068 403 1068 403 1019.5 187 c 128,-1,27
 971 -29 971 -29 918 -247 c 1,19,-1
EndSplineSet
EndChar

StartChar: periodcentered
Encoding: 183 183 121
Width: 659
GlyphClass: 1
Flags: W
LayerCount: 2
Fore
SplineSet
388 710 m 0,0,1
 343 710 343 710 314.5 737.5 c 128,-1,2
 286 765 286 765 286 810 c 0,3,4
 286 838 286 838 296.5 863 c 128,-1,5
 307 888 307 888 325.5 906.5 c 128,-1,6
 344 925 344 925 369 936 c 128,-1,7
 394 947 394 947 422 947 c 0,8,9
 467 947 467 947 496 920 c 128,-1,10
 525 893 525 893 525 847 c 0,11,12
 525 820 525 820 513.5 795 c 128,-1,13
 502 770 502 770 483.5 751.5 c 128,-1,14
 465 733 465 733 440 721.5 c 128,-1,15
 415 710 415 710 388 710 c 0,0,1
EndSplineSet
EndChar

StartChar: cedilla
Encoding: 184 184 122
Width: 565
GlyphClass: 4
Flags: W
AnchorPoint: "Anchor-3" 37 -500 basemark 0
LayerCount: 2
Fore
SplineSet
48 -502 m 0,0,1
 20 -502 20 -502 -6.5 -493 c 128,-1,2
 -33 -484 -33 -484 -55 -467.5 c 128,-1,3
 -77 -451 -77 -451 -92 -427.5 c 128,-1,4
 -107 -404 -107 -404 -111 -375 c 1,5,-1
 -14 -339 l 1,6,7
 -14 -371 -14 -371 3.5 -390 c 128,-1,8
 21 -409 21 -409 54 -409 c 0,9,10
 80 -409 80 -409 105.5 -398 c 128,-1,11
 131 -387 131 -387 151 -368.5 c 128,-1,12
 171 -350 171 -350 184 -325.5 c 128,-1,13
 197 -301 197 -301 197 -275 c 0,14,15
 197 -238 197 -238 176 -218 c 128,-1,16
 155 -198 155 -198 124.5 -189 c 128,-1,17
 94 -180 94 -180 60 -179 c 128,-1,18
 26 -178 26 -178 0 -178 c 1,19,20
 30 -133 30 -133 62.5 -90 c 128,-1,21
 95 -47 95 -47 127 -3 c 1,22,-1
 241 -3 l 1,23,24
 215 -32 215 -32 189.5 -62.5 c 128,-1,25
 164 -93 164 -93 138 -123 c 1,26,27
 171 -124 171 -124 199.5 -132.5 c 128,-1,28
 228 -141 228 -141 249 -158.5 c 128,-1,29
 270 -176 270 -176 281.5 -202 c 128,-1,30
 293 -228 293 -228 293 -264 c 0,31,32
 293 -311 293 -311 272 -354 c 128,-1,33
 251 -397 251 -397 217 -430 c 128,-1,34
 183 -463 183 -463 139 -482.5 c 128,-1,35
 95 -502 95 -502 48 -502 c 0,0,1
EndSplineSet
EndChar

StartChar: onesuperior
Encoding: 185 185 123
Width: 925
GlyphClass: 2
Flags: W
LayerCount: 2
Fore
SplineSet
468 488 m 1,0,-1
 369 488 l 1,1,-1
 546 1216 l 1,2,-1
 299 1216 l 1,3,-1
 325 1298 l 1,4,-1
 424 1297 l 2,5,6
 500 1297 500 1297 544 1327 c 128,-1,7
 588 1357 588 1357 604 1434 c 1,8,-1
 700 1434 l 1,9,-1
 468 488 l 1,0,-1
EndSplineSet
EndChar

StartChar: ordmasculine
Encoding: 186 186 124
Width: 973
GlyphClass: 2
Flags: W
LayerCount: 2
Fore
SplineSet
547 712 m 0,0,1
 484 712 484 712 434 732.5 c 128,-1,2
 384 753 384 753 348.5 789.5 c 128,-1,3
 313 826 313 826 294.5 877.5 c 128,-1,4
 276 929 276 929 276 991 c 0,5,6
 276 1075 276 1075 308.5 1154.5 c 128,-1,7
 341 1234 341 1234 397.5 1296 c 128,-1,8
 454 1358 454 1358 530 1396 c 128,-1,9
 606 1434 606 1434 692 1434 c 0,10,11
 754 1434 754 1434 803.5 1413.5 c 128,-1,12
 853 1393 853 1393 888 1356 c 128,-1,13
 923 1319 923 1319 942 1268 c 128,-1,14
 961 1217 961 1217 961 1157 c 0,15,16
 961 1073 961 1073 929 993 c 128,-1,17
 897 913 897 913 841.5 850.5 c 128,-1,18
 786 788 786 788 710 750 c 128,-1,19
 634 712 634 712 547 712 c 0,0,1
549 811 m 0,20,21
 620 811 620 811 675 844 c 128,-1,22
 730 877 730 877 768 929.5 c 128,-1,23
 806 982 806 982 826 1047 c 128,-1,24
 846 1112 846 1112 846 1175 c 0,25,26
 846 1251 846 1251 808 1293.5 c 128,-1,27
 770 1336 770 1336 692 1336 c 0,28,29
 620 1336 620 1336 564 1303.5 c 128,-1,30
 508 1271 508 1271 469.5 1218.5 c 128,-1,31
 431 1166 431 1166 411 1101 c 128,-1,32
 391 1036 391 1036 391 971 c 0,33,34
 391 893 391 893 431 852 c 128,-1,35
 471 811 471 811 549 811 c 0,20,21
EndSplineSet
EndChar

StartChar: guillemotright
Encoding: 187 187 125
Width: 978
GlyphClass: 1
Flags: W
LayerCount: 2
Fore
SplineSet
103 194 m 1,0,-1
 133 341 l 1,1,-1
 372 511 l 1,2,-1
 216 679 l 1,3,-1
 246 827 l 1,4,-1
 528 512 l 1,5,6
 422 431 422 431 316 352 c 128,-1,7
 210 273 210 273 103 194 c 1,0,-1
466 194 m 1,8,-1
 497 341 l 1,9,-1
 735 511 l 1,10,-1
 579 679 l 1,11,-1
 609 827 l 1,12,-1
 894 512 l 1,13,14
 787 431 787 431 681 351.5 c 128,-1,15
 575 272 575 272 466 194 c 1,8,-1
EndSplineSet
EndChar

StartChar: questiondown
Encoding: 191 191 126
Width: 1039
GlyphClass: 1
Flags: W
LayerCount: 2
Fore
SplineSet
686 822 m 1,0,-1
 508 822 l 1,1,-1
 549 998 l 1,2,-1
 728 998 l 1,3,-1
 686 822 l 1,0,-1
328 -435 m 0,4,5
 262 -435 262 -435 200.5 -420 c 128,-1,6
 139 -405 139 -405 91 -372 c 128,-1,7
 43 -339 43 -339 14 -286.5 c 128,-1,8
 -15 -234 -15 -234 -15 -160 c 0,9,10
 -15 -115 -15 -115 -5.5 -70.5 c 128,-1,11
 4 -26 4 -26 24 16 c 0,12,13
 50 69 50 69 84.5 105 c 128,-1,14
 119 141 119 141 157 166.5 c 128,-1,15
 195 192 195 192 234.5 211 c 128,-1,16
 274 230 274 230 309.5 248.5 c 128,-1,17
 345 267 345 267 375 289.5 c 128,-1,18
 405 312 405 312 423 345 c 0,19,20
 436 368 436 368 442 396 c 2,21,-1
 497 631 l 1,22,-1
 616 631 l 1,23,-1
 589 509 l 2,24,25
 582 477 582 477 574.5 441.5 c 128,-1,26
 567 406 567 406 556.5 371.5 c 128,-1,27
 546 337 546 337 531 305 c 128,-1,28
 516 273 516 273 493 248 c 0,29,30
 466 219 466 219 435 199 c 128,-1,31
 404 179 404 179 371.5 162.5 c 128,-1,32
 339 146 339 146 306 130.5 c 128,-1,33
 273 115 273 115 242.5 94.5 c 128,-1,34
 212 74 212 74 185 45.5 c 128,-1,35
 158 17 158 17 137 -26 c 0,36,37
 107 -88 107 -88 107 -156 c 0,38,39
 107 -204 107 -204 126 -235.5 c 128,-1,40
 145 -267 145 -267 176 -285.5 c 128,-1,41
 207 -304 207 -304 246.5 -312 c 128,-1,42
 286 -320 286 -320 326 -320 c 0,43,44
 385 -320 385 -320 441 -301.5 c 128,-1,45
 497 -283 497 -283 543 -249.5 c 128,-1,46
 589 -216 589 -216 623 -168.5 c 128,-1,47
 657 -121 657 -121 673 -63 c 1,48,-1
 796 -76 l 1,49,50
 775 -157 775 -157 730.5 -223.5 c 128,-1,51
 686 -290 686 -290 624.5 -337 c 128,-1,52
 563 -384 563 -384 487.5 -409.5 c 128,-1,53
 412 -435 412 -435 328 -435 c 0,4,5
EndSplineSet
EndChar

StartChar: Aring
Encoding: 197 197 132
Width: 1313
GlyphClass: 1
Flags: W
LayerCount: 2
Fore
SplineSet
1114 0 m 1,0,-1
 983 0 l 1,1,-1
 946 307 l 1,2,-1
 295 307 l 1,3,-1
 116 0 l 1,4,-1
 -35 0 l 1,5,-1
 776 1342 l 1,6,7
 734 1364 734 1364 714 1402 c 128,-1,8
 694 1440 694 1440 694 1486 c 256,9,10
 694 1532 694 1532 713 1574 c 128,-1,11
 732 1616 732 1616 764 1648.5 c 128,-1,12
 796 1681 796 1681 838 1700.5 c 128,-1,13
 880 1720 880 1720 926 1720 c 0,14,15
 960 1720 960 1720 990.5 1708 c 128,-1,16
 1021 1696 1021 1696 1043.5 1674.5 c 128,-1,17
 1066 1653 1066 1653 1079.5 1623.5 c 128,-1,18
 1093 1594 1093 1594 1093 1559 c 0,19,20
 1093 1523 1093 1523 1081 1489.5 c 128,-1,21
 1069 1456 1069 1456 1048 1427.5 c 128,-1,22
 1027 1399 1027 1399 998 1377 c 128,-1,23
 969 1355 969 1355 936 1343 c 1,24,-1
 1114 0 l 1,0,-1
866 1420 m 0,25,26
 891 1420 891 1420 914.5 1430.5 c 128,-1,27
 938 1441 938 1441 956 1459 c 128,-1,28
 974 1477 974 1477 985 1500.5 c 128,-1,29
 996 1524 996 1524 996 1549 c 0,30,31
 996 1584 996 1584 972.5 1603.5 c 128,-1,32
 949 1623 949 1623 915 1623 c 0,33,34
 890 1623 890 1623 867 1613 c 128,-1,35
 844 1603 844 1603 826 1585.5 c 128,-1,36
 808 1568 808 1568 797.5 1545.5 c 128,-1,37
 787 1523 787 1523 787 1497 c 0,38,39
 787 1462 787 1462 809 1441 c 128,-1,40
 831 1420 831 1420 866 1420 c 0,25,26
929 435 m 1,41,-1
 837 1232 l 1,42,-1
 369 435 l 1,43,-1
 929 435 l 1,41,-1
EndSplineSet
Position2: "'cpsp' Capital Spacing lookup 0 per glyph data 0" dx=5 dy=0 dh=10 dv=0
EndChar

StartChar: AE
Encoding: 198 198 133
Width: 1823
GlyphClass: 1
Flags: W
LayerCount: 2
Fore
SplineSet
1590 0 m 1,0,-1
 704 0 l 1,1,-1
 774 307 l 1,2,-1
 292 307 l 1,3,-1
 110 0 l 1,4,-1
 -35 0 l 1,5,-1
 810 1413 l 1,6,-1
 1915 1413 l 1,7,-1
 1890 1304 l 1,8,-1
 1141 1304 l 1,9,-1
 1017 764 l 1,10,-1
 1677 764 l 1,11,-1
 1651 648 l 1,12,-1
 989 648 l 1,13,-1
 867 116 l 1,14,-1
 1616 116 l 1,15,-1
 1590 0 l 1,0,-1
804 434 m 1,16,-1
 1005 1304 l 1,17,-1
 878 1304 l 1,18,-1
 362 434 l 1,19,-1
 804 434 l 1,16,-1
EndSplineSet
Position2: "'cpsp' Capital Spacing lookup 0 per glyph data 0" dx=5 dy=0 dh=10 dv=0
EndChar

StartChar: Eth
Encoding: 208 208 143
Width: 1433
GlyphClass: 1
Flags: W
LayerCount: 2
Fore
SplineSet
485 0 m 2,0,-1
 126 0 l 1,1,-1
 277 663 l 1,2,-1
 164 663 l 1,3,-1
 189 762 l 1,4,-1
 302 762 l 1,5,-1
 452 1413 l 1,6,-1
 803 1413 l 2,7,8
 926 1413 926 1413 1030 1386 c 128,-1,9
 1134 1359 1134 1359 1209.5 1300 c 128,-1,10
 1285 1241 1285 1241 1327.5 1147 c 128,-1,11
 1370 1053 1370 1053 1370 919 c 0,12,13
 1370 835 1370 835 1355 754 c 128,-1,14
 1340 673 1340 673 1314 594 c 0,15,16
 1216 297 1216 297 1007 148.5 c 128,-1,17
 798 0 798 0 485 0 c 2,0,-1
479 130 m 2,18,19
 619 130 619 130 738 171.5 c 128,-1,20
 857 213 857 213 950.5 289.5 c 128,-1,21
 1044 366 1044 366 1108.5 475 c 128,-1,22
 1173 584 1173 584 1203 719 c 0,23,24
 1214 767 1214 767 1220.5 814.5 c 128,-1,25
 1227 862 1227 862 1227 910 c 0,26,27
 1227 1015 1227 1015 1192.5 1087 c 128,-1,28
 1158 1159 1158 1159 1098 1203 c 128,-1,29
 1038 1247 1038 1247 956 1266 c 128,-1,30
 874 1285 874 1285 779 1285 c 2,31,-1
 567 1285 l 1,32,-1
 446 762 l 1,33,-1
 827 762 l 1,34,35
 821 737 821 737 814 713 c 128,-1,36
 807 689 807 689 803 663 c 1,37,-1
 421 663 l 1,38,-1
 298 130 l 1,39,-1
 479 130 l 2,18,19
EndSplineSet
Position2: "'cpsp' Capital Spacing lookup 0 per glyph data 0" dx=5 dy=0 dh=10 dv=0
EndChar

StartChar: multiply
Encoding: 215 215 150
Width: 1119
GlyphClass: 1
Flags: W
LayerCount: 2
Fore
SplineSet
893 223 m 1,0,-1
 562 556 l 1,1,-1
 237 232 l 1,2,-1
 167 300 l 1,3,-1
 492 625 l 1,4,-1
 160 955 l 1,5,-1
 228 1025 l 1,6,-1
 562 692 l 1,7,-1
 884 1016 l 1,8,-1
 953 948 l 1,9,-1
 630 625 l 1,10,-1
 961 293 l 1,11,-1
 893 223 l 1,0,-1
EndSplineSet
EndChar

StartChar: Oslash
Encoding: 216 216 151
Width: 1527
GlyphClass: 1
Flags: W
LayerCount: 2
Fore
SplineSet
652 -23 m 0,0,1
 574 -23 574 -23 497.5 -5.5 c 128,-1,2
 421 12 421 12 354 56 c 1,3,-1
 310 0 l 1,4,-1
 192 0 l 1,5,-1
 284 116 l 1,6,7
 250 154 250 154 226.5 198 c 128,-1,8
 203 242 203 242 188 289.5 c 128,-1,9
 173 337 173 337 166 387 c 128,-1,10
 159 437 159 437 159 486 c 0,11,12
 159 607 159 607 189.5 732.5 c 128,-1,13
 220 858 220 858 278 972.5 c 128,-1,14
 336 1087 336 1087 420 1183.5 c 128,-1,15
 504 1280 504 1280 610 1343 c 0,16,17
 693 1392 693 1392 782 1414 c 128,-1,18
 871 1436 871 1436 967 1436 c 0,19,20
 1045 1436 1045 1436 1122.5 1419.5 c 128,-1,21
 1200 1403 1200 1403 1266 1358 c 1,22,-1
 1309 1413 l 1,23,-1
 1426 1413 l 1,24,-1
 1337 1300 l 1,25,26
 1373 1262 1373 1262 1397.5 1218 c 128,-1,27
 1422 1174 1422 1174 1436.5 1126 c 128,-1,28
 1451 1078 1451 1078 1457.5 1027.5 c 128,-1,29
 1464 977 1464 977 1464 926 c 0,30,31
 1464 805 1464 805 1433.5 679.5 c 128,-1,32
 1403 554 1403 554 1345 439 c 128,-1,33
 1287 324 1287 324 1202.5 228 c 128,-1,34
 1118 132 1118 132 1011 70 c 0,35,36
 928 22 928 22 838 -0.5 c 128,-1,37
 748 -23 748 -23 652 -23 c 0,0,1
372 227 m 1,38,-1
 1179 1249 l 1,39,40
 1129 1280 1129 1280 1072.5 1291.5 c 128,-1,41
 1016 1303 1016 1303 958 1303 c 0,42,43
 827 1303 827 1303 720.5 1252 c 128,-1,44
 614 1201 614 1201 533 1116 c 128,-1,45
 452 1031 452 1031 397.5 921 c 128,-1,46
 343 811 343 811 316 693 c 0,47,48
 305 645 305 645 298.5 596.5 c 128,-1,49
 292 548 292 548 292 498 c 0,50,51
 292 426 292 426 309 355.5 c 128,-1,52
 326 285 326 285 372 227 c 1,38,-1
659 109 m 0,53,54
 763 109 763 109 853 142.5 c 128,-1,55
 943 176 943 176 1018 234 c 128,-1,56
 1093 292 1093 292 1151.5 370 c 128,-1,57
 1210 448 1210 448 1250.5 537.5 c 128,-1,58
 1291 627 1291 627 1312 723.5 c 128,-1,59
 1333 820 1333 820 1333 914 c 0,60,61
 1333 989 1333 989 1315 1058.5 c 128,-1,62
 1297 1128 1297 1128 1249 1188 c 1,63,-1
 441 165 l 1,64,65
 489 133 489 133 545.5 121 c 128,-1,66
 602 109 602 109 659 109 c 0,53,54
EndSplineSet
Position2: "'cpsp' Capital Spacing lookup 0 per glyph data 0" dx=5 dy=0 dh=10 dv=0
EndChar

StartChar: Thorn
Encoding: 222 222 157
Width: 1155
GlyphClass: 1
Flags: W
LayerCount: 2
Fore
SplineSet
221 0 m 1,0,-1
 83 0 l 1,1,-1
 409 1413 l 1,2,-1
 546 1413 l 1,3,-1
 500 1211 l 1,4,-1
 751 1211 l 2,5,6
 823 1211 823 1211 889 1194.5 c 128,-1,7
 955 1178 955 1178 1005.5 1142 c 128,-1,8
 1056 1106 1056 1106 1086 1050 c 128,-1,9
 1116 994 1116 994 1116 916 c 0,10,11
 1116 845 1116 845 1095 780.5 c 128,-1,12
 1074 716 1074 716 1034 658 c 0,13,14
 990 595 990 595 939 554.5 c 128,-1,15
 888 514 888 514 831.5 490 c 128,-1,16
 775 466 775 466 713.5 455 c 128,-1,17
 652 444 652 444 588 441 c 0,18,19
 549 439 549 439 509 439 c 0,20,21
 483 439 483 439 436 440 c 128,-1,22
 389 441 389 441 322 441 c 1,23,-1
 221 0 l 1,0,-1
600 568 m 2,24,25
 666 568 666 568 726 582.5 c 128,-1,26
 786 597 786 597 834 628 c 128,-1,27
 882 659 882 659 916.5 707.5 c 128,-1,28
 951 756 951 756 967 825 c 0,29,30
 971 842 971 842 973.5 858.5 c 128,-1,31
 976 875 976 875 976 892 c 0,32,33
 976 945 976 945 953 980 c 128,-1,34
 930 1015 930 1015 893.5 1035.5 c 128,-1,35
 857 1056 857 1056 812 1064.5 c 128,-1,36
 767 1073 767 1073 723 1073 c 2,37,-1
 468 1073 l 1,38,-1
 351 568 l 1,39,-1
 600 568 l 2,24,25
EndSplineSet
Position2: "'cpsp' Capital Spacing lookup 0 per glyph data 0" dx=5 dy=0 dh=10 dv=0
EndChar

StartChar: germandbls
Encoding: 223 223 158
Width: 1212
GlyphClass: 1
Flags: W
LayerCount: 2
Fore
SplineSet
632 -18 m 0,0,1
 593 -18 593 -18 558.5 -13 c 128,-1,2
 524 -8 524 -8 491 1 c 128,-1,3
 458 10 458 10 426 23.5 c 128,-1,4
 394 37 394 37 359 54 c 1,5,-1
 436 174 l 1,6,7
 481 145 481 145 535.5 129.5 c 128,-1,8
 590 114 590 114 643 114 c 0,9,10
 688 114 688 114 735.5 132 c 128,-1,11
 783 150 783 150 822.5 181.5 c 128,-1,12
 862 213 862 213 887 255.5 c 128,-1,13
 912 298 912 298 912 346 c 0,14,15
 912 386 912 386 895.5 418 c 128,-1,16
 879 450 879 450 853.5 478.5 c 128,-1,17
 828 507 828 507 799 534 c 128,-1,18
 770 561 770 561 744.5 590.5 c 128,-1,19
 719 620 719 620 702.5 655 c 128,-1,20
 686 690 686 690 686 734 c 0,21,22
 686 789 686 789 710 826.5 c 128,-1,23
 734 864 734 864 770 893.5 c 128,-1,24
 806 923 806 923 848 948.5 c 128,-1,25
 890 974 890 974 926 1005 c 128,-1,26
 962 1036 962 1036 986 1076.5 c 128,-1,27
 1010 1117 1010 1117 1010 1176 c 0,28,29
 1010 1215 1010 1215 990 1241.5 c 128,-1,30
 970 1268 970 1268 939 1284 c 128,-1,31
 908 1300 908 1300 872 1307 c 128,-1,32
 836 1314 836 1314 804 1314 c 0,33,34
 714 1314 714 1314 647.5 1276 c 128,-1,35
 581 1238 581 1238 533.5 1177 c 128,-1,36
 486 1116 486 1116 456 1040 c 128,-1,37
 426 964 426 964 408 888 c 2,38,-1
 198 0 l 1,39,-1
 67 0 l 1,40,-1
 228 676 l 2,41,42
 249 766 249 766 268 856.5 c 128,-1,43
 287 947 287 947 318 1034 c 0,44,45
 348 1119 348 1119 392 1192 c 128,-1,46
 436 1265 436 1265 496 1319 c 128,-1,47
 556 1373 556 1373 633 1403.5 c 128,-1,48
 710 1434 710 1434 806 1434 c 0,49,50
 866 1434 866 1434 925.5 1416 c 128,-1,51
 985 1398 985 1398 1033 1362.5 c 128,-1,52
 1081 1327 1081 1327 1111 1276 c 128,-1,53
 1141 1225 1141 1225 1141 1159 c 0,54,55
 1141 1096 1141 1096 1122.5 1053.5 c 128,-1,56
 1104 1011 1104 1011 1075 981.5 c 128,-1,57
 1046 952 1046 952 1010.5 931.5 c 128,-1,58
 975 911 975 911 941 891.5 c 128,-1,59
 907 872 907 872 878 849.5 c 128,-1,60
 849 827 849 827 834 794 c 0,61,62
 829 783 829 783 825 770 c 128,-1,63
 821 757 821 757 821 745 c 0,64,65
 821 712 821 712 837.5 683.5 c 128,-1,66
 854 655 854 655 879 628.5 c 128,-1,67
 904 602 904 602 933 575 c 128,-1,68
 962 548 962 548 987 516.5 c 128,-1,69
 1012 485 1012 485 1028.5 447.5 c 128,-1,70
 1045 410 1045 410 1045 362 c 0,71,72
 1045 281 1045 281 1009.5 211.5 c 128,-1,73
 974 142 974 142 916 91 c 128,-1,74
 858 40 858 40 783.5 11 c 128,-1,75
 709 -18 709 -18 632 -18 c 0,0,1
EndSplineSet
EndChar

StartChar: ae
Encoding: 230 230 165
Width: 1724
GlyphClass: 1
Flags: W
LayerCount: 2
Fore
SplineSet
298 -20 m 0,0,1
 238 -20 238 -20 189 -3.5 c 128,-1,2
 140 13 140 13 104.5 45 c 128,-1,3
 69 77 69 77 49.5 124 c 128,-1,4
 30 171 30 171 30 233 c 0,5,6
 30 256 30 256 36 282.5 c 128,-1,7
 42 309 42 309 52 335.5 c 128,-1,8
 62 362 62 362 74 386.5 c 128,-1,9
 86 411 86 411 99 429 c 0,10,11
 132 477 132 477 173.5 507.5 c 128,-1,12
 215 538 215 538 262.5 555.5 c 128,-1,13
 310 573 310 573 362 579.5 c 128,-1,14
 414 586 414 586 469 586 c 2,15,-1
 804 586 l 1,16,17
 812 623 812 623 817.5 660 c 128,-1,18
 823 697 823 697 823 735 c 0,19,20
 823 842 823 842 772.5 896.5 c 128,-1,21
 722 951 722 951 613 951 c 0,22,23
 568 951 568 951 523 939 c 128,-1,24
 478 927 478 927 436.5 906 c 128,-1,25
 395 885 395 885 358.5 856 c 128,-1,26
 322 827 322 827 293 794 c 1,27,-1
 201 868 l 1,28,29
 293 958 293 958 397.5 1007 c 128,-1,30
 502 1056 502 1056 633 1056 c 0,31,32
 686 1056 686 1056 735.5 1046 c 128,-1,33
 785 1036 785 1036 825 1012 c 128,-1,34
 865 988 865 988 892.5 949 c 128,-1,35
 920 910 920 910 930 852 c 1,36,37
 1004 945 1004 945 1099 998.5 c 128,-1,38
 1194 1052 1194 1052 1315 1052 c 0,39,40
 1479 1052 1479 1052 1569.5 969.5 c 128,-1,41
 1660 887 1660 887 1660 719 c 0,42,43
 1660 700 1660 700 1656.5 666.5 c 128,-1,44
 1653 633 1653 633 1647 596.5 c 128,-1,45
 1641 560 1641 560 1634 527.5 c 128,-1,46
 1627 495 1627 495 1620 478 c 1,47,-1
 898 478 l 1,48,49
 882 418 882 418 882 353 c 0,50,51
 882 295 882 295 897.5 248.5 c 128,-1,52
 913 202 913 202 943.5 169 c 128,-1,53
 974 136 974 136 1019 118.5 c 128,-1,54
 1064 101 1064 101 1123 101 c 0,55,56
 1172 101 1172 101 1215.5 106.5 c 128,-1,57
 1259 112 1259 112 1299.5 125 c 128,-1,58
 1340 138 1340 138 1378 159.5 c 128,-1,59
 1416 181 1416 181 1454 213 c 1,60,-1
 1531 137 l 1,61,62
 1482 98 1482 98 1434 70 c 128,-1,63
 1386 42 1386 42 1335 23.5 c 128,-1,64
 1284 5 1284 5 1229 -3.5 c 128,-1,65
 1174 -12 1174 -12 1111 -12 c 0,66,67
 1040 -12 1040 -12 979.5 6.5 c 128,-1,68
 919 25 919 25 874.5 61.5 c 128,-1,69
 830 98 830 98 803 153.5 c 128,-1,70
 776 209 776 209 771 283 c 1,71,72
 734 213 734 213 685.5 157 c 128,-1,73
 637 101 637 101 578 61.5 c 128,-1,74
 519 22 519 22 449 1 c 128,-1,75
 379 -20 379 -20 298 -20 c 0,0,1
1526 588 m 1,76,77
 1528 618 1528 618 1534.5 647.5 c 128,-1,78
 1541 677 1541 677 1541 707 c 0,79,80
 1541 824 1541 824 1478.5 880 c 128,-1,81
 1416 936 1416 936 1302 936 c 0,82,83
 1227 936 1227 936 1164.5 907 c 128,-1,84
 1102 878 1102 878 1054 830 c 128,-1,85
 1006 782 1006 782 973 719 c 128,-1,86
 940 656 940 656 923 588 c 1,87,-1
 1526 588 l 1,76,77
348 90 m 0,88,89
 402 90 402 90 454 107.5 c 128,-1,90
 506 125 506 125 553 155 c 128,-1,91
 600 185 600 185 640 224 c 128,-1,92
 680 263 680 263 709 306 c 0,93,94
 736 346 736 346 752.5 389.5 c 128,-1,95
 769 433 769 433 783 478 c 1,96,-1
 448 478 l 2,97,98
 404 478 404 478 362 466.5 c 128,-1,99
 320 455 320 455 284 432.5 c 128,-1,100
 248 410 248 410 220.5 376.5 c 128,-1,101
 193 343 193 343 178 300 c 0,102,103
 173 285 173 285 169.5 270 c 128,-1,104
 166 255 166 255 166 239 c 0,105,106
 166 203 166 203 182.5 175.5 c 128,-1,107
 199 148 199 148 225 129 c 128,-1,108
 251 110 251 110 283.5 100 c 128,-1,109
 316 90 316 90 348 90 c 0,88,89
EndSplineSet
EndChar

StartChar: eth
Encoding: 240 240 175
Width: 1190
GlyphClass: 1
Flags: W
LayerCount: 2
Fore
SplineSet
482 -16 m 0,0,1
 387 -16 387 -16 314.5 14 c 128,-1,2
 242 44 242 44 192.5 98 c 128,-1,3
 143 152 143 152 117.5 227.5 c 128,-1,4
 92 303 92 303 92 395 c 0,5,6
 92 476 92 476 111.5 556.5 c 128,-1,7
 131 637 131 637 167.5 711 c 128,-1,8
 204 785 204 785 256.5 848.5 c 128,-1,9
 309 912 309 912 374.5 959 c 128,-1,10
 440 1006 440 1006 517 1033 c 128,-1,11
 594 1060 594 1060 680 1060 c 0,12,13
 714 1060 714 1060 754 1054 c 128,-1,14
 794 1048 794 1048 832.5 1035 c 128,-1,15
 871 1022 871 1022 904.5 1001 c 128,-1,16
 938 980 938 980 957 949 c 1,17,18
 958 957 958 957 959 963.5 c 128,-1,19
 960 970 960 970 960 978 c 0,20,21
 960 1029 960 1029 945.5 1074.5 c 128,-1,22
 931 1120 931 1120 905.5 1160 c 128,-1,23
 880 1200 880 1200 846 1234.5 c 128,-1,24
 812 1269 812 1269 773 1299 c 1,25,-1
 642 1170 l 1,26,-1
 560 1222 l 1,27,-1
 693 1352 l 1,28,29
 654 1373 654 1373 614.5 1392 c 128,-1,30
 575 1411 575 1411 533 1428 c 1,31,32
 553 1451 553 1451 575 1471.5 c 128,-1,33
 597 1492 597 1492 619 1514 c 1,34,35
 661 1497 661 1497 701.5 1480 c 128,-1,36
 742 1463 742 1463 780 1440 c 1,37,-1
 869 1527 l 1,38,-1
 953 1476 l 1,39,-1
 863 1388 l 1,40,41
 997 1282 997 1282 1055.5 1147 c 128,-1,42
 1114 1012 1114 1012 1114 843 c 0,43,44
 1114 732 1114 732 1094.5 617 c 128,-1,45
 1075 502 1075 502 1031.5 397 c 128,-1,46
 988 292 988 292 917 203.5 c 128,-1,47
 846 115 846 115 743 56 c 0,48,49
 681 21 681 21 617 2.5 c 128,-1,50
 553 -16 553 -16 482 -16 c 0,0,1
482 107 m 0,51,52
 553 107 553 107 615 132.5 c 128,-1,53
 677 158 677 158 728.5 201.5 c 128,-1,54
 780 245 780 245 821 302.5 c 128,-1,55
 862 360 862 360 890 424.5 c 128,-1,56
 918 489 918 489 932.5 557 c 128,-1,57
 947 625 947 625 947 688 c 0,58,59
 947 745 947 745 931 794 c 128,-1,60
 915 843 915 843 884 879 c 128,-1,61
 853 915 853 915 807 935 c 128,-1,62
 761 955 761 955 701 955 c 0,63,64
 629 955 629 955 566 931 c 128,-1,65
 503 907 503 907 451.5 866 c 128,-1,66
 400 825 400 825 360 769.5 c 128,-1,67
 320 714 320 714 292.5 651 c 128,-1,68
 265 588 265 588 250.5 520.5 c 128,-1,69
 236 453 236 453 236 388 c 0,70,71
 236 328 236 328 250 276.5 c 128,-1,72
 264 225 264 225 293.5 187.5 c 128,-1,73
 323 150 323 150 369.5 128.5 c 128,-1,74
 416 107 416 107 482 107 c 0,51,52
EndSplineSet
EndChar

StartChar: divide
Encoding: 247 247 182
Width: 908
GlyphClass: 1
Flags: W
LayerCount: 2
Fore
SplineSet
538 918 m 1,0,-1
 360 918 l 1,1,-1
 360 1095 l 1,2,-1
 538 1095 l 1,3,-1
 538 918 l 1,0,-1
757 579 m 1,4,-1
 141 579 l 1,5,-1
 141 676 l 1,6,-1
 757 676 l 1,7,-1
 757 579 l 1,4,-1
538 142 m 1,8,-1
 360 142 l 1,9,-1
 360 318 l 1,10,-1
 538 318 l 1,11,-1
 538 142 l 1,8,-1
EndSplineSet
EndChar

StartChar: oslash
Encoding: 248 248 183
Width: 1154
GlyphClass: 1
Flags: W
LayerCount: 2
Fore
SplineSet
463 -20 m 0,0,1
 404 -20 404 -20 348.5 -7 c 128,-1,2
 293 6 293 6 243 38 c 1,3,-1
 213 1 l 1,4,-1
 130 1 l 1,5,-1
 192 79 l 1,6,7
 134 142 134 142 109 220 c 128,-1,8
 84 298 84 298 84 382 c 0,9,10
 84 463 84 463 105 544 c 128,-1,11
 126 625 126 625 165 699.5 c 128,-1,12
 204 774 204 774 259 838.5 c 128,-1,13
 314 903 314 903 381.5 950.5 c 128,-1,14
 449 998 449 998 527 1025 c 128,-1,15
 605 1052 605 1052 690 1052 c 0,16,17
 749 1052 749 1052 804.5 1038 c 128,-1,18
 860 1024 860 1024 910 992 c 1,19,-1
 947 1038 l 1,20,-1
 1029 1038 l 1,21,-1
 961 952 l 1,22,23
 1018 889 1018 889 1044 810.5 c 128,-1,24
 1070 732 1070 732 1070 649 c 0,25,26
 1070 568 1070 568 1048.5 487 c 128,-1,27
 1027 406 1027 406 988 331.5 c 128,-1,28
 949 257 949 257 894 193 c 128,-1,29
 839 129 839 129 771.5 81.5 c 128,-1,30
 704 34 704 34 626 7 c 128,-1,31
 548 -20 548 -20 463 -20 c 0,0,1
275 184 m 1,32,-1
 832 896 l 1,33,34
 798 917 798 917 759.5 925.5 c 128,-1,35
 721 934 721 934 682 934 c 0,36,37
 611 934 611 934 549 909.5 c 128,-1,38
 487 885 487 885 435.5 843.5 c 128,-1,39
 384 802 384 802 343.5 746 c 128,-1,40
 303 690 303 690 275 627 c 128,-1,41
 247 564 247 564 232.5 497.5 c 128,-1,42
 218 431 218 431 218 367 c 0,43,44
 218 318 218 318 231.5 271 c 128,-1,45
 245 224 245 224 275 184 c 1,32,-1
471 97 m 0,46,47
 543 97 543 97 605.5 121 c 128,-1,48
 668 145 668 145 719.5 187 c 128,-1,49
 771 229 771 229 811.5 285 c 128,-1,50
 852 341 852 341 879.5 404 c 128,-1,51
 907 467 907 467 921.5 534.5 c 128,-1,52
 936 602 936 602 936 667 c 0,53,54
 936 716 936 716 923.5 763 c 128,-1,55
 911 810 911 810 882 850 c 1,56,-1
 323 137 l 1,57,58
 356 115 356 115 394 106 c 128,-1,59
 432 97 432 97 471 97 c 0,46,47
EndSplineSet
EndChar

StartChar: thorn
Encoding: 254 254 189
Width: 1184
GlyphClass: 1
Flags: W
LayerCount: 2
Fore
SplineSet
99 -439 m 1,0,-1
 -30 -439 l 1,1,-1
 415 1413 l 1,2,-1
 544 1413 l 1,3,4
 509 1276 509 1276 473.5 1142 c 128,-1,5
 438 1008 438 1008 403 871 c 1,6,7
 475 965 475 965 569.5 1012.5 c 128,-1,8
 664 1060 664 1060 783 1060 c 0,9,10
 865 1060 865 1060 922.5 1031.5 c 128,-1,11
 980 1003 980 1003 1016.5 954 c 128,-1,12
 1053 905 1053 905 1069.5 839.5 c 128,-1,13
 1086 774 1086 774 1086 700 c 0,14,15
 1086 627 1086 627 1070.5 545.5 c 128,-1,16
 1055 464 1055 464 1024.5 384 c 128,-1,17
 994 304 994 304 949 231 c 128,-1,18
 904 158 904 158 845.5 102 c 128,-1,19
 787 46 787 46 715 13 c 128,-1,20
 643 -20 643 -20 558 -20 c 0,21,22
 504 -20 504 -20 455.5 -9 c 128,-1,23
 407 2 407 2 367.5 26 c 128,-1,24
 328 50 328 50 298.5 88 c 128,-1,25
 269 126 269 126 252 180 c 1,26,27
 212 25 212 25 175.5 -129.5 c 128,-1,28
 139 -284 139 -284 99 -439 c 1,0,-1
521 83 m 0,29,30
 594 83 594 83 655.5 110.5 c 128,-1,31
 717 138 717 138 766.5 185 c 128,-1,32
 816 232 816 232 854 293.5 c 128,-1,33
 892 355 892 355 917 422.5 c 128,-1,34
 942 490 942 490 955 559.5 c 128,-1,35
 968 629 968 629 968 691 c 0,36,37
 968 747 968 747 955.5 795 c 128,-1,38
 943 843 943 843 915.5 879 c 128,-1,39
 888 915 888 915 845 935.5 c 128,-1,40
 802 956 802 956 741 956 c 0,41,42
 669 956 669 956 607 928.5 c 128,-1,43
 545 901 545 901 495 854.5 c 128,-1,44
 445 808 445 808 406 747 c 128,-1,45
 367 686 367 686 341 619 c 128,-1,46
 315 552 315 552 301.5 483 c 128,-1,47
 288 414 288 414 288 351 c 0,48,49
 288 293 288 293 301 244 c 128,-1,50
 314 195 314 195 341.5 159 c 128,-1,51
 369 123 369 123 413.5 103 c 128,-1,52
 458 83 458 83 521 83 c 0,29,30
EndSplineSet
EndChar

StartChar: Aogonek
Encoding: 260 260 195
Width: 1300
GlyphClass: 1
Flags: W
LayerCount: 2
Fore
SplineSet
887 -452 m 0,0,1
 810 -452 810 -452 764.5 -410 c 128,-1,2
 719 -368 719 -368 719 -290 c 0,3,4
 719 -231 719 -231 744 -184 c 128,-1,5
 769 -137 769 -137 809 -101 c 128,-1,6
 849 -65 849 -65 899 -40 c 128,-1,7
 949 -15 949 -15 1000 0 c 1,8,-1
 965 0 l 1,9,10
 956 77 956 77 947 153.5 c 128,-1,11
 938 230 938 230 928 307 c 1,12,-1
 289 307 l 1,13,14
 243 230 243 230 199 154 c 128,-1,15
 155 78 155 78 110 0 c 1,16,-1
 -41 0 l 1,17,-1
 809 1413 l 1,18,-1
 914 1413 l 1,19,-1
 1108 0 l 1,20,21
 1095 0 1095 0 1082 -3 c 128,-1,22
 1069 -6 1069 -6 1057 -10 c 1,23,-1
 1078 -11 l 1,24,25
 1042 -28 1042 -28 997 -54.5 c 128,-1,26
 952 -81 952 -81 912.5 -115.5 c 128,-1,27
 873 -150 873 -150 846 -190.5 c 128,-1,28
 819 -231 819 -231 819 -276 c 0,29,30
 819 -303 819 -303 833.5 -325.5 c 128,-1,31
 848 -348 848 -348 878 -348 c 0,32,33
 923 -348 923 -348 960.5 -330 c 128,-1,34
 998 -312 998 -312 1028 -279 c 1,35,-1
 1105 -347 l 1,36,37
 1058 -395 1058 -395 1007.5 -423.5 c 128,-1,38
 957 -452 957 -452 887 -452 c 0,0,1
911 435 m 1,39,-1
 821 1214 l 1,40,-1
 363 435 l 1,41,-1
 911 435 l 1,39,-1
EndSplineSet
Position2: "'cpsp' Capital Spacing lookup 0 per glyph data 0" dx=5 dy=0 dh=10 dv=0
EndChar

StartChar: dcaron
Encoding: 271 271 206
Width: 1294
GlyphClass: 1
Flags: W
LayerCount: 2
Fore
SplineSet
407 -20 m 0,0,1
 324 -20 324 -20 264.5 9.5 c 128,-1,2
 205 39 205 39 167 89.5 c 128,-1,3
 129 140 129 140 111 207 c 128,-1,4
 93 274 93 274 93 350 c 0,5,6
 93 424 93 424 109.5 505.5 c 128,-1,7
 126 587 126 587 157.5 666 c 128,-1,8
 189 745 189 745 235.5 816 c 128,-1,9
 282 887 282 887 341.5 941.5 c 128,-1,10
 401 996 401 996 474 1028 c 128,-1,11
 547 1060 547 1060 632 1060 c 0,12,13
 734 1060 734 1060 810.5 1019.5 c 128,-1,14
 887 979 887 979 932 885 c 1,15,-1
 1070 1413 l 1,16,-1
 1202 1413 l 1,17,-1
 863 0 l 1,18,-1
 732 0 l 1,19,-1
 768 145 l 1,20,21
 692 63 692 63 606 21.5 c 128,-1,22
 520 -20 520 -20 407 -20 c 0,0,1
1333 1071 m 1,23,-1
 1227 1071 l 1,24,25
 1277 1157 1277 1157 1325 1242 c 128,-1,26
 1373 1327 1373 1327 1423 1413 c 1,27,-1
 1635 1413 l 1,28,-1
 1333 1071 l 1,23,-1
444 95 m 0,29,30
 517 95 517 95 577.5 121.5 c 128,-1,31
 638 148 638 148 686.5 193.5 c 128,-1,32
 735 239 735 239 772 298.5 c 128,-1,33
 809 358 809 358 833.5 423.5 c 128,-1,34
 858 489 858 489 870.5 557.5 c 128,-1,35
 883 626 883 626 883 688 c 0,36,37
 883 743 883 743 870.5 789.5 c 128,-1,38
 858 836 858 836 831.5 870 c 128,-1,39
 805 904 805 904 763 923 c 128,-1,40
 721 942 721 942 661 942 c 0,41,42
 590 942 590 942 529.5 915.5 c 128,-1,43
 469 889 469 889 420 844 c 128,-1,44
 371 799 371 799 334 739.5 c 128,-1,45
 297 680 297 680 272 614.5 c 128,-1,46
 247 549 247 549 234.5 481.5 c 128,-1,47
 222 414 222 414 222 352 c 0,48,49
 222 297 222 297 234 250 c 128,-1,50
 246 203 246 203 273 168.5 c 128,-1,51
 300 134 300 134 342 114.5 c 128,-1,52
 384 95 384 95 444 95 c 0,29,30
EndSplineSet
EndChar

StartChar: Dcroat
Encoding: 272 272 207
Width: 1430
GlyphClass: 1
Flags: W
LayerCount: 2
Fore
SplineSet
485 0 m 2,0,-1
 126 0 l 1,1,-1
 277 663 l 1,2,-1
 164 663 l 1,3,-1
 189 762 l 1,4,-1
 302 762 l 1,5,-1
 452 1413 l 1,6,-1
 803 1413 l 2,7,8
 926 1413 926 1413 1030 1386 c 128,-1,9
 1134 1359 1134 1359 1209.5 1300 c 128,-1,10
 1285 1241 1285 1241 1327.5 1147 c 128,-1,11
 1370 1053 1370 1053 1370 919 c 0,12,13
 1370 835 1370 835 1355 754 c 128,-1,14
 1340 673 1340 673 1314 594 c 0,15,16
 1216 297 1216 297 1007 148.5 c 128,-1,17
 798 0 798 0 485 0 c 2,0,-1
479 130 m 2,18,19
 619 130 619 130 738 171.5 c 128,-1,20
 857 213 857 213 950.5 289.5 c 128,-1,21
 1044 366 1044 366 1108.5 475 c 128,-1,22
 1173 584 1173 584 1203 719 c 0,23,24
 1214 767 1214 767 1220.5 814.5 c 128,-1,25
 1227 862 1227 862 1227 910 c 0,26,27
 1227 1015 1227 1015 1192.5 1087 c 128,-1,28
 1158 1159 1158 1159 1098 1203 c 128,-1,29
 1038 1247 1038 1247 956 1266 c 128,-1,30
 874 1285 874 1285 779 1285 c 2,31,-1
 567 1285 l 1,32,-1
 446 762 l 1,33,-1
 827 762 l 1,34,35
 821 737 821 737 814 713 c 128,-1,36
 807 689 807 689 803 663 c 1,37,-1
 421 663 l 1,38,-1
 298 130 l 1,39,-1
 479 130 l 2,18,19
EndSplineSet
Position2: "'cpsp' Capital Spacing lookup 0 per glyph data 0" dx=5 dy=0 dh=10 dv=0
EndChar

StartChar: dcroat
Encoding: 273 273 208
Width: 1173
GlyphClass: 1
Flags: W
LayerCount: 2
Fore
SplineSet
407 -20 m 0,0,1
 324 -20 324 -20 264.5 9.5 c 128,-1,2
 205 39 205 39 167 89.5 c 128,-1,3
 129 140 129 140 111 207 c 128,-1,4
 93 274 93 274 93 350 c 0,5,6
 93 424 93 424 109.5 505.5 c 128,-1,7
 126 587 126 587 157.5 666 c 128,-1,8
 189 745 189 745 235 816 c 128,-1,9
 281 887 281 887 341 941.5 c 128,-1,10
 401 996 401 996 474 1028 c 128,-1,11
 547 1060 547 1060 632 1060 c 0,12,13
 733 1060 733 1060 810 1019.5 c 128,-1,14
 887 979 887 979 932 885 c 1,15,-1
 1009 1184 l 1,16,-1
 693 1184 l 1,17,18
 698 1210 698 1210 705 1236.5 c 128,-1,19
 712 1263 712 1263 718 1289 c 1,20,-1
 1035 1289 l 1,21,22
 1043 1321 1043 1321 1052.5 1351 c 128,-1,23
 1062 1381 1062 1381 1070 1413 c 1,24,-1
 1202 1413 l 1,25,-1
 1168 1289 l 1,26,-1
 1377 1289 l 1,27,-1
 1351 1184 l 1,28,-1
 1143 1184 l 1,29,30
 1072 886 1072 886 1001.5 592 c 128,-1,31
 931 298 931 298 863 0 c 1,32,-1
 733 0 l 1,33,-1
 763 139 l 1,34,35
 688 59 688 59 602.5 19.5 c 128,-1,36
 517 -20 517 -20 407 -20 c 0,0,1
444 95 m 0,37,38
 516 95 516 95 576.5 122 c 128,-1,39
 637 149 637 149 686 194 c 128,-1,40
 735 239 735 239 771.5 299 c 128,-1,41
 808 359 808 359 833 424.5 c 128,-1,42
 858 490 858 490 870.5 558 c 128,-1,43
 883 626 883 626 883 688 c 0,44,45
 883 743 883 743 870.5 789.5 c 128,-1,46
 858 836 858 836 831.5 870 c 128,-1,47
 805 904 805 904 763 923 c 128,-1,48
 721 942 721 942 661 942 c 0,49,50
 590 942 590 942 529.5 915.5 c 128,-1,51
 469 889 469 889 420.5 843.5 c 128,-1,52
 372 798 372 798 335 738.5 c 128,-1,53
 298 679 298 679 272.5 613.5 c 128,-1,54
 247 548 247 548 234.5 480.5 c 128,-1,55
 222 413 222 413 222 352 c 0,56,57
 222 297 222 297 234 250 c 128,-1,58
 246 203 246 203 273 168.5 c 128,-1,59
 300 134 300 134 342 114.5 c 128,-1,60
 384 95 384 95 444 95 c 0,37,38
EndSplineSet
EndChar

StartChar: Eogonek
Encoding: 280 280 215
Width: 1248
GlyphClass: 1
Flags: W
LayerCount: 2
Fore
SplineSet
795 -452 m 0,0,1
 718 -452 718 -452 672.5 -410 c 128,-1,2
 627 -368 627 -368 627 -290 c 0,3,4
 627 -232 627 -232 652 -185 c 128,-1,5
 677 -138 677 -138 717 -101.5 c 128,-1,6
 757 -65 757 -65 807.5 -39.5 c 128,-1,7
 858 -14 858 -14 908 0 c 1,8,-1
 109 0 l 1,9,10
 191 355 191 355 272.5 706.5 c 128,-1,11
 354 1058 354 1058 435 1413 c 1,12,-1
 1344 1413 l 1,13,-1
 1317 1298 l 1,14,-1
 545 1298 l 1,15,-1
 423 762 l 1,16,-1
 1084 762 l 1,17,18
 1077 734 1077 734 1071.5 706.5 c 128,-1,19
 1066 679 1066 679 1058 652 c 1,20,-1
 395 652 l 1,21,-1
 273 123 l 1,22,-1
 1046 123 l 1,23,-1
 1019 0 l 1,24,25
 993 0 993 0 965 -10 c 1,26,-1
 986 -11 l 1,27,28
 950 -28 950 -28 905 -54.5 c 128,-1,29
 860 -81 860 -81 820.5 -115 c 128,-1,30
 781 -149 781 -149 754 -190 c 128,-1,31
 727 -231 727 -231 727 -276 c 0,32,33
 727 -303 727 -303 741.5 -325.5 c 128,-1,34
 756 -348 756 -348 786 -348 c 0,35,36
 831 -348 831 -348 868.5 -330 c 128,-1,37
 906 -312 906 -312 936 -279 c 1,38,-1
 1013 -347 l 1,39,40
 966 -396 966 -396 915.5 -424 c 128,-1,41
 865 -452 865 -452 795 -452 c 0,0,1
EndSplineSet
Position2: "'cpsp' Capital Spacing lookup 0 per glyph data 0" dx=5 dy=0 dh=10 dv=0
EndChar

StartChar: uni0123
Encoding: 291 291 226
Width: 1100
GlyphClass: 1
Flags: W
LayerCount: 2
Fore
SplineSet
731 1164 m 1,0,-1
 519 1164 l 1,1,-1
 829 1428 l 1,2,-1
 934 1428 l 1,3,-1
 731 1164 l 1,0,-1
345 -433 m 0,4,5
 290 -433 290 -433 235.5 -422.5 c 128,-1,6
 181 -412 181 -412 133.5 -389 c 128,-1,7
 86 -366 86 -366 48 -328 c 128,-1,8
 10 -290 10 -290 -12 -235 c 1,9,-1
 101 -173 l 1,10,11
 117 -214 117 -214 142 -243 c 128,-1,12
 167 -272 167 -272 198.5 -290 c 128,-1,13
 230 -308 230 -308 268 -316 c 128,-1,14
 306 -324 306 -324 348 -324 c 0,15,16
 456 -324 456 -324 540.5 -272 c 128,-1,17
 625 -220 625 -220 679 -128 c 0,18,19
 697 -97 697 -97 710 -63 c 128,-1,20
 723 -29 723 -29 733 6 c 128,-1,21
 743 41 743 41 751.5 76.5 c 128,-1,22
 760 112 760 112 769 147 c 1,23,24
 697 70 697 70 609.5 25 c 128,-1,25
 522 -20 522 -20 415 -20 c 0,26,27
 330 -20 330 -20 269 8.5 c 128,-1,28
 208 37 208 37 169 86.5 c 128,-1,29
 130 136 130 136 111.5 203 c 128,-1,30
 93 270 93 270 93 348 c 0,31,32
 93 424 93 424 109.5 506.5 c 128,-1,33
 126 589 126 589 157.5 668 c 128,-1,34
 189 747 189 747 236 818 c 128,-1,35
 283 889 283 889 344 943 c 128,-1,36
 405 997 405 997 479.5 1028.5 c 128,-1,37
 554 1060 554 1060 641 1060 c 0,38,39
 741 1060 741 1060 815.5 1018 c 128,-1,40
 890 976 890 976 932 883 c 1,41,-1
 971 1039 l 1,42,-1
 1105 1039 l 1,43,-1
 874 58 l 2,44,45
 849 -49 849 -49 807.5 -139 c 128,-1,46
 766 -229 766 -229 703 -294 c 128,-1,47
 640 -359 640 -359 552 -396 c 128,-1,48
 464 -433 464 -433 345 -433 c 0,4,5
445 90 m 0,49,50
 516 90 516 90 576 117.5 c 128,-1,51
 636 145 636 145 685 191.5 c 128,-1,52
 734 238 734 238 771.5 299 c 128,-1,53
 809 360 809 360 834 427 c 128,-1,54
 859 494 859 494 872 562 c 128,-1,55
 885 630 885 630 885 691 c 0,56,57
 885 745 885 745 873 792 c 128,-1,58
 861 839 861 839 834.5 873.5 c 128,-1,59
 808 908 808 908 766.5 928 c 128,-1,60
 725 948 725 948 665 948 c 0,61,62
 593 948 593 948 532.5 921 c 128,-1,63
 472 894 472 894 422.5 848 c 128,-1,64
 373 802 373 802 335.5 741.5 c 128,-1,65
 298 681 298 681 273 614.5 c 128,-1,66
 248 548 248 548 235 480 c 128,-1,67
 222 412 222 412 222 350 c 0,68,69
 222 295 222 295 234.5 247.5 c 128,-1,70
 247 200 247 200 273.5 165 c 128,-1,71
 300 130 300 130 342.5 110 c 128,-1,72
 385 90 385 90 445 90 c 0,49,50
EndSplineSet
EndChar

StartChar: Hbar
Encoding: 294 294 229
Width: 1458
GlyphClass: 1
Flags: W
LayerCount: 2
Fore
SplineSet
1120 0 m 1,0,-1
 984 0 l 1,1,-1
 1132 652 l 1,2,-1
 395 652 l 1,3,-1
 246 0 l 1,4,-1
 109 0 l 1,5,-1
 358 1078 l 1,6,-1
 239 1078 l 1,7,-1
 255 1154 l 1,8,-1
 375 1154 l 1,9,-1
 435 1413 l 1,10,-1
 571 1413 l 1,11,-1
 512 1154 l 1,12,-1
 1250 1154 l 1,13,-1
 1309 1413 l 1,14,-1
 1446 1413 l 1,15,-1
 1386 1154 l 1,16,-1
 1499 1154 l 1,17,-1
 1483 1078 l 1,18,-1
 1368 1078 l 1,19,-1
 1120 0 l 1,0,-1
1160 762 m 1,20,-1
 1232 1078 l 1,21,-1
 494 1078 l 1,22,-1
 423 762 l 1,23,-1
 1160 762 l 1,20,-1
EndSplineSet
Position2: "'cpsp' Capital Spacing lookup 0 per glyph data 0" dx=5 dy=0 dh=10 dv=0
EndChar

StartChar: hbar
Encoding: 295 295 230
Width: 1155
GlyphClass: 1
Flags: W
LayerCount: 2
Fore
SplineSet
886 0 m 1,0,-1
 752 0 l 1,1,-1
 821 299 l 2,2,3
 834 354 834 354 850 412 c 128,-1,4
 866 470 866 470 880 528.5 c 128,-1,5
 894 587 894 587 903.5 645.5 c 128,-1,6
 913 704 913 704 913 761 c 0,7,8
 913 844 913 844 875 890 c 128,-1,9
 837 936 837 936 750 936 c 0,10,11
 676 936 676 936 606.5 904 c 128,-1,12
 537 872 537 872 480 819.5 c 128,-1,13
 423 767 423 767 382.5 700.5 c 128,-1,14
 342 634 342 634 326 565 c 2,15,-1
 261 282 l 2,16,17
 244 211 244 211 227.5 141 c 128,-1,18
 211 71 211 71 196 0 c 1,19,-1
 67 0 l 1,20,-1
 338 1158 l 1,21,-1
 142 1158 l 1,22,23
 147 1184 147 1184 153.5 1210 c 128,-1,24
 160 1236 160 1236 167 1262 c 1,25,-1
 363 1262 l 1,26,-1
 406 1413 l 1,27,-1
 535 1413 l 1,28,29
 523 1375 523 1375 513.5 1337.5 c 128,-1,30
 504 1300 504 1300 492 1262 c 1,31,-1
 826 1262 l 1,32,33
 820 1236 820 1236 812.5 1210 c 128,-1,34
 805 1184 805 1184 800 1158 c 1,35,-1
 466 1158 l 1,36,37
 445 1084 445 1084 427.5 1010.5 c 128,-1,38
 410 937 410 937 391 863 c 1,39,40
 425 905 425 905 468.5 940.5 c 128,-1,41
 512 976 512 976 561.5 1001.5 c 128,-1,42
 611 1027 611 1027 664.5 1041.5 c 128,-1,43
 718 1056 718 1056 773 1056 c 0,44,45
 908 1056 908 1056 976.5 982 c 128,-1,46
 1045 908 1045 908 1045 775 c 0,47,48
 1045 740 1045 740 1041 706 c 128,-1,49
 1037 672 1037 672 1029 638 c 2,50,-1
 886 0 l 1,0,-1
EndSplineSet
EndChar

StartChar: Iogonek
Encoding: 302 302 237
Width: 584
GlyphClass: 1
Flags: W
LayerCount: 2
Fore
SplineSet
21 -452 m 0,0,1
 -55 -452 -55 -452 -100.5 -409.5 c 128,-1,2
 -146 -367 -146 -367 -146 -290 c 0,3,4
 -146 -231 -146 -231 -121 -184 c 128,-1,5
 -96 -137 -96 -137 -56 -101 c 128,-1,6
 -16 -65 -16 -65 34 -40 c 128,-1,7
 84 -15 84 -15 135 0 c 1,8,-1
 109 0 l 1,9,10
 190 355 190 355 271.5 706.5 c 128,-1,11
 353 1058 353 1058 434 1413 c 1,12,-1
 571 1413 l 1,13,14
 490 1058 490 1058 408 706.5 c 128,-1,15
 326 355 326 355 245 0 c 1,16,17
 230 0 230 0 217.5 -2.5 c 128,-1,18
 205 -5 205 -5 191 -10 c 1,19,-1
 212 -11 l 1,20,21
 177 -27 177 -27 132 -53.5 c 128,-1,22
 87 -80 87 -80 47.5 -114 c 128,-1,23
 8 -148 8 -148 -19 -188.5 c 128,-1,24
 -46 -229 -46 -229 -46 -273 c 0,25,26
 -46 -287 -46 -287 -42.5 -300.5 c 128,-1,27
 -39 -314 -39 -314 -32 -324.5 c 128,-1,28
 -25 -335 -25 -335 -14 -341.5 c 128,-1,29
 -3 -348 -3 -348 13 -348 c 0,30,31
 58 -348 58 -348 95 -329.5 c 128,-1,32
 132 -311 132 -311 162 -279 c 1,33,-1
 239 -347 l 1,34,35
 192 -397 192 -397 141.5 -424.5 c 128,-1,36
 91 -452 91 -452 21 -452 c 0,0,1
EndSplineSet
Position2: "'cpsp' Capital Spacing lookup 0 per glyph data 0" dx=5 dy=0 dh=10 dv=0
EndChar

StartChar: iogonek
Encoding: 303 303 238
Width: 528
GlyphClass: 1
Flags: W
LayerCount: 2
Fore
SplineSet
515 1230 m 1,0,-1
 356 1230 l 1,1,-1
 401 1413 l 1,2,-1
 560 1413 l 1,3,-1
 515 1230 l 1,0,-1
-21 -452 m 0,4,5
 -58 -452 -58 -452 -89.5 -441 c 128,-1,6
 -121 -430 -121 -430 -144.5 -409 c 128,-1,7
 -168 -388 -168 -388 -181 -358 c 128,-1,8
 -194 -328 -194 -328 -194 -290 c 0,9,10
 -194 -232 -194 -232 -168 -184 c 128,-1,11
 -142 -136 -142 -136 -100.5 -100 c 128,-1,12
 -59 -64 -59 -64 -7.5 -39 c 128,-1,13
 44 -14 44 -14 95 0 c 1,14,-1
 75 0 l 1,15,16
 134 251 134 251 194 499 c 128,-1,17
 254 747 254 747 313 998 c 1,18,-1
 449 998 l 1,19,20
 390 747 390 747 330 499 c 128,-1,21
 270 251 270 251 210 0 c 1,22,23
 196 0 196 0 182 -2.5 c 128,-1,24
 168 -5 168 -5 154 -10 c 1,25,-1
 176 -11 l 1,26,27
 140 -27 140 -27 93.5 -53 c 128,-1,28
 47 -79 47 -79 5.5 -113.5 c 128,-1,29
 -36 -148 -36 -148 -65 -188.5 c 128,-1,30
 -94 -229 -94 -229 -94 -274 c 0,31,32
 -94 -302 -94 -302 -78.5 -325 c 128,-1,33
 -63 -348 -63 -348 -32 -348 c 0,34,35
 60 -348 60 -348 124 -279 c 1,36,-1
 204 -347 l 1,37,38
 155 -397 155 -397 102.5 -424.5 c 128,-1,39
 50 -452 50 -452 -21 -452 c 0,4,5
EndSplineSet
EndChar

StartChar: Idotaccent
Encoding: 304 304 239
Width: 583
GlyphClass: 1
Flags: W
LayerCount: 2
Fore
SplineSet
246 0 m 1,0,-1
 109 0 l 1,1,-1
 435 1413 l 1,2,-1
 571 1413 l 1,3,-1
 246 0 l 1,0,-1
628 1644 m 1,4,-1
 475 1644 l 1,5,-1
 518 1827 l 1,6,-1
 671 1827 l 1,7,-1
 628 1644 l 1,4,-1
EndSplineSet
Position2: "'cpsp' Capital Spacing lookup 0 per glyph data 0" dx=5 dy=0 dh=10 dv=0
EndChar

StartChar: dotlessi
Encoding: 305 305 240
Width: 503
GlyphClass: 2
Flags: W
LayerCount: 2
Fore
SplineSet
202 0 m 1,0,-1
 72 0 l 1,1,-1
 301 1039 l 1,2,-1
 431 1039 l 1,3,-1
 202 0 l 1,0,-1
EndSplineSet
EndChar

StartChar: kgreenlandic
Encoding: 312 312 247
Width: 1076
GlyphClass: 1
Flags: W
LayerCount: 2
Fore
SplineSet
884 0 m 1,0,-1
 729 0 l 1,1,-1
 535 556 l 1,2,-1
 244 303 l 1,3,-1
 173 0 l 1,4,-1
 40 0 l 1,5,-1
 279 1039 l 1,6,-1
 411 1039 l 1,7,-1
 281 477 l 1,8,-1
 892 1039 l 1,9,-1
 1057 1039 l 1,10,-1
 639 657 l 1,11,-1
 884 0 l 1,0,-1
EndSplineSet
EndChar

StartChar: Lcaron
Encoding: 317 317 252
Width: 1033
GlyphClass: 1
Flags: W
LayerCount: 2
Fore
SplineSet
847 0 m 1,0,-1
 104 0 l 1,1,-1
 431 1413 l 1,2,-1
 567 1413 l 1,3,-1
 268 123 l 1,4,-1
 874 123 l 1,5,-1
 847 0 l 1,0,-1
812 1031 m 1,6,-1
 711 1031 l 1,7,-1
 899 1413 l 1,8,-1
 1103 1413 l 1,9,-1
 812 1031 l 1,6,-1
EndSplineSet
Position2: "'cpsp' Capital Spacing lookup 0 per glyph data 0" dx=5 dy=0 dh=10 dv=0
EndChar

StartChar: lcaron
Encoding: 318 318 253
Width: 634
GlyphClass: 1
Flags: W
LayerCount: 2
Fore
SplineSet
223 -21 m 0,0,1
 194 -21 194 -21 169.5 -16 c 128,-1,2
 145 -11 145 -11 127.5 1 c 128,-1,3
 110 13 110 13 100 34 c 128,-1,4
 90 55 90 55 90 88 c 0,5,6
 90 123 90 123 97 158 c 128,-1,7
 104 193 104 193 112 227 c 0,8,9
 131 305 131 305 150 382.5 c 128,-1,10
 169 460 169 460 187 538 c 0,11,12
 238 758 238 758 289.5 975.5 c 128,-1,13
 341 1193 341 1193 393 1413 c 1,14,-1
 528 1413 l 1,15,16
 462 1141 462 1141 397.5 871 c 128,-1,17
 333 601 333 601 268 328 c 0,18,19
 265 314 265 314 256.5 284 c 128,-1,20
 248 254 248 254 239.5 221.5 c 128,-1,21
 231 189 231 189 224.5 161 c 128,-1,22
 218 133 218 133 218 122 c 0,23,24
 218 108 218 108 223 98.5 c 128,-1,25
 228 89 228 89 244 89 c 0,26,27
 273 89 273 89 301 92.5 c 128,-1,28
 329 96 329 96 358 101 c 1,29,-1
 345 -3 l 1,30,31
 316 -14 316 -14 285 -17.5 c 128,-1,32
 254 -21 254 -21 223 -21 c 0,0,1
674 1031 m 1,33,-1
 568 1031 l 1,34,-1
 764 1413 l 1,35,-1
 975 1413 l 1,36,-1
 674 1031 l 1,33,-1
EndSplineSet
EndChar

StartChar: Ldot
Encoding: 319 319 254
Width: 1039
GlyphClass: 1
Flags: W
LayerCount: 2
Fore
SplineSet
851 0 m 1,0,-1
 109 0 l 1,1,-1
 435 1413 l 1,2,-1
 571 1413 l 1,3,-1
 273 123 l 1,4,-1
 878 123 l 1,5,-1
 851 0 l 1,0,-1
668 588 m 0,6,7
 623 588 623 588 594.5 615.5 c 128,-1,8
 566 643 566 643 566 688 c 0,9,10
 566 716 566 716 576.5 741 c 128,-1,11
 587 766 587 766 605.5 784.5 c 128,-1,12
 624 803 624 803 649 814 c 128,-1,13
 674 825 674 825 702 825 c 0,14,15
 747 825 747 825 776 798 c 128,-1,16
 805 771 805 771 805 725 c 0,17,18
 805 698 805 698 793.5 673 c 128,-1,19
 782 648 782 648 763.5 629.5 c 128,-1,20
 745 611 745 611 720 599.5 c 128,-1,21
 695 588 695 588 668 588 c 0,6,7
EndSplineSet
EndChar

StartChar: ldot
Encoding: 320 320 255
Width: 695
GlyphClass: 1
Flags: W
LayerCount: 2
Fore
SplineSet
194 -20 m 0,0,1
 165 -20 165 -20 141 -15 c 128,-1,2
 117 -10 117 -10 100.5 2.5 c 128,-1,3
 84 15 84 15 75 36 c 128,-1,4
 66 57 66 57 66 89 c 0,5,6
 66 111 66 111 70.5 132 c 128,-1,7
 75 153 75 153 80 174 c 2,8,-1
 371 1413 l 1,9,-1
 504 1413 l 1,10,11
 198 130 198 130 198 125 c 0,12,13
 198 106 198 106 211 97 c 128,-1,14
 224 88 224 88 241 88 c 0,15,16
 292 88 292 88 340 103 c 1,17,-1
 320 -2 l 1,18,19
 259 -20 259 -20 194 -20 c 0,0,1
560 578 m 0,20,21
 515 578 515 578 486.5 605.5 c 128,-1,22
 458 633 458 633 458 678 c 0,23,24
 458 706 458 706 468.5 731 c 128,-1,25
 479 756 479 756 497.5 774.5 c 128,-1,26
 516 793 516 793 541 804 c 128,-1,27
 566 815 566 815 594 815 c 0,28,29
 639 815 639 815 668 788 c 128,-1,30
 697 761 697 761 697 715 c 0,31,32
 697 688 697 688 685.5 663 c 128,-1,33
 674 638 674 638 655.5 619.5 c 128,-1,34
 637 601 637 601 612 589.5 c 128,-1,35
 587 578 587 578 560 578 c 0,20,21
EndSplineSet
EndChar

StartChar: Lslash
Encoding: 321 321 256
Width: 1060
GlyphClass: 1
Flags: W
LayerCount: 2
Fore
SplineSet
876 0 m 1,0,-1
 134 0 l 1,1,-1
 246 487 l 1,2,-1
 21 342 l 1,3,-1
 58 480 l 1,4,-1
 278 627 l 1,5,-1
 459 1413 l 1,6,-1
 596 1413 l 1,7,-1
 439 733 l 1,8,-1
 857 1012 l 1,9,-1
 814 851 l 1,10,-1
 406 589 l 1,11,-1
 298 123 l 1,12,-1
 903 123 l 1,13,-1
 876 0 l 1,0,-1
EndSplineSet
Position2: "'cpsp' Capital Spacing lookup 0 per glyph data 0" dx=5 dy=0 dh=10 dv=0
EndChar

StartChar: lslash
Encoding: 322 322 257
Width: 533
GlyphClass: 1
Flags: W
LayerCount: 2
Fore
SplineSet
220 -20 m 0,0,1
 191 -20 191 -20 167 -15 c 128,-1,2
 143 -10 143 -10 126.5 2.5 c 128,-1,3
 110 15 110 15 101 36 c 128,-1,4
 92 57 92 57 92 89 c 0,5,6
 92 114 92 114 98 138.5 c 128,-1,7
 104 163 104 163 109 187 c 2,8,-1
 176 477 l 1,9,-1
 -8 295 l 1,10,-1
 45 468 l 1,11,-1
 212 636 l 1,12,-1
 397 1413 l 1,13,-1
 532 1413 l 1,14,-1
 386 807 l 1,15,-1
 594 1010 l 1,16,-1
 540 837 l 1,17,-1
 349 648 l 1,18,19
 224 130 224 130 224 125 c 0,20,21
 224 106 224 106 237 97 c 128,-1,22
 250 88 250 88 267 88 c 0,23,24
 318 88 318 88 366 103 c 1,25,-1
 346 -2 l 1,26,27
 285 -20 285 -20 220 -20 c 0,0,1
EndSplineSet
EndChar

StartChar: Eng
Encoding: 330 330 265
Width: 1416
GlyphClass: 1
Flags: W
LayerCount: 2
Fore
SplineSet
651 -370 m 1,0,-1
 671 -260 l 1,1,2
 708 -260 708 -260 748.5 -251 c 128,-1,3
 789 -242 789 -242 822.5 -222.5 c 128,-1,4
 856 -203 856 -203 878 -172 c 128,-1,5
 900 -141 900 -141 900 -97 c 0,6,7
 900 -88 900 -88 898 -79 c 128,-1,8
 896 -70 896 -70 894 -62 c 0,9,10
 861 77 861 77 823 213.5 c 128,-1,11
 785 350 785 350 749 488 c 0,12,13
 644 886 644 886 542 1283 c 1,14,-1
 243 0 l 1,15,-1
 104 0 l 1,16,17
 186 353 186 353 266.5 707 c 128,-1,18
 347 1061 347 1061 431 1413 c 1,19,-1
 643 1413 l 1,20,-1
 970 130 l 1,21,-1
 1268 1413 l 1,22,-1
 1405 1413 l 1,23,24
 1342 1145 1342 1145 1280.5 880.5 c 128,-1,25
 1219 616 1219 616 1158 348 c 2,26,-1
 1076 -8 l 2,27,28
 1061 -72 1061 -72 1041 -135.5 c 128,-1,29
 1021 -199 1021 -199 980 -252 c 0,30,31
 946 -297 946 -297 909.5 -321 c 128,-1,32
 873 -345 873 -345 833 -356 c 128,-1,33
 793 -367 793 -367 748 -368.5 c 128,-1,34
 703 -370 703 -370 651 -370 c 1,0,-1
EndSplineSet
Position2: "'cpsp' Capital Spacing lookup 0 per glyph data 0" dx=5 dy=0 dh=10 dv=0
EndChar

StartChar: eng
Encoding: 331 331 266
Width: 1153
GlyphClass: 1
Flags: W
LayerCount: 2
Fore
SplineSet
447 -370 m 1,0,-1
 475 -258 l 1,1,-1
 522 -258 l 2,2,3
 569 -258 569 -258 604 -242.5 c 128,-1,4
 639 -227 639 -227 664 -200 c 128,-1,5
 689 -173 689 -173 705 -136.5 c 128,-1,6
 721 -100 721 -100 731 -58 c 2,7,-1
 893 634 l 2,8,9
 901 666 901 666 905.5 697.5 c 128,-1,10
 910 729 910 729 910 761 c 0,11,12
 910 843 910 843 871 885.5 c 128,-1,13
 832 928 832 928 748 928 c 0,14,15
 679 928 679 928 612 901 c 128,-1,16
 545 874 545 874 489 828.5 c 128,-1,17
 433 783 433 783 392 722.5 c 128,-1,18
 351 662 351 662 336 596 c 2,19,-1
 200 9 l 1,20,-1
 65 9 l 1,21,-1
 303 1039 l 1,22,-1
 438 1039 l 1,23,-1
 397 874 l 1,24,25
 431 914 431 914 472 947.5 c 128,-1,26
 513 981 513 981 559.5 1005 c 128,-1,27
 606 1029 606 1029 657 1042.5 c 128,-1,28
 708 1056 708 1056 761 1056 c 0,29,30
 901 1056 901 1056 971 985 c 128,-1,31
 1041 914 1041 914 1041 774 c 0,32,33
 1041 737 1041 737 1036 701.5 c 128,-1,34
 1031 666 1031 666 1023 630 c 2,35,-1
 856 -87 l 2,36,37
 846 -131 846 -131 830.5 -172 c 128,-1,38
 815 -213 815 -213 791.5 -247.5 c 128,-1,39
 768 -282 768 -282 735 -308.5 c 128,-1,40
 702 -335 702 -335 657 -351 c 0,41,42
 606 -369 606 -369 553 -369.5 c 128,-1,43
 500 -370 500 -370 447 -370 c 1,0,-1
EndSplineSet
EndChar

StartChar: OE
Encoding: 338 338 273
Width: 2298
GlyphClass: 1
Flags: W
LayerCount: 2
Fore
SplineSet
680 -20 m 0,0,1
 560 -20 560 -20 467.5 14.5 c 128,-1,2
 375 49 375 49 312 113.5 c 128,-1,3
 249 178 249 178 216.5 272 c 128,-1,4
 184 366 184 366 184 484 c 0,5,6
 184 587 184 587 204.5 687.5 c 128,-1,7
 225 788 225 788 263 884 c 0,8,9
 310 1004 310 1004 379 1105.5 c 128,-1,10
 448 1207 448 1207 539.5 1280 c 128,-1,11
 631 1353 631 1353 744 1394 c 128,-1,12
 857 1435 857 1435 992 1435 c 0,13,14
 1072 1435 1072 1435 1141.5 1419 c 128,-1,15
 1211 1403 1211 1403 1266.5 1367.5 c 128,-1,16
 1322 1332 1322 1332 1363 1275.5 c 128,-1,17
 1404 1219 1404 1219 1428 1139 c 1,18,-1
 1493 1413 l 1,19,-1
 2394 1413 l 1,20,-1
 2367 1298 l 1,21,-1
 1603 1298 l 1,22,-1
 1481 762 l 1,23,-1
 2142 762 l 1,24,-1
 2116 652 l 1,25,-1
 1453 652 l 1,26,-1
 1331 123 l 1,27,-1
 2096 123 l 1,28,-1
 2068 0 l 1,29,-1
 1167 0 l 1,30,-1
 1227 253 l 1,31,32
 1020 -20 1020 -20 680 -20 c 0,0,1
696 107 m 0,33,34
 830 107 830 107 934.5 158 c 128,-1,35
 1039 209 1039 209 1116 294 c 128,-1,36
 1193 379 1193 379 1243.5 489.5 c 128,-1,37
 1294 600 1294 600 1320 719 c 0,38,39
 1331 768 1331 768 1337.5 816.5 c 128,-1,40
 1344 865 1344 865 1344 915 c 0,41,42
 1344 1007 1344 1007 1321 1079.5 c 128,-1,43
 1298 1152 1298 1152 1251.5 1202 c 128,-1,44
 1205 1252 1205 1252 1135 1279 c 128,-1,45
 1065 1306 1065 1306 971 1306 c 0,46,47
 864 1306 864 1306 774 1271.5 c 128,-1,48
 684 1237 684 1237 612.5 1177.5 c 128,-1,49
 541 1118 541 1118 487.5 1038 c 128,-1,50
 434 958 434 958 398 867 c 128,-1,51
 362 776 362 776 344 678.5 c 128,-1,52
 326 581 326 581 326 486 c 0,53,54
 326 398 326 398 350 327.5 c 128,-1,55
 374 257 374 257 421 208 c 128,-1,56
 468 159 468 159 537 133 c 128,-1,57
 606 107 606 107 696 107 c 0,33,34
EndSplineSet
Position2: "'cpsp' Capital Spacing lookup 0 per glyph data 0" dx=5 dy=0 dh=10 dv=0
EndChar

StartChar: oe
Encoding: 339 339 274
Width: 1882
GlyphClass: 1
Flags: W
LayerCount: 2
Fore
SplineSet
471 -20 m 0,0,1
 383 -20 383 -20 313.5 10.5 c 128,-1,2
 244 41 244 41 195.5 94.5 c 128,-1,3
 147 148 147 148 121 220.5 c 128,-1,4
 95 293 95 293 95 378 c 0,5,6
 95 460 95 460 116 541.5 c 128,-1,7
 137 623 137 623 175.5 698 c 128,-1,8
 214 773 214 773 269 837.5 c 128,-1,9
 324 902 324 902 391 949.5 c 128,-1,10
 458 997 458 997 536.5 1024.5 c 128,-1,11
 615 1052 615 1052 701 1052 c 0,12,13
 826 1052 826 1052 916.5 993 c 128,-1,14
 1007 934 1007 934 1049 814 c 1,15,16
 1088 868 1088 868 1132 911.5 c 128,-1,17
 1176 955 1176 955 1228 986.5 c 128,-1,18
 1280 1018 1280 1018 1339 1035 c 128,-1,19
 1398 1052 1398 1052 1467 1052 c 0,20,21
 1545 1052 1545 1052 1609 1031.5 c 128,-1,22
 1673 1011 1673 1011 1718 970 c 128,-1,23
 1763 929 1763 929 1787.5 868 c 128,-1,24
 1812 807 1812 807 1812 726 c 0,25,26
 1812 662 1812 662 1801.5 598.5 c 128,-1,27
 1791 535 1791 535 1771 474 c 1,28,-1
 1049 474 l 1,29,30
 1042 444 1042 444 1038 413 c 128,-1,31
 1034 382 1034 382 1034 351 c 0,32,33
 1034 233 1034 233 1094 165.5 c 128,-1,34
 1154 98 1154 98 1275 98 c 0,35,36
 1324 98 1324 98 1367 103.5 c 128,-1,37
 1410 109 1410 109 1450 122 c 128,-1,38
 1490 135 1490 135 1527.5 156.5 c 128,-1,39
 1565 178 1565 178 1602 211 c 1,40,-1
 1680 136 l 1,41,42
 1631 97 1631 97 1583.5 69 c 128,-1,43
 1536 41 1536 41 1486 23 c 128,-1,44
 1436 5 1436 5 1381.5 -3.5 c 128,-1,45
 1327 -12 1327 -12 1264 -12 c 0,46,47
 1202 -12 1202 -12 1148 1 c 128,-1,48
 1094 14 1094 14 1050.5 41.5 c 128,-1,49
 1007 69 1007 69 975 113 c 128,-1,50
 943 157 943 157 925 219 c 1,51,52
 843 109 843 109 726.5 44.5 c 128,-1,53
 610 -20 610 -20 471 -20 c 0,0,1
1678 584 m 1,54,55
 1687 617 1687 617 1694 651 c 128,-1,56
 1701 685 1701 685 1701 720 c 0,57,58
 1701 778 1701 778 1683 819.5 c 128,-1,59
 1665 861 1665 861 1633 887 c 128,-1,60
 1601 913 1601 913 1555.5 925.5 c 128,-1,61
 1510 938 1510 938 1456 938 c 0,62,63
 1380 938 1380 938 1317 908.5 c 128,-1,64
 1254 879 1254 879 1205.5 830 c 128,-1,65
 1157 781 1157 781 1124 717 c 128,-1,66
 1091 653 1091 653 1074 584 c 1,67,-1
 1678 584 l 1,54,55
483 100 m 0,68,69
 555 100 555 100 617 124 c 128,-1,70
 679 148 679 148 730.5 189 c 128,-1,71
 782 230 782 230 822 285.5 c 128,-1,72
 862 341 862 341 889.5 404 c 128,-1,73
 917 467 917 467 931.5 534 c 128,-1,74
 946 601 946 601 946 666 c 0,75,76
 946 727 946 727 930 776.5 c 128,-1,77
 914 826 914 826 882 860.5 c 128,-1,78
 850 895 850 895 802.5 913.5 c 128,-1,79
 755 932 755 932 692 932 c 0,80,81
 622 932 622 932 560 908 c 128,-1,82
 498 884 498 884 446.5 842.5 c 128,-1,83
 395 801 395 801 354.5 746 c 128,-1,84
 314 691 314 691 286 628.5 c 128,-1,85
 258 566 258 566 243.5 499.5 c 128,-1,86
 229 433 229 433 229 369 c 0,87,88
 229 309 229 309 245.5 259.5 c 128,-1,89
 262 210 262 210 294 174.5 c 128,-1,90
 326 139 326 139 373.5 119.5 c 128,-1,91
 421 100 421 100 483 100 c 0,68,69
EndSplineSet
EndChar

StartChar: tcaron
Encoding: 357 357 292
Width: 687
GlyphClass: 1
Flags: W
LayerCount: 2
Fore
SplineSet
695 1109 m 1,0,-1
 597 1109 l 1,1,-1
 799 1445 l 1,2,-1
 1004 1445 l 1,3,-1
 695 1109 l 1,0,-1
345 -21 m 0,4,5
 250 -21 250 -21 197.5 23.5 c 128,-1,6
 145 68 145 68 145 166 c 0,7,8
 145 195 145 195 149 223.5 c 128,-1,9
 153 252 153 252 159 281 c 2,10,-1
 305 934 l 1,11,-1
 147 934 l 1,12,-1
 171 1039 l 1,13,-1
 329 1039 l 1,14,-1
 381 1241 l 1,15,-1
 548 1359 l 1,16,-1
 464 1039 l 1,17,-1
 729 1039 l 1,18,-1
 705 934 l 1,19,-1
 440 934 l 1,20,21
 398 763 398 763 360.5 592.5 c 128,-1,22
 323 422 323 422 282 250 c 0,23,24
 274 215 274 215 274 181 c 0,25,26
 274 137 274 137 292 111 c 128,-1,27
 310 85 310 85 358 85 c 0,28,29
 389 85 389 85 419 89.5 c 128,-1,30
 449 94 449 94 478 106 c 1,31,-1
 460 0 l 1,32,33
 431 -8 431 -8 403 -14.5 c 128,-1,34
 375 -21 375 -21 345 -21 c 0,4,5
EndSplineSet
EndChar

StartChar: Tbar
Encoding: 358 358 293
Width: 1263
GlyphClass: 1
Flags: W
LayerCount: 2
Fore
SplineSet
586 0 m 1,0,-1
 447 0 l 1,1,-1
 598 653 l 1,2,-1
 355 653 l 1,3,-1
 380 757 l 1,4,-1
 622 757 l 1,5,-1
 748 1305 l 1,6,-1
 263 1305 l 1,7,-1
 288 1413 l 1,8,-1
 1396 1413 l 1,9,-1
 1371 1305 l 1,10,-1
 887 1305 l 1,11,-1
 761 757 l 1,12,-1
 1012 757 l 1,13,-1
 988 653 l 1,14,-1
 736 653 l 1,15,-1
 586 0 l 1,0,-1
EndSplineSet
Position2: "'cpsp' Capital Spacing lookup 0 per glyph data 0" dx=5 dy=0 dh=10 dv=0
EndChar

StartChar: tbar
Encoding: 359 359 294
Width: 683
GlyphClass: 1
Flags: W
LayerCount: 2
Fore
SplineSet
337 -20 m 0,0,1
 242 -20 242 -20 193.5 24 c 128,-1,2
 145 68 145 68 145 165 c 0,3,4
 145 241 145 241 163 317 c 128,-1,5
 181 393 181 393 200 467 c 1,6,-1
 -18 467 l 1,7,-1
 7 571 l 1,8,-1
 224 571 l 1,9,-1
 305 936 l 1,10,-1
 148 936 l 1,11,-1
 170 1039 l 1,12,-1
 328 1039 l 1,13,-1
 380 1235 l 1,14,-1
 546 1350 l 1,15,-1
 464 1039 l 1,16,-1
 729 1039 l 1,17,-1
 706 936 l 1,18,-1
 440 936 l 1,19,-1
 357 571 l 1,20,-1
 661 571 l 1,21,-1
 635 467 l 1,22,-1
 332 467 l 1,23,24
 324 439 324 439 314 402.5 c 128,-1,25
 304 366 304 366 295.5 327.5 c 128,-1,26
 287 289 287 289 281 253 c 128,-1,27
 275 217 275 217 275 188 c 0,28,29
 275 139 275 139 296.5 110 c 128,-1,30
 318 81 318 81 370 81 c 0,31,32
 398 81 398 81 425 88.5 c 128,-1,33
 452 96 452 96 478 106 c 1,34,-1
 461 -4 l 1,35,36
 436 -15 436 -15 400 -17.5 c 128,-1,37
 364 -20 364 -20 337 -20 c 0,0,1
EndSplineSet
EndChar

StartChar: Uogonek
Encoding: 370 370 305
Width: 1354
GlyphClass: 1
Flags: W
LayerCount: 2
Fore
SplineSet
543 -441 m 0,0,1
 504 -441 504 -441 472 -430.5 c 128,-1,2
 440 -420 440 -420 417 -399 c 128,-1,3
 394 -378 394 -378 381 -347.5 c 128,-1,4
 368 -317 368 -317 368 -277 c 0,5,6
 368 -230 368 -230 383 -191 c 128,-1,7
 398 -152 398 -152 423.5 -120.5 c 128,-1,8
 449 -89 449 -89 484 -64 c 128,-1,9
 519 -39 519 -39 558 -20 c 1,10,11
 468 -17 468 -17 398 7.5 c 128,-1,12
 328 32 328 32 279.5 79 c 128,-1,13
 231 126 231 126 205.5 195 c 128,-1,14
 180 264 180 264 180 356 c 0,15,16
 180 397 180 397 185 437 c 128,-1,17
 190 477 190 477 199 517 c 2,18,-1
 406 1413 l 1,19,-1
 543 1413 l 1,20,21
 506 1246 506 1246 467 1082 c 128,-1,22
 428 918 428 918 390 752 c 0,23,24
 379 706 379 706 366.5 657.5 c 128,-1,25
 354 609 354 609 343.5 560 c 128,-1,26
 333 511 333 511 326 462 c 128,-1,27
 319 413 319 413 319 365 c 0,28,29
 319 234 319 234 381 170.5 c 128,-1,30
 443 107 443 107 574 107 c 0,31,32
 677 107 677 107 754.5 144.5 c 128,-1,33
 832 182 832 182 888.5 245 c 128,-1,34
 945 308 945 308 981.5 391 c 128,-1,35
 1018 474 1018 474 1039 565 c 2,36,-1
 1134 978 l 2,37,38
 1159 1087 1159 1087 1184 1195.5 c 128,-1,39
 1209 1304 1209 1304 1235 1413 c 1,40,-1
 1372 1413 l 1,41,-1
 1218 738 l 2,42,43
 1214 723 1214 723 1211 708 c 2,44,-1
 1210 702 l 2,45,46
 1209 701 1209 701 1209 699 c 2,47,-1
 1208 694 l 2,48,49
 1207 689 1207 689 1206 685 c 2,50,-1
 1205 680 l 2,51,52
 1204 675 1204 675 1203 671 c 2,53,-1
 1202 666 l 2,54,55
 1198 650 1198 650 1195 635 c 2,56,-1
 1194 629 l 2,57,58
 1192 621 1192 621 1190 612 c 2,59,-1
 1189 607 l 2,60,61
 1188 603 1188 603 1187 598 c 2,62,-1
 1186 593 l 2,63,64
 1182 577 1182 577 1179 562 c 0,65,66
 1159 471 1159 471 1125 384 c 0,67,68
 1087 290 1087 290 1025.5 206.5 c 128,-1,69
 964 123 964 123 877 67 c 0,70,71
 841 44 841 44 802.5 29.5 c 128,-1,72
 764 15 764 15 724 1 c 0,73,74
 697 -9 697 -9 672.5 -23 c 128,-1,75
 648 -37 648 -37 624 -52 c 0,76,77
 596 -70 596 -70 568 -92 c 128,-1,78
 540 -114 540 -114 517.5 -140.5 c 128,-1,79
 495 -167 495 -167 481 -198.5 c 128,-1,80
 467 -230 467 -230 467 -266 c 0,81,82
 467 -295 467 -295 480 -315 c 128,-1,83
 493 -335 493 -335 525 -335 c 0,84,85
 570 -335 570 -335 608.5 -316.5 c 128,-1,86
 647 -298 647 -298 677 -265 c 1,87,88
 697 -282 697 -282 715.5 -299 c 128,-1,89
 734 -316 734 -316 753 -333 c 1,90,91
 711 -378 711 -378 658.5 -409.5 c 128,-1,92
 606 -441 606 -441 543 -441 c 0,0,1
EndSplineSet
Position2: "'cpsp' Capital Spacing lookup 0 per glyph data 0" dx=5 dy=0 dh=10 dv=0
EndChar

StartChar: uogonek
Encoding: 371 371 306
Width: 1143
GlyphClass: 1
Flags: W
LayerCount: 2
Fore
SplineSet
620 -453 m 0,0,1
 581 -453 581 -453 549 -442.5 c 128,-1,2
 517 -432 517 -432 493.5 -412 c 128,-1,3
 470 -392 470 -392 457 -361.5 c 128,-1,4
 444 -331 444 -331 444 -290 c 0,5,6
 444 -234 444 -234 469 -187 c 128,-1,7
 494 -140 494 -140 534 -103.5 c 128,-1,8
 574 -67 574 -67 623.5 -42 c 128,-1,9
 673 -17 673 -17 722 -3 c 1,10,-1
 717 -3 l 1,11,-1
 763 185 l 1,12,13
 734 141 734 141 693 103 c 128,-1,14
 652 65 652 65 604 37 c 128,-1,15
 556 9 556 9 503 -7 c 128,-1,16
 450 -23 450 -23 396 -23 c 0,17,18
 254 -23 254 -23 187 54 c 128,-1,19
 120 131 120 131 120 269 c 0,20,21
 120 310 120 310 125 349.5 c 128,-1,22
 130 389 130 389 139 428 c 2,23,-1
 275 1039 l 1,24,-1
 406 1039 l 1,25,-1
 262 403 l 2,26,27
 254 368 254 368 249 333 c 128,-1,28
 244 298 244 298 244 263 c 0,29,30
 244 223 244 223 252 190 c 128,-1,31
 260 157 260 157 278.5 133 c 128,-1,32
 297 109 297 109 327 95.5 c 128,-1,33
 357 82 357 82 400 82 c 0,34,35
 470 82 470 82 539 113.5 c 128,-1,36
 608 145 608 145 665.5 196.5 c 128,-1,37
 723 248 723 248 764.5 312.5 c 128,-1,38
 806 377 806 377 821 443 c 2,39,-1
 957 1039 l 1,40,-1
 1086 1039 l 1,41,-1
 848 0 l 1,42,-1
 792 -13 l 1,43,-1
 808 -13 l 1,44,45
 775 -26 775 -26 730 -53 c 128,-1,46
 685 -80 685 -80 643.5 -115 c 128,-1,47
 602 -150 602 -150 573.5 -190.5 c 128,-1,48
 545 -231 545 -231 545 -270 c 0,49,50
 545 -301 545 -301 558 -324.5 c 128,-1,51
 571 -348 571 -348 606 -348 c 0,52,53
 652 -348 652 -348 690.5 -330 c 128,-1,54
 729 -312 729 -312 761 -279 c 1,55,-1
 841 -347 l 1,56,57
 794 -396 794 -396 741.5 -424.5 c 128,-1,58
 689 -453 689 -453 620 -453 c 0,0,1
EndSplineSet
EndChar

StartChar: longs
Encoding: 383 383 318
Width: 717
GlyphClass: 2
Flags: W
LayerCount: 2
Fore
SplineSet
242 0 m 1,0,-1
 111 0 l 1,1,-1
 327 936 l 1,2,-1
 136 936 l 1,3,-1
 160 1037 l 1,4,-1
 351 1037 l 1,5,6
 371 1120 371 1120 392 1192.5 c 128,-1,7
 413 1265 413 1265 450.5 1318.5 c 128,-1,8
 488 1372 488 1372 550 1403 c 128,-1,9
 612 1434 612 1434 715 1434 c 0,10,11
 803 1434 803 1434 879 1395 c 1,12,-1
 832 1307 l 1,13,14
 775 1330 775 1330 714 1330 c 0,15,16
 641 1330 641 1330 592 1293 c 128,-1,17
 543 1256 543 1256 526 1184 c 2,18,-1
 242 0 l 1,0,-1
EndSplineSet
EndChar

StartChar: florin
Encoding: 402 402 319
Width: 1111
GlyphClass: 1
Flags: W
LayerCount: 2
Fore
SplineSet
-86 -458 m 1,0,-1
 -70 -340 l 1,1,2
 110 -340 110 -340 219 -257 c 128,-1,3
 328 -174 328 -174 369 3 c 2,4,-1
 581 924 l 1,5,-1
 396 924 l 1,6,-1
 424 1039 l 1,7,-1
 610 1039 l 1,8,9
 625 1095 625 1095 637.5 1146 c 128,-1,10
 650 1197 650 1197 669.5 1242 c 128,-1,11
 689 1287 689 1287 720.5 1326.5 c 128,-1,12
 752 1366 752 1366 806 1400 c 0,13,14
 885 1450 885 1450 978 1450 c 0,15,16
 1029 1450 1029 1450 1076 1430.5 c 128,-1,17
 1123 1411 1123 1411 1161 1378 c 1,18,-1
 1068 1300 l 1,19,20
 1049 1316 1049 1316 1022 1324 c 128,-1,21
 995 1332 995 1332 970 1332 c 0,22,23
 934 1332 934 1332 901 1320 c 0,24,25
 853 1302 853 1302 825.5 1272 c 128,-1,26
 798 1242 798 1242 781 1205 c 128,-1,27
 764 1168 764 1168 753.5 1125.5 c 128,-1,28
 743 1083 743 1083 731 1039 c 1,29,-1
 1050 1039 l 1,30,-1
 1022 924 l 1,31,-1
 704 924 l 1,32,-1
 486 -7 l 2,33,34
 461 -114 461 -114 409.5 -198 c 128,-1,35
 358 -282 358 -282 284.5 -340 c 128,-1,36
 211 -398 211 -398 117.5 -428 c 128,-1,37
 24 -458 24 -458 -86 -458 c 1,0,-1
EndSplineSet
EndChar

StartChar: uni01C3
Encoding: 451 451 324
Width: 679
GlyphClass: 1
Flags: W
LayerCount: 2
Fore
SplineSet
357 370 m 1,0,-1
 262 370 l 1,1,-1
 481 1435 l 1,2,-1
 633 1435 l 1,3,-1
 357 370 l 1,0,-1
313 0 m 1,4,-1
 137 0 l 1,5,-1
 176 175 l 1,6,-1
 352 175 l 1,7,-1
 313 0 l 1,4,-1
EndSplineSet
EndChar

StartChar: uni01DD
Encoding: 477 477 350
Width: 1058
GlyphClass: 1
Flags: W
LayerCount: 2
Fore
SplineSet
414 -12 m 0,0,1
 336 -12 336 -12 273 6.5 c 128,-1,2
 210 25 210 25 165.5 64 c 128,-1,3
 121 103 121 103 97.5 162.5 c 128,-1,4
 74 222 74 222 74 304 c 0,5,6
 74 331 74 331 77 365.5 c 128,-1,7
 80 400 80 400 85.5 436 c 128,-1,8
 91 472 91 472 99 506 c 128,-1,9
 107 540 107 540 117 565 c 1,10,-1
 840 565 l 1,11,12
 855 624 855 624 855 684 c 0,13,14
 855 743 855 743 840.5 790 c 128,-1,15
 826 837 826 837 797 870.5 c 128,-1,16
 768 904 768 904 723 922 c 128,-1,17
 678 940 678 940 616 940 c 0,18,19
 567 940 567 940 523.5 934 c 128,-1,20
 480 928 480 928 439.5 914.5 c 128,-1,21
 399 901 399 901 361 879 c 128,-1,22
 323 857 323 857 286 825 c 1,23,-1
 209 903 l 1,24,25
 259 942 259 942 306 970 c 128,-1,26
 353 998 353 998 402.5 1016.5 c 128,-1,27
 452 1035 452 1035 506 1043.5 c 128,-1,28
 560 1052 560 1052 624 1052 c 0,29,30
 710 1052 710 1052 777 1026.5 c 128,-1,31
 844 1001 844 1001 890 954 c 128,-1,32
 936 907 936 907 960 839 c 128,-1,33
 984 771 984 771 984 685 c 0,34,35
 984 606 984 606 966 523.5 c 128,-1,36
 948 441 948 441 914 363.5 c 128,-1,37
 880 286 880 286 830.5 218 c 128,-1,38
 781 150 781 150 717.5 98.5 c 128,-1,39
 654 47 654 47 577.5 17.5 c 128,-1,40
 501 -12 501 -12 414 -12 c 0,0,1
428 103 m 0,41,42
 504 103 504 103 567 132.5 c 128,-1,43
 630 162 630 162 678.5 210.5 c 128,-1,44
 727 259 727 259 761 322.5 c 128,-1,45
 795 386 795 386 813 454 c 1,46,-1
 204 447 l 1,47,48
 197 417 197 417 192 386.5 c 128,-1,49
 187 356 187 356 187 324 c 0,50,51
 187 266 187 266 204 224.5 c 128,-1,52
 221 183 221 183 252.5 156 c 128,-1,53
 284 129 284 129 328.5 116 c 128,-1,54
 373 103 373 103 428 103 c 0,41,42
EndSplineSet
EndChar

StartChar: uni01EB
Encoding: 491 491 353
Width: 1152
GlyphClass: 1
Flags: W
LayerCount: 2
Fore
SplineSet
348 -452 m 0,0,1
 310 -452 310 -452 277.5 -441 c 128,-1,2
 245 -430 245 -430 221.5 -408.5 c 128,-1,3
 198 -387 198 -387 184.5 -356 c 128,-1,4
 171 -325 171 -325 171 -286 c 0,5,6
 171 -233 171 -233 191 -189.5 c 128,-1,7
 211 -146 211 -146 244 -111 c 128,-1,8
 277 -76 277 -76 319.5 -50 c 128,-1,9
 362 -24 362 -24 407 -6 c 1,10,11
 327 4 327 4 267 38 c 128,-1,12
 207 72 207 72 166.5 124.5 c 128,-1,13
 126 177 126 177 105.5 244.5 c 128,-1,14
 85 312 85 312 85 389 c 0,15,16
 85 470 85 470 106 550 c 128,-1,17
 127 630 127 630 166 704 c 128,-1,18
 205 778 205 778 259.5 841.5 c 128,-1,19
 314 905 314 905 381 952 c 128,-1,20
 448 999 448 999 526 1025.5 c 128,-1,21
 604 1052 604 1052 688 1052 c 0,22,23
 777 1052 777 1052 847.5 1021.5 c 128,-1,24
 918 991 918 991 967.5 937.5 c 128,-1,25
 1017 884 1017 884 1043.5 810.5 c 128,-1,26
 1070 737 1070 737 1070 651 c 0,27,28
 1070 581 1070 581 1052.5 510 c 128,-1,29
 1035 439 1035 439 1003.5 372 c 128,-1,30
 972 305 972 305 927 244 c 128,-1,31
 882 183 882 183 827 134 c 128,-1,32
 772 85 772 85 707.5 50.5 c 128,-1,33
 643 16 643 16 573 1 c 0,34,35
 559 -2 559 -2 548.5 -4 c 128,-1,36
 538 -6 538 -6 528 -8.5 c 128,-1,37
 518 -11 518 -11 507.5 -15 c 128,-1,38
 497 -19 497 -19 484 -26 c 0,39,40
 453 -42 453 -42 415.5 -67 c 128,-1,41
 378 -92 378 -92 346.5 -123.5 c 128,-1,42
 315 -155 315 -155 293.5 -192 c 128,-1,43
 272 -229 272 -229 272 -268 c 0,44,45
 272 -283 272 -283 275.5 -297 c 128,-1,46
 279 -311 279 -311 286.5 -322.5 c 128,-1,47
 294 -334 294 -334 305.5 -341 c 128,-1,48
 317 -348 317 -348 334 -348 c 0,49,50
 381 -348 381 -348 419 -329.5 c 128,-1,51
 457 -311 457 -311 489 -277 c 1,52,-1
 569 -347 l 1,53,54
 522 -395 522 -395 469.5 -423.5 c 128,-1,55
 417 -452 417 -452 348 -452 c 0,0,1
470 108 m 0,56,57
 562 108 562 108 635.5 144 c 128,-1,58
 709 180 709 180 764 240 c 128,-1,59
 819 300 819 300 856 377 c 128,-1,60
 893 454 893 454 912 536 c 0,61,62
 920 571 920 571 925.5 607.5 c 128,-1,63
 931 644 931 644 931 681 c 0,64,65
 931 804 931 804 870.5 871 c 128,-1,66
 810 938 810 938 684 938 c 0,67,68
 591 938 591 938 518 902 c 128,-1,69
 445 866 445 866 390.5 806 c 128,-1,70
 336 746 336 746 300 668.5 c 128,-1,71
 264 591 264 591 245 509 c 0,72,73
 237 474 237 474 231.5 438 c 128,-1,74
 226 402 226 402 226 366 c 0,75,76
 226 244 226 244 285 176 c 128,-1,77
 344 108 344 108 470 108 c 0,56,57
EndSplineSet
EndChar

StartChar: uni0237
Encoding: 567 567 367
Width: 520
GlyphClass: 2
Flags: W
LayerCount: 2
Fore
SplineSet
-152 -439 m 0,0,1
 -190 -439 -190 -439 -227.5 -430.5 c 128,-1,2
 -265 -422 -265 -422 -300 -408 c 1,3,-1
 -252 -300 l 1,4,5
 -223 -308 -223 -308 -193.5 -311.5 c 128,-1,6
 -164 -315 -164 -315 -135 -315 c 0,7,8
 -68 -315 -68 -315 -29.5 -275 c 128,-1,9
 9 -235 9 -235 23 -173 c 2,10,-1
 306 1039 l 1,11,-1
 447 1039 l 1,12,-1
 167 -161 l 2,13,14
 152 -223 152 -223 125.5 -274.5 c 128,-1,15
 99 -326 99 -326 59.5 -362.5 c 128,-1,16
 20 -399 20 -399 -32.5 -419 c 128,-1,17
 -85 -439 -85 -439 -152 -439 c 0,0,1
EndSplineSet
EndChar

StartChar: uni0250
Encoding: 592 592 368
Width: 1065
GlyphClass: 1
Flags: W
LayerCount: 2
Fore
SplineSet
412 -20 m 0,0,1
 377 -20 377 -20 341.5 -16.5 c 128,-1,2
 306 -13 306 -13 273 -2.5 c 128,-1,3
 240 8 240 8 211 26.5 c 128,-1,4
 182 45 182 45 159 75 c 0,5,6
 127 118 127 118 111.5 168 c 128,-1,7
 96 218 96 218 96 272 c 0,8,9
 96 304 96 304 100 335.5 c 128,-1,10
 104 367 104 367 111 399 c 2,11,-1
 254 1035 l 1,12,-1
 365 1035 l 1,13,-1
 319 831 l 1,14,15
 400 937 400 937 504.5 996.5 c 128,-1,16
 609 1056 609 1056 745 1056 c 0,17,18
 800 1056 800 1056 848.5 1041 c 128,-1,19
 897 1026 897 1026 933 997 c 128,-1,20
 969 968 969 968 990 924 c 128,-1,21
 1011 880 1011 880 1011 821 c 0,22,23
 1011 775 1011 775 998.5 726 c 128,-1,24
 986 677 986 677 962 637 c 0,25,26
 925 576 925 576 867 539.5 c 128,-1,27
 809 503 809 503 741.5 482.5 c 128,-1,28
 674 462 674 462 602.5 455 c 128,-1,29
 531 448 531 448 466 447 c 2,30,-1
 234 445 l 1,31,32
 226 407 226 407 220 369 c 128,-1,33
 214 331 214 331 214 293 c 0,34,35
 214 190 214 190 267 140.5 c 128,-1,36
 320 91 320 91 422 91 c 0,37,38
 519 91 519 91 605 134 c 128,-1,39
 691 177 691 177 755 249 c 1,40,-1
 835 168 l 1,41,42
 748 75 748 75 644 27.5 c 128,-1,43
 540 -20 540 -20 412 -20 c 0,0,1
259 548 m 1,44,-1
 464 550 l 2,45,46
 524 551 524 551 584 556 c 128,-1,47
 644 561 644 561 697 579.5 c 128,-1,48
 750 598 750 598 792.5 634.5 c 128,-1,49
 835 671 835 671 860 735 c 0,50,51
 868 755 868 755 873.5 775.5 c 128,-1,52
 879 796 879 796 879 817 c 0,53,54
 879 855 879 855 864 879.5 c 128,-1,55
 849 904 849 904 825 918.5 c 128,-1,56
 801 933 801 933 770 939 c 128,-1,57
 739 945 739 945 707 945 c 0,58,59
 629 945 629 945 555 910.5 c 128,-1,60
 481 876 481 876 420.5 820 c 128,-1,61
 360 764 360 764 317.5 693 c 128,-1,62
 275 622 275 622 259 548 c 1,44,-1
EndSplineSet
EndChar

StartChar: uni0254
Encoding: 596 596 369
Width: 994
GlyphClass: 1
Flags: W
LayerCount: 2
Fore
SplineSet
368 -20 m 0,0,1
 232 -20 232 -20 144.5 44.5 c 128,-1,2
 57 109 57 109 32 246 c 1,3,-1
 156 293 l 1,4,5
 158 247 158 247 176 210 c 128,-1,6
 194 173 194 173 223.5 147 c 128,-1,7
 253 121 253 121 292 107 c 128,-1,8
 331 93 331 93 375 93 c 0,9,10
 444 93 444 93 502.5 120 c 128,-1,11
 561 147 561 147 608.5 192.5 c 128,-1,12
 656 238 656 238 692 297.5 c 128,-1,13
 728 357 728 357 752.5 422 c 128,-1,14
 777 487 777 487 789.5 553.5 c 128,-1,15
 802 620 802 620 802 679 c 0,16,17
 802 734 802 734 790.5 781.5 c 128,-1,18
 779 829 779 829 752.5 864.5 c 128,-1,19
 726 900 726 900 684 920.5 c 128,-1,20
 642 941 642 941 581 941 c 0,21,22
 533 941 533 941 484.5 924.5 c 128,-1,23
 436 908 436 908 393.5 880 c 128,-1,24
 351 852 351 852 316 814.5 c 128,-1,25
 281 777 281 777 259 735 c 1,26,-1
 152 797 l 1,27,28
 189 855 189 855 236.5 902.5 c 128,-1,29
 284 950 284 950 339.5 984 c 128,-1,30
 395 1018 395 1018 459 1037 c 128,-1,31
 523 1056 523 1056 593 1056 c 0,32,33
 679 1056 679 1056 742.5 1027.5 c 128,-1,34
 806 999 806 999 847.5 948.5 c 128,-1,35
 889 898 889 898 909.5 829 c 128,-1,36
 930 760 930 760 930 679 c 0,37,38
 930 602 930 602 912.5 520 c 128,-1,39
 895 438 895 438 861.5 360 c 128,-1,40
 828 282 828 282 779 213 c 128,-1,41
 730 144 730 144 667.5 92.5 c 128,-1,42
 605 41 605 41 530 10.5 c 128,-1,43
 455 -20 455 -20 368 -20 c 0,0,1
EndSplineSet
EndChar

StartChar: uni0258
Encoding: 600 600 370
Width: 1064
GlyphClass: 1
Flags: W
LayerCount: 2
Fore
SplineSet
400 -12 m 0,0,1
 344 -12 344 -12 293 -4 c 128,-1,2
 242 4 242 4 196.5 23 c 128,-1,3
 151 42 151 42 110.5 73 c 128,-1,4
 70 104 70 104 35 150 c 1,5,-1
 152 229 l 1,6,7
 176 194 176 194 205 172.5 c 128,-1,8
 234 151 234 151 267 139 c 128,-1,9
 300 127 300 127 336.5 122.5 c 128,-1,10
 373 118 373 118 413 118 c 0,11,12
 493 118 493 118 558 147 c 128,-1,13
 623 176 623 176 673.5 225.5 c 128,-1,14
 724 275 724 275 758 340.5 c 128,-1,15
 792 406 792 406 810 478 c 1,16,-1
 86 478 l 1,17,18
 89 506 89 506 96.5 538.5 c 128,-1,19
 104 571 104 571 114 604 c 128,-1,20
 124 637 124 637 136 668.5 c 128,-1,21
 148 700 148 700 160 726 c 0,22,23
 194 802 194 802 241 862.5 c 128,-1,24
 288 923 288 923 348 965.5 c 128,-1,25
 408 1008 408 1008 481 1030.5 c 128,-1,26
 554 1053 554 1053 639 1053 c 0,27,28
 728 1053 728 1053 795 1025 c 128,-1,29
 862 997 862 997 906.5 946.5 c 128,-1,30
 951 896 951 896 973.5 825.5 c 128,-1,31
 996 755 996 755 996 670 c 256,32,33
 996 585 996 585 977.5 501 c 128,-1,34
 959 417 959 417 923 341.5 c 128,-1,35
 887 266 887 266 835.5 201 c 128,-1,36
 784 136 784 136 717.5 89 c 128,-1,37
 651 42 651 42 571.5 15 c 128,-1,38
 492 -12 492 -12 400 -12 c 0,0,1
256 588 m 1,39,-1
 840 602 l 1,40,41
 845 625 845 625 847.5 648.5 c 128,-1,42
 850 672 850 672 850 695 c 0,43,44
 850 803 850 803 797 861.5 c 128,-1,45
 744 920 744 920 634 920 c 0,46,47
 559 920 559 920 496 894.5 c 128,-1,48
 433 869 433 869 385 824.5 c 128,-1,49
 337 780 337 780 304.5 719.5 c 128,-1,50
 272 659 272 659 256 588 c 1,39,-1
EndSplineSet
EndChar

StartChar: uni0259
Encoding: 601 601 371
Width: 1058
GlyphClass: 1
Flags: W
LayerCount: 2
Fore
SplineSet
414 -12 m 0,0,1
 336 -12 336 -12 273 6.5 c 128,-1,2
 210 25 210 25 165.5 64 c 128,-1,3
 121 103 121 103 97.5 162.5 c 128,-1,4
 74 222 74 222 74 304 c 0,5,6
 74 331 74 331 77 365.5 c 128,-1,7
 80 400 80 400 85.5 436 c 128,-1,8
 91 472 91 472 99 506 c 128,-1,9
 107 540 107 540 117 565 c 1,10,-1
 840 565 l 1,11,12
 855 624 855 624 855 684 c 0,13,14
 855 743 855 743 840.5 790 c 128,-1,15
 826 837 826 837 797 870.5 c 128,-1,16
 768 904 768 904 723 922 c 128,-1,17
 678 940 678 940 616 940 c 0,18,19
 567 940 567 940 523.5 934 c 128,-1,20
 480 928 480 928 439.5 914.5 c 128,-1,21
 399 901 399 901 361 879 c 128,-1,22
 323 857 323 857 286 825 c 1,23,-1
 209 903 l 1,24,25
 259 942 259 942 306 970 c 128,-1,26
 353 998 353 998 402.5 1016.5 c 128,-1,27
 452 1035 452 1035 506 1043.5 c 128,-1,28
 560 1052 560 1052 624 1052 c 0,29,30
 710 1052 710 1052 777 1026.5 c 128,-1,31
 844 1001 844 1001 890 954 c 128,-1,32
 936 907 936 907 960 839 c 128,-1,33
 984 771 984 771 984 685 c 0,34,35
 984 606 984 606 966 523.5 c 128,-1,36
 948 441 948 441 914 363.5 c 128,-1,37
 880 286 880 286 830.5 218 c 128,-1,38
 781 150 781 150 717.5 98.5 c 128,-1,39
 654 47 654 47 577.5 17.5 c 128,-1,40
 501 -12 501 -12 414 -12 c 0,0,1
428 103 m 0,41,42
 504 103 504 103 567 132.5 c 128,-1,43
 630 162 630 162 678.5 210.5 c 128,-1,44
 727 259 727 259 761 322.5 c 128,-1,45
 795 386 795 386 813 454 c 1,46,-1
 204 447 l 1,47,48
 197 417 197 417 192 386.5 c 128,-1,49
 187 356 187 356 187 324 c 0,50,51
 187 266 187 266 204 224.5 c 128,-1,52
 221 183 221 183 252.5 156 c 128,-1,53
 284 129 284 129 328.5 116 c 128,-1,54
 373 103 373 103 428 103 c 0,41,42
EndSplineSet
EndChar

